AmstelvarA2-Roman_opsz8_wght100.ufo
<glyph name="exclam" format="2">
  <advance width="656"/>
  <unicode hex="0021"/>
  <outline>
    <contour>
      <point x="223" y="88" type="qcurve" smooth="yes"/>
      <point x="223" y="130"/>
      <point x="282" y="192"/>
      <point x="328" y="192" type="qcurve" smooth="yes"/>
      <point x="373" y="192"/>
      <point x="432" y="130"/>
      <point x="432" y="88" type="qcurve" smooth="yes"/>
      <point x="432" y="46"/>
      <point x="373" y="-16"/>
      <point x="328" y="-16" type="qcurve" smooth="yes"/>
      <point x="282" y="-16"/>
      <point x="223" y="46"/>
    </contour>
    <contour>
      <point x="263" y="1391" type="line" smooth="yes"/>
      <point x="261" y="1459"/>
      <point x="289" y="1546"/>
      <point x="327" y="1547" type="qcurve" smooth="yes"/>
      <point x="365" y="1548"/>
      <point x="395" y="1461"/>
      <point x="393" y="1392" type="qcurve" smooth="yes"/>
      <point x="385" y="1108" type="line"/>
      <point x="367" y="800" type="line"/>
      <point x="367" y="435" type="line"/>
      <point x="288" y="435" type="line"/>
      <point x="288" y="800" type="line"/>
      <point x="271" y="1108" type="line"/>
    </contour>
  </outline>
</glyph>
<glyph name="quotedbl" format="2">
  <advance width="1051"/>
  <unicode hex="0022"/>
  <outline>
    <contour>
      <point x="278" y="964" type="line"/>
      <point x="227" y="1459" type="line"/>
      <point x="227" y="1494"/>
      <point x="272" y="1558"/>
      <point x="318" y="1558" type="qcurve" smooth="yes"/>
      <point x="364" y="1558"/>
      <point x="409" y="1494"/>
      <point x="409" y="1459" type="qcurve"/>
      <point x="356" y="964" type="line"/>
    </contour>
    <contour>
      <point x="692" y="964" type="line"/>
      <point x="642" y="1459" type="line"/>
      <point x="642" y="1494"/>
      <point x="687" y="1558"/>
      <point x="733" y="1558" type="qcurve" smooth="yes"/>
      <point x="779" y="1558"/>
      <point x="824" y="1494"/>
      <point x="824" y="1459" type="qcurve"/>
      <point x="771" y="964" type="line"/>
    </contour>
  </outline>
</glyph>
<glyph name="dollar" format="2">
  <advance width="1279"/>
  <unicode hex="0024"/>
  <outline>
    <contour>
      <point x="82" y="267" type="qcurve"/>
      <point x="176" y="335" type="line"/>
      <point x="248" y="236"/>
      <point x="483" y="102"/>
      <point x="659" y="102" type="qcurve" smooth="yes"/>
      <point x="846" y="102"/>
      <point x="1049" y="266"/>
      <point x="1049" y="394" type="qcurve" smooth="yes"/>
      <point x="1049" y="545"/>
      <point x="806" y="696"/>
      <point x="622" y="747" type="qcurve" smooth="yes"/>
      <point x="361" y="822"/>
      <point x="163" y="985"/>
      <point x="163" y="1133" type="qcurve" smooth="yes"/>
      <point x="163" y="1284"/>
      <point x="404" y="1501"/>
      <point x="635" y="1501" type="qcurve" smooth="yes"/>
      <point x="775" y="1501"/>
      <point x="1022" y="1437"/>
      <point x="1115" y="1375" type="qcurve"/>
      <point x="1053" y="1281" type="line"/>
      <point x="987" y="1326"/>
      <point x="778" y="1392"/>
      <point x="639" y="1392" type="qcurve" smooth="yes"/>
      <point x="468" y="1392"/>
      <point x="305" y="1270"/>
      <point x="305" y="1160" type="qcurve" smooth="yes"/>
      <point x="305" y="1059"/>
      <point x="449" y="923"/>
      <point x="687" y="853" type="qcurve" smooth="yes"/>
      <point x="940" y="774"/>
      <point x="1191" y="598"/>
      <point x="1191" y="421" type="qcurve" smooth="yes"/>
      <point x="1191" y="248"/>
      <point x="906" y="1"/>
      <point x="654" y="1" type="qcurve" smooth="yes"/>
      <point x="445" y="1"/>
      <point x="168" y="141"/>
    </contour>
    <contour>
      <point x="593" y="-190" type="line"/>
      <point x="593" y="38" type="line"/>
      <point x="610" y="43" type="line"/>
      <point x="610" y="820" type="line"/>
      <point x="713" y="778" type="line"/>
      <point x="713" y="44" type="line"/>
      <point x="732" y="44" type="line"/>
      <point x="732" y="-147" type="line"/>
    </contour>
    <contour>
      <point x="592" y="1616" type="line"/>
      <point x="731" y="1649" type="line"/>
      <point x="731" y="1432" type="line"/>
      <point x="713" y="1432" type="line"/>
      <point x="713" y="778" type="line"/>
      <point x="610" y="820" type="line"/>
      <point x="610" y="1432" type="line"/>
      <point x="592" y="1432" type="line"/>
    </contour>
  </outline>
</glyph>
<glyph name="ampersand" format="2">
  <advance width="1901"/>
  <unicode hex="0026"/>
  <outline>
    <contour>
      <point x="652" y="-28" type="qcurve" smooth="yes"/>
      <point x="335" y="-28"/>
      <point x="81" y="226"/>
      <point x="91" y="374" type="qcurve" smooth="yes"/>
      <point x="97" y="490"/>
      <point x="258" y="765"/>
      <point x="606" y="896" type="qcurve"/>
      <point x="815" y="952"/>
      <point x="973" y="1123"/>
      <point x="973" y="1215" type="qcurve" smooth="yes"/>
      <point x="973" y="1307"/>
      <point x="831" y="1425"/>
      <point x="703" y="1425" type="qcurve" smooth="yes"/>
      <point x="586" y="1425"/>
      <point x="434" y="1304"/>
      <point x="434" y="1196" type="qcurve" smooth="yes"/>
      <point x="434" y="1095"/>
      <point x="558" y="930"/>
      <point x="698" y="885" type="qcurve"/>
      <point x="1278" y="263" type="line" smooth="yes"/>
      <point x="1358" y="176"/>
      <point x="1510" y="76"/>
      <point x="1593" y="76" type="qcurve" smooth="yes"/>
      <point x="1670" y="76"/>
      <point x="1762" y="121"/>
      <point x="1803" y="159" type="qcurve"/>
      <point x="1866" y="113" type="line"/>
      <point x="1814" y="44"/>
      <point x="1667" y="-36"/>
      <point x="1558" y="-37" type="qcurve" smooth="yes"/>
      <point x="1460" y="-38"/>
      <point x="1331" y="45"/>
      <point x="1179" y="191" type="qcurve" smooth="yes"/>
      <point x="588" y="829" type="line"/>
      <point x="485" y="863"/>
      <point x="308" y="1053"/>
      <point x="315" y="1186" type="qcurve" smooth="yes"/>
      <point x="321" y="1317"/>
      <point x="503" y="1516"/>
      <point x="701" y="1516" type="qcurve" smooth="yes"/>
      <point x="895" y="1516"/>
      <point x="1098" y="1348"/>
      <point x="1098" y="1201" type="qcurve" smooth="yes"/>
      <point x="1098" y="1084"/>
      <point x="840" y="873"/>
      <point x="645" y="828" type="qcurve"/>
      <point x="427" y="732"/>
      <point x="236" y="531"/>
      <point x="229" y="403" type="qcurve" smooth="yes"/>
      <point x="221" y="257"/>
      <point x="436" y="94"/>
      <point x="657" y="94" type="qcurve" smooth="yes"/>
      <point x="991" y="94"/>
      <point x="1598" y="572"/>
      <point x="1774" y="871" type="qcurve"/>
      <point x="1865" y="859" type="line"/>
      <point x="1710" y="543"/>
      <point x="1004" y="-28"/>
    </contour>
    <contour>
      <point x="1259" y="839" type="line"/>
      <point x="1286" y="892"/>
      <point x="1388" y="960"/>
      <point x="1442" y="960" type="qcurve" smooth="yes"/>
      <point x="1494" y="960"/>
      <point x="1650" y="903"/>
      <point x="1694" y="903" type="qcurve" smooth="yes"/>
      <point x="1728" y="903"/>
      <point x="1774" y="914"/>
      <point x="1806" y="941" type="qcurve"/>
      <point x="1881" y="873" type="line"/>
      <point x="1810" y="792"/>
      <point x="1733" y="781"/>
      <point x="1679" y="784" type="qcurve" smooth="yes"/>
      <point x="1663" y="785"/>
      <point x="1508" y="851"/>
      <point x="1462" y="851" type="qcurve" smooth="yes"/>
      <point x="1415" y="851"/>
      <point x="1343" y="806"/>
      <point x="1320" y="781" type="qcurve"/>
    </contour>
  </outline>
</glyph>
<glyph name="quotesingle" format="2">
  <advance width="636"/>
  <unicode hex="0027"/>
  <outline>
    <contour>
      <point x="286" y="964" type="line"/>
      <point x="227" y="1459" type="line"/>
      <point x="227" y="1494"/>
      <point x="272" y="1558"/>
      <point x="318" y="1558" type="qcurve" smooth="yes"/>
      <point x="364" y="1558"/>
      <point x="409" y="1494"/>
      <point x="409" y="1459" type="qcurve"/>
      <point x="348" y="964" type="line"/>
    </contour>
  </outline>
</glyph>
<glyph name="parenleft" format="2">
  <advance width="537"/>
  <unicode hex="0028"/>
  <outline>
    <contour>
      <point x="68" y="521" type="qcurve" smooth="yes"/>
      <point x="68" y="816"/>
      <point x="319" y="1389"/>
      <point x="459" y="1526" type="qcurve"/>
      <point x="517" y="1465" type="line"/>
      <point x="389" y="1312"/>
      <point x="202" y="810"/>
      <point x="202" y="521" type="qcurve" smooth="yes"/>
      <point x="202" y="232"/>
      <point x="386" y="-274"/>
      <point x="517" y="-424" type="qcurve"/>
      <point x="459" y="-485" type="line"/>
      <point x="319" y="-348"/>
      <point x="68" y="213"/>
    </contour>
  </outline>
</glyph>
<glyph name="asterisk" format="2">
  <advance width="932"/>
  <unicode hex="002A"/>
  <outline>
    <contour>
      <point x="466" y="664" type="qcurve" smooth="yes"/>
      <point x="424" y="664"/>
      <point x="389" y="722"/>
      <point x="399" y="758" type="qcurve" smooth="yes"/>
      <point x="452" y="1082" type="line"/>
      <point x="450" y="1084" type="line"/>
      <point x="195" y="877" type="line" smooth="yes"/>
      <point x="173" y="855"/>
      <point x="102" y="849"/>
      <point x="79" y="888" type="qcurve" smooth="yes"/>
      <point x="57" y="926"/>
      <point x="98" y="985"/>
      <point x="128" y="992" type="qcurve" smooth="yes"/>
      <point x="434" y="1108" type="line"/>
      <point x="433" y="1113" type="line"/>
      <point x="129" y="1231" type="line" smooth="yes"/>
      <point x="99" y="1238"/>
      <point x="58" y="1297"/>
      <point x="80" y="1336" type="qcurve" smooth="yes"/>
      <point x="102" y="1374"/>
      <point x="174" y="1368"/>
      <point x="196" y="1346" type="qcurve" smooth="yes"/>
      <point x="448" y="1138" type="line"/>
      <point x="451" y="1140" type="line"/>
      <point x="399" y="1464" type="line" smooth="yes"/>
      <point x="389" y="1502"/>
      <point x="426" y="1558"/>
      <point x="466" y="1558" type="qcurve" smooth="yes"/>
      <point x="508" y="1558"/>
      <point x="544" y="1500"/>
      <point x="533" y="1464" type="qcurve" smooth="yes"/>
      <point x="481" y="1140" type="line"/>
      <point x="484" y="1138" type="line"/>
      <point x="739" y="1345" type="line" smooth="yes"/>
      <point x="760" y="1367"/>
      <point x="831" y="1373"/>
      <point x="853" y="1334" type="qcurve" smooth="yes"/>
      <point x="876" y="1296"/>
      <point x="836" y="1237"/>
      <point x="805" y="1230" type="qcurve" smooth="yes"/>
      <point x="499" y="1114" type="line"/>
      <point x="500" y="1109" type="line"/>
      <point x="805" y="992" type="line" smooth="yes"/>
      <point x="836" y="985"/>
      <point x="876" y="926"/>
      <point x="853" y="887" type="qcurve" smooth="yes"/>
      <point x="831" y="849"/>
      <point x="760" y="854"/>
      <point x="739" y="876" type="qcurve" smooth="yes"/>
      <point x="485" y="1084" type="line"/>
      <point x="482" y="1082" type="line"/>
      <point x="533" y="758" type="line" smooth="yes"/>
      <point x="543" y="722"/>
      <point x="511" y="664"/>
    </contour>
  </outline>
</glyph>
<glyph name="plus" format="2">
  <advance width="1205"/>
  <unicode hex="002B"/>
  <outline>
    <contour>
      <point x="106" y="569" type="line"/>
      <point x="106" y="696" type="line"/>
      <point x="1099" y="696" type="line"/>
      <point x="1099" y="569" type="line"/>
    </contour>
    <contour>
      <point x="536" y="135" type="line"/>
      <point x="536" y="1129" type="line"/>
      <point x="669" y="1129" type="line"/>
      <point x="669" y="135" type="line"/>
    </contour>
  </outline>
</glyph>
<glyph name="comma" format="2">
  <advance width="636"/>
  <unicode hex="002C"/>
  <outline>
    <contour>
      <point x="167" y="-229" type="line"/>
      <point x="210" y="-200"/>
      <point x="332" y="-65"/>
      <point x="346" y="-5" type="qcurve"/>
      <point x="288" y="-6"/>
      <point x="224" y="44"/>
      <point x="224" y="91" type="qcurve" smooth="yes"/>
      <point x="224" y="133"/>
      <point x="283" y="196"/>
      <point x="328" y="196" type="qcurve" smooth="yes"/>
      <point x="371" y="196"/>
      <point x="433" y="140"/>
      <point x="433" y="85" type="qcurve" smooth="yes"/>
      <point x="433" y="-17"/>
      <point x="297" y="-224"/>
      <point x="209" y="-277" type="qcurve"/>
    </contour>
  </outline>
</glyph>
<glyph name="hyphen" format="2">
  <advance width="972"/>
  <unicode hex="002D"/>
  <outline>
    <contour>
      <point x="106" y="569" type="line"/>
      <point x="106" y="696" type="line"/>
      <point x="486" y="693" type="line"/>
      <point x="866" y="696" type="line"/>
      <point x="866" y="569" type="line"/>
      <point x="486" y="573" type="line"/>
    </contour>
  </outline>
</glyph>
<glyph name="period" format="2">
  <advance width="636"/>
  <unicode hex="002E"/>
  <outline>
    <contour>
      <point x="213" y="88" type="qcurve" smooth="yes"/>
      <point x="213" y="130"/>
      <point x="272" y="192"/>
      <point x="318" y="192" type="qcurve" smooth="yes"/>
      <point x="364" y="192"/>
      <point x="423" y="130"/>
      <point x="423" y="88" type="qcurve" smooth="yes"/>
      <point x="423" y="46"/>
      <point x="364" y="-16"/>
      <point x="318" y="-16" type="qcurve"/>
      <point x="272" y="-16"/>
      <point x="213" y="46"/>
    </contour>
  </outline>
</glyph>
<glyph name="zero" format="2">
  <advance width="1241"/>
  <unicode hex="0030"/>
  <outline>
    <contour>
      <point x="100" y="755" type="qcurve" smooth="yes"/>
      <point x="100" y="1104"/>
      <point x="395" y="1538"/>
      <point x="622" y="1538" type="qcurve" smooth="yes"/>
      <point x="854" y="1538"/>
      <point x="1141" y="1110"/>
      <point x="1141" y="763" type="qcurve" smooth="yes"/>
      <point x="1141" y="437"/>
      <point x="858" y="-22"/>
      <point x="627" y="-22" type="qcurve" smooth="yes"/>
      <point x="392" y="-22"/>
      <point x="100" y="404"/>
    </contour>
    <contour>
      <point x="227" y="781" type="qcurve" smooth="yes"/>
      <point x="228" y="478"/>
      <point x="444" y="73"/>
      <point x="620" y="73" type="qcurve" smooth="yes"/>
      <point x="810" y="73"/>
      <point x="1012" y="444"/>
      <point x="1014" y="755" type="qcurve" smooth="yes"/>
      <point x="1016" y="1049"/>
      <point x="801" y="1429"/>
      <point x="623" y="1429" type="qcurve" smooth="yes"/>
      <point x="430" y="1429"/>
      <point x="226" y="1083"/>
    </contour>
  </outline>
</glyph>
<glyph name="two" format="2">
  <advance width="1098"/>
  <unicode hex="0032"/>
  <outline>
    <contour>
      <point x="58" y="0" type="line"/>
      <point x="58" y="122" type="line"/>
      <point x="88" y="248"/>
      <point x="298" y="496"/>
      <point x="505" y="644" type="qcurve" smooth="yes"/>
      <point x="721" y="798"/>
      <point x="884" y="1007"/>
      <point x="884" y="1154" type="qcurve" smooth="yes"/>
      <point x="884" y="1287"/>
      <point x="722" y="1429"/>
      <point x="588" y="1429" type="qcurve" smooth="yes"/>
      <point x="445" y="1429"/>
      <point x="209" y="1340"/>
      <point x="112" y="1238" type="qcurve"/>
      <point x="48" y="1312" type="line"/>
      <point x="118" y="1404"/>
      <point x="368" y="1538"/>
      <point x="566" y="1538" type="qcurve" smooth="yes"/>
      <point x="758" y="1538"/>
      <point x="1016" y="1337"/>
      <point x="1016" y="1147" type="qcurve" smooth="yes"/>
      <point x="1016" y="942"/>
      <point x="696" y="660"/>
      <point x="566" y="575" type="qcurve" smooth="yes"/>
      <point x="418" y="481"/>
      <point x="185" y="245"/>
      <point x="161" y="125" type="qcurve"/>
      <point x="171" y="114" type="line"/>
      <point x="1062" y="114" type="line"/>
      <point x="1062" y="0" type="line"/>
    </contour>
  </outline>
</glyph>
<glyph name="three" format="2">
  <advance width="1131"/>
  <unicode hex="0033"/>
  <outline>
    <contour>
      <point x="30" y="143" type="qcurve"/>
      <point x="90" y="231" type="line"/>
      <point x="186" y="151"/>
      <point x="393" y="82"/>
      <point x="532" y="82" type="qcurve" smooth="yes"/>
      <point x="686" y="82"/>
      <point x="888" y="239"/>
      <point x="888" y="402" type="qcurve" smooth="yes"/>
      <point x="888" y="581"/>
      <point x="598" y="747"/>
      <point x="371" y="748" type="qcurve" smooth="yes"/>
      <point x="307" y="748" type="line"/>
      <point x="275" y="833" type="line"/>
      <point x="397" y="838" type="line" smooth="yes"/>
      <point x="613" y="846"/>
      <point x="849" y="1024"/>
      <point x="849" y="1186" type="qcurve" smooth="yes"/>
      <point x="849" y="1309"/>
      <point x="694" y="1440"/>
      <point x="573" y="1440" type="qcurve" smooth="yes"/>
      <point x="445" y="1440"/>
      <point x="250" y="1360"/>
      <point x="144" y="1270" type="qcurve"/>
      <point x="93" y="1358" type="line"/>
      <point x="180" y="1444"/>
      <point x="403" y="1538"/>
      <point x="550" y="1538" type="qcurve" smooth="yes"/>
      <point x="749" y="1538"/>
      <point x="977" y="1348"/>
      <point x="977" y="1197" type="qcurve" smooth="yes"/>
      <point x="977" y="1039"/>
      <point x="793" y="851"/>
      <point x="610" y="810" type="qcurve"/>
      <point x="609" y="803" type="line"/>
      <point x="796" y="777"/>
      <point x="1018" y="567"/>
      <point x="1018" y="391" type="qcurve" smooth="yes"/>
      <point x="1018" y="192"/>
      <point x="725" y="-22"/>
      <point x="491" y="-22" type="qcurve" smooth="yes"/>
      <point x="356" y="-22"/>
      <point x="108" y="67"/>
    </contour>
  </outline>
</glyph>
<glyph name="four" format="2">
  <advance width="1383"/>
  <unicode hex="0034"/>
  <outline>
    <contour>
      <point x="74" y="559" type="line"/>
      <point x="920" y="1564" type="line"/>
      <point x="987" y="1527" type="line"/>
      <point x="1010" y="1511" type="line"/>
      <point x="1004" y="504" type="line"/>
      <point x="1004" y="133" type="line"/>
      <point x="1261" y="98" type="line"/>
      <point x="1261" y="0" type="line"/>
      <point x="613" y="0" type="line"/>
      <point x="613" y="98" type="line"/>
      <point x="880" y="133" type="line"/>
      <point x="889" y="502" type="line"/>
      <point x="889" y="1373" type="line"/>
      <point x="217" y="579" type="line"/>
      <point x="223" y="569" type="line"/>
      <point x="1317" y="543" type="line"/>
      <point x="1317" y="463" type="line"/>
      <point x="94" y="459" type="line"/>
    </contour>
  </outline>
</glyph>
<glyph name="five" format="2">
  <advance width="1185"/>
  <unicode hex="0035"/>
  <outline>
    <contour>
      <point x="28" y="143" type="qcurve"/>
      <point x="95" y="232" type="line"/>
      <point x="166" y="174"/>
      <point x="379" y="89"/>
      <point x="529" y="89" type="qcurve" smooth="yes"/>
      <point x="689" y="89"/>
      <point x="910" y="257"/>
      <point x="910" y="437" type="qcurve" smooth="yes"/>
      <point x="910" y="614"/>
      <point x="589" y="812"/>
      <point x="295" y="812" type="qcurve" smooth="yes"/>
      <point x="181" y="812" type="line"/>
      <point x="143" y="860" type="line"/>
      <point x="211" y="1484" type="line"/>
      <point x="238" y="1517" type="line"/>
      <point x="952" y="1517" type="line"/>
      <point x="945" y="1396" type="line"/>
      <point x="300" y="1396" type="line"/>
      <point x="290" y="1385" type="line"/>
      <point x="234" y="904" type="line"/>
      <point x="412" y="946" type="line"/>
      <point x="681" y="946"/>
      <point x="1041" y="723"/>
      <point x="1041" y="503" type="qcurve" smooth="yes"/>
      <point x="1041" y="264"/>
      <point x="728" y="-22"/>
      <point x="516" y="-22" type="qcurve" smooth="yes"/>
      <point x="351" y="-22"/>
      <point x="104" y="70"/>
    </contour>
  </outline>
</glyph>
<glyph name="seven" format="2">
  <advance width="1152"/>
  <unicode hex="0037"/>
  <outline>
    <contour>
      <point x="65" y="1161" type="line"/>
      <point x="83" y="1517" type="line"/>
      <point x="1120" y="1517" type="line"/>
      <point x="1120" y="1449" type="line"/>
      <point x="723" y="635" type="line"/>
      <point x="460" y="-13" type="line"/>
      <point x="316" y="-13" type="line"/>
      <point x="316" y="44" type="line"/>
      <point x="645" y="667" type="line"/>
      <point x="1020" y="1378" type="line"/>
      <point x="990" y="1401" type="line"/>
      <point x="187" y="1401" type="line"/>
      <point x="151" y="1161" type="line"/>
    </contour>
  </outline>
</glyph>
<glyph name="eight" format="2">
  <advance width="1245"/>
  <unicode hex="0038"/>
  <outline>
    <contour>
      <point x="75" y="394" type="qcurve" smooth="yes"/>
      <point x="75" y="587"/>
      <point x="360" y="811"/>
      <point x="532" y="867" type="qcurve"/>
      <point x="622" y="816" type="line"/>
      <point x="429" y="757"/>
      <point x="191" y="568"/>
      <point x="191" y="409" type="qcurve" smooth="yes"/>
      <point x="191" y="266"/>
      <point x="433" y="69"/>
      <point x="643" y="69" type="qcurve" smooth="yes"/>
      <point x="823" y="69"/>
      <point x="1078" y="246"/>
      <point x="1078" y="387" type="qcurve" smooth="yes"/>
      <point x="1078" y="511"/>
      <point x="902" y="697"/>
      <point x="668" y="785" type="qcurve" smooth="yes"/>
      <point x="420" y="878"/>
      <point x="196" y="1049"/>
      <point x="196" y="1182" type="qcurve" smooth="yes"/>
      <point x="196" y="1348"/>
      <point x="468" y="1547"/>
      <point x="662" y="1547" type="qcurve" smooth="yes"/>
      <point x="856" y="1547"/>
      <point x="1095" y="1365"/>
      <point x="1095" y="1232" type="qcurve" smooth="yes"/>
      <point x="1095" y="1100"/>
      <point x="910" y="905"/>
      <point x="728" y="830" type="qcurve"/>
      <point x="646" y="881" type="line"/>
      <point x="817" y="943"/>
      <point x="977" y="1095"/>
      <point x="977" y="1209" type="qcurve" smooth="yes"/>
      <point x="976" y="1316"/>
      <point x="806" y="1455"/>
      <point x="648" y="1455" type="qcurve" smooth="yes"/>
      <point x="499" y="1455"/>
      <point x="305" y="1306"/>
      <point x="305" y="1202" type="qcurve" smooth="yes"/>
      <point x="305" y="1102"/>
      <point x="477" y="955"/>
      <point x="732" y="864" type="qcurve" smooth="yes"/>
      <point x="982" y="775"/>
      <point x="1192" y="570"/>
      <point x="1192" y="410" type="qcurve" smooth="yes"/>
      <point x="1192" y="235"/>
      <point x="889" y="-22"/>
      <point x="633" y="-22" type="qcurve" smooth="yes"/>
      <point x="375" y="-22"/>
      <point x="75" y="230"/>
    </contour>
  </outline>
</glyph>
<glyph name="nine" format="2">
  <advance width="1227"/>
  <unicode hex="0039"/>
  <outline>
    <contour>
      <point x="77" y="1014" type="qcurve" smooth="yes"/>
      <point x="77" y="1249"/>
      <point x="362" y="1537"/>
      <point x="570" y="1537" type="qcurve" smooth="yes"/>
      <point x="815" y="1537"/>
      <point x="1127" y="1169"/>
      <point x="1127" y="884" type="qcurve" smooth="yes"/>
      <point x="1127" y="552"/>
      <point x="670" y="30"/>
      <point x="263" y="-86" type="qcurve"/>
      <point x="232" y="-3" type="line"/>
      <point x="585" y="111"/>
      <point x="995" y="523"/>
      <point x="995" y="887" type="qcurve" smooth="yes"/>
      <point x="995" y="1157"/>
      <point x="742" y="1444"/>
      <point x="570" y="1444" type="qcurve" smooth="yes"/>
      <point x="388" y="1444"/>
      <point x="206" y="1228"/>
      <point x="206" y="1048" type="qcurve" smooth="yes"/>
      <point x="206" y="871"/>
      <point x="420" y="694"/>
      <point x="606" y="694" type="qcurve" smooth="yes"/>
      <point x="661" y="694"/>
      <point x="762" y="712"/>
      <point x="813" y="733" type="qcurve"/>
      <point x="845" y="670" type="line"/>
      <point x="796" y="629"/>
      <point x="653" y="574"/>
      <point x="554" y="574" type="qcurve" smooth="yes"/>
      <point x="338" y="574"/>
      <point x="77" y="816"/>
    </contour>
  </outline>
</glyph>
<glyph name="colon" format="2">
  <advance width="716"/>
  <unicode hex="003A"/>
  <outline>
    <contour>
      <point x="253" y="89" type="qcurve" smooth="yes"/>
      <point x="253" y="131"/>
      <point x="312" y="194"/>
      <point x="357" y="194" type="qcurve" smooth="yes"/>
      <point x="403" y="194"/>
      <point x="462" y="131"/>
      <point x="462" y="89" type="qcurve" smooth="yes"/>
      <point x="462" y="48"/>
      <point x="403" y="-15"/>
      <point x="357" y="-15" type="qcurve" smooth="yes"/>
      <point x="312" y="-15"/>
      <point x="253" y="48"/>
    </contour>
    <contour>
      <point x="253" y="923" type="qcurve" smooth="yes"/>
      <point x="253" y="965"/>
      <point x="312" y="1028"/>
      <point x="358" y="1028" type="qcurve" smooth="yes"/>
      <point x="404" y="1028"/>
      <point x="463" y="965"/>
      <point x="463" y="923" type="qcurve" smooth="yes"/>
      <point x="463" y="882"/>
      <point x="404" y="819"/>
      <point x="358" y="819" type="qcurve" smooth="yes"/>
      <point x="312" y="819"/>
      <point x="253" y="882"/>
    </contour>
  </outline>
</glyph>
<glyph name="semicolon" format="2">
  <advance width="716"/>
  <unicode hex="003B"/>
  <outline>
    <contour>
      <point x="212" y="-236" type="line"/>
      <point x="257" y="-206"/>
      <point x="375" y="-65"/>
      <point x="390" y="-5" type="qcurve"/>
      <point x="331" y="-8"/>
      <point x="263" y="44"/>
      <point x="263" y="91" type="qcurve" smooth="yes"/>
      <point x="263" y="133"/>
      <point x="322" y="195"/>
      <point x="368" y="195" type="qcurve" smooth="yes"/>
      <point x="410" y="195"/>
      <point x="472" y="140"/>
      <point x="472" y="84" type="qcurve" smooth="yes"/>
      <point x="472" y="-18"/>
      <point x="337" y="-224"/>
      <point x="248" y="-277" type="qcurve"/>
    </contour>
    <contour>
      <point x="253" y="923" type="qcurve" smooth="yes"/>
      <point x="253" y="965"/>
      <point x="312" y="1028"/>
      <point x="358" y="1028" type="qcurve" smooth="yes"/>
      <point x="404" y="1028"/>
      <point x="463" y="965"/>
      <point x="463" y="923" type="qcurve" smooth="yes"/>
      <point x="463" y="882"/>
      <point x="404" y="819"/>
      <point x="358" y="819" type="qcurve" smooth="yes"/>
      <point x="312" y="819"/>
      <point x="253" y="882"/>
    </contour>
  </outline>
</glyph>
<glyph name="less" format="2">
  <advance width="1205"/>
  <unicode hex="003C"/>
  <outline>
    <contour>
      <point x="195" y="634" type="qcurve"/>
      <point x="198" y="638"/>
      <point x="824" y="1046"/>
      <point x="884" y="1083" type="qcurve" smooth="yes"/>
      <point x="941" y="1120"/>
      <point x="1010" y="1043"/>
      <point x="952" y="999" type="qcurve" smooth="yes"/>
      <point x="814" y="893"/>
      <point x="400" y="636"/>
      <point x="395" y="636" type="qcurve"/>
      <point x="400" y="636"/>
      <point x="815" y="393"/>
      <point x="951" y="288" type="qcurve" smooth="yes"/>
      <point x="1007" y="245"/>
      <point x="944" y="165"/>
      <point x="886" y="201" type="qcurve" smooth="yes"/>
      <point x="826" y="239"/>
      <point x="197" y="630"/>
    </contour>
  </outline>
</glyph>
<glyph name="equal" format="2">
  <advance width="1205"/>
  <unicode hex="003D"/>
  <outline>
    <contour>
      <point x="128" y="348" type="line"/>
      <point x="128" y="492" type="line"/>
      <point x="600" y="488" type="line"/>
      <point x="1077" y="492" type="line"/>
      <point x="1077" y="348" type="line"/>
      <point x="600" y="351" type="line"/>
    </contour>
    <contour>
      <point x="128" y="750" type="line"/>
      <point x="128" y="894" type="line"/>
      <point x="600" y="890" type="line"/>
      <point x="1077" y="894" type="line"/>
      <point x="1077" y="750" type="line"/>
      <point x="600" y="753" type="line"/>
    </contour>
  </outline>
</glyph>
<glyph name="greater" format="2">
  <advance width="1205"/>
  <unicode hex="003E"/>
  <outline>
    <contour>
      <point x="252" y="269" type="qcurve" smooth="yes"/>
      <point x="389" y="375"/>
      <point x="805" y="632"/>
      <point x="810" y="632" type="qcurve"/>
      <point x="805" y="632"/>
      <point x="393" y="874"/>
      <point x="256" y="979" type="qcurve" smooth="yes"/>
      <point x="198" y="1023"/>
      <point x="263" y="1102"/>
      <point x="321" y="1066" type="qcurve" smooth="yes"/>
      <point x="381" y="1029"/>
      <point x="1008" y="638"/>
      <point x="1011" y="634" type="qcurve"/>
      <point x="1008" y="630"/>
      <point x="380" y="223"/>
      <point x="321" y="185" type="qcurve" smooth="yes"/>
      <point x="264" y="148"/>
      <point x="196" y="227"/>
    </contour>
  </outline>
</glyph>
<glyph name="question" format="2">
  <advance width="1111"/>
  <unicode hex="003F"/>
  <outline>
    <contour>
      <point x="334" y="82" type="qcurve" smooth="yes"/>
      <point x="334" y="124"/>
      <point x="393" y="186"/>
      <point x="438" y="186" type="qcurve" smooth="yes"/>
      <point x="484" y="186"/>
      <point x="543" y="124"/>
      <point x="543" y="82" type="qcurve" smooth="yes"/>
      <point x="543" y="40"/>
      <point x="484" y="-22"/>
      <point x="438" y="-22" type="qcurve" smooth="yes"/>
      <point x="393" y="-22"/>
      <point x="334" y="40"/>
    </contour>
    <contour>
      <point x="97" y="1249" type="qcurve" smooth="yes"/>
      <point x="97" y="1380"/>
      <point x="319" y="1540"/>
      <point x="527" y="1540" type="qcurve" smooth="yes"/>
      <point x="726" y="1540"/>
      <point x="964" y="1343"/>
      <point x="964" y="1163" type="qcurve" smooth="yes"/>
      <point x="964" y="967"/>
      <point x="769" y="791"/>
      <point x="653" y="735" type="qcurve" smooth="yes"/>
      <point x="578" y="700"/>
      <point x="467" y="604"/>
      <point x="468" y="522" type="qcurve" smooth="yes"/>
      <point x="468" y="435" type="line"/>
      <point x="384" y="435" type="line"/>
      <point x="371" y="519" type="line" smooth="yes"/>
      <point x="359" y="594"/>
      <point x="454" y="752"/>
      <point x="580" y="819" type="qcurve" smooth="yes"/>
      <point x="685" y="874"/>
      <point x="835" y="1000"/>
      <point x="835" y="1149" type="qcurve" smooth="yes"/>
      <point x="835" y="1292"/>
      <point x="652" y="1447"/>
      <point x="506" y="1447" type="qcurve" smooth="yes"/>
      <point x="363" y="1447"/>
      <point x="203" y="1357"/>
      <point x="203" y="1296" type="qcurve" smooth="yes"/>
      <point x="203" y="1265"/>
      <point x="292" y="1224"/>
      <point x="293" y="1188" type="qcurve" smooth="yes"/>
      <point x="295" y="1159"/>
      <point x="251" y="1112"/>
      <point x="207" y="1112" type="qcurve" smooth="yes"/>
      <point x="158" y="1112"/>
      <point x="97" y="1182"/>
    </contour>
  </outline>
</glyph>
<glyph name="at" format="2">
  <advance width="1936"/>
  <unicode hex="0040"/>
  <outline>
    <contour>
      <point x="106" y="727" type="qcurve" smooth="yes"/>
      <point x="106" y="1059"/>
      <point x="586" y="1520"/>
      <point x="975" y="1520" type="qcurve" smooth="yes"/>
      <point x="1341" y="1520"/>
      <point x="1832" y="1155"/>
      <point x="1832" y="854" type="qcurve" smooth="yes"/>
      <point x="1832" y="624"/>
      <point x="1593" y="346"/>
      <point x="1439" y="346" type="qcurve" smooth="yes"/>
      <point x="1350" y="346"/>
      <point x="1250" y="406"/>
      <point x="1233" y="470" type="qcurve"/>
      <point x="1174" y="403"/>
      <point x="971" y="317"/>
      <point x="860" y="317" type="qcurve" smooth="yes"/>
      <point x="717" y="317"/>
      <point x="566" y="453"/>
      <point x="566" y="544" type="qcurve" smooth="yes"/>
      <point x="566" y="667"/>
      <point x="856" y="837"/>
      <point x="1265" y="863" type="qcurve"/>
      <point x="1268" y="794" type="line"/>
      <point x="994" y="776"/>
      <point x="678" y="667"/>
      <point x="678" y="555" type="qcurve" smooth="yes"/>
      <point x="678" y="488"/>
      <point x="806" y="421"/>
      <point x="886" y="421" type="qcurve" smooth="yes"/>
      <point x="980" y="421"/>
      <point x="1178" y="506"/>
      <point x="1218" y="550" type="qcurve"/>
      <point x="1221" y="876" type="line" smooth="yes"/>
      <point x="1223" y="1023"/>
      <point x="1086" y="1128"/>
      <point x="962" y="1128" type="qcurve" smooth="yes"/>
      <point x="879" y="1128"/>
      <point x="748" y="1088"/>
      <point x="709" y="1059" type="qcurve"/>
      <point x="729" y="1040"/>
      <point x="752" y="1003"/>
      <point x="754" y="989" type="qcurve" smooth="yes"/>
      <point x="759" y="962"/>
      <point x="728" y="925"/>
      <point x="699" y="925" type="qcurve" smooth="yes"/>
      <point x="668" y="925"/>
      <point x="632" y="975"/>
      <point x="632" y="1019" type="qcurve" smooth="yes"/>
      <point x="632" y="1095"/>
      <point x="833" y="1213"/>
      <point x="974" y="1213" type="qcurve" smooth="yes"/>
      <point x="1152" y="1213"/>
      <point x="1322" y="1042"/>
      <point x="1323" y="854" type="qcurve" smooth="yes"/>
      <point x="1329" y="482" type="line" smooth="yes"/>
      <point x="1330" y="460"/>
      <point x="1370" y="442"/>
      <point x="1426" y="442" type="qcurve" smooth="yes"/>
      <point x="1572" y="442"/>
      <point x="1715" y="658"/>
      <point x="1715" y="849" type="qcurve" smooth="yes"/>
      <point x="1715" y="1096"/>
      <point x="1308" y="1406"/>
      <point x="972" y="1406" type="qcurve" smooth="yes"/>
      <point x="626" y="1406"/>
      <point x="230" y="1023"/>
      <point x="230" y="737" type="qcurve" smooth="yes"/>
      <point x="230" y="462"/>
      <point x="646" y="78"/>
      <point x="970" y="78" type="qcurve" smooth="yes"/>
      <point x="1137" y="78"/>
      <point x="1350" y="146"/>
      <point x="1401" y="181" type="qcurve"/>
      <point x="1452" y="108" type="line"/>
      <point x="1390" y="57"/>
      <point x="1158" y="-30"/>
      <point x="972" y="-30" type="qcurve" smooth="yes"/>
      <point x="597" y="-30"/>
      <point x="106" y="399"/>
    </contour>
  </outline>
</glyph>
<glyph name="A" format="2">
  <advance width="1657"/>
  <unicode hex="0041"/>
  <anchor x="847" y="0" name="bottom"/>
  <anchor x="1510" y="0" name="ogonek"/>
  <anchor x="595" y="1500" name="tonos"/>
  <anchor x="856" y="1500" name="top"/>
  <outline>
    <contour>
      <point x="4" y="0" type="line"/>
      <point x="4" y="98" type="line"/>
      <point x="211" y="133" type="line"/>
      <point x="395" y="546" type="line"/>
      <point x="809" y="1508" type="line"/>
      <point x="877" y="1508" type="line"/>
      <point x="1291" y="553" type="line"/>
      <point x="1482" y="133" type="line"/>
      <point x="1679" y="98" type="line"/>
      <point x="1679" y="0" type="line"/>
      <point x="1147" y="0" type="line"/>
      <point x="1147" y="98" type="line"/>
      <point x="1347" y="129" type="line"/>
      <point x="1181" y="511" type="line"/>
      <point x="891" y="1170" type="line"/>
      <point x="843" y="1285" type="line"/>
      <point x="830" y="1285" type="line"/>
      <point x="785" y="1170" type="line"/>
      <point x="486" y="488" type="line"/>
      <point x="337" y="128" type="line"/>
      <point x="535" y="98" type="line"/>
      <point x="535" y="0" type="line"/>
    </contour>
    <contour>
      <point x="847" y="544" type="line"/>
      <point x="1204" y="556" type="line"/>
      <point x="1253" y="457" type="line"/>
      <point x="847" y="457" type="line"/>
    </contour>
    <contour>
      <point x="425" y="457" type="line"/>
      <point x="473" y="556" type="line"/>
      <point x="847" y="544" type="line"/>
      <point x="847" y="457" type="line"/>
    </contour>
  </outline>
</glyph>
<glyph name="B" format="2">
  <advance width="1291"/>
  <unicode hex="0042"/>
  <anchor x="642" y="0" name="bottom"/>
  <anchor x="642" y="1500" name="top"/>
  <outline>
    <contour>
      <point x="88" y="0" type="line"/>
      <point x="88" y="98" type="line"/>
      <point x="316" y="134" type="line"/>
      <point x="318" y="784" type="line"/>
      <point x="316" y="1354" type="line"/>
      <point x="88" y="1388" type="line"/>
      <point x="88" y="1500" type="line"/>
      <point x="664" y="1500" type="line" smooth="yes"/>
      <point x="884" y="1500"/>
      <point x="1095" y="1315"/>
      <point x="1095" y="1172" type="qcurve" smooth="yes"/>
      <point x="1095" y="1037"/>
      <point x="972" y="854"/>
      <point x="863" y="831" type="qcurve"/>
      <point x="863" y="821" type="line"/>
      <point x="1002" y="796"/>
      <point x="1199" y="603"/>
      <point x="1199" y="433" type="qcurve" smooth="yes"/>
      <point x="1199" y="246"/>
      <point x="926" y="0"/>
      <point x="684" y="0" type="qcurve" smooth="yes"/>
    </contour>
    <contour>
      <point x="440" y="117" type="line"/>
      <point x="473" y="96" type="line"/>
      <point x="646" y="96" type="line" smooth="yes"/>
      <point x="864" y="96"/>
      <point x="1071" y="259"/>
      <point x="1071" y="436" type="qcurve" smooth="yes"/>
      <point x="1071" y="586"/>
      <point x="891" y="747"/>
      <point x="723" y="747" type="qcurve" smooth="yes"/>
      <point x="449" y="747" type="line"/>
      <point x="440" y="733" type="line"/>
    </contour>
    <contour>
      <point x="439" y="858" type="line"/>
      <point x="448" y="843" type="line"/>
      <point x="633" y="843" type="line" smooth="yes"/>
      <point x="799" y="843"/>
      <point x="970" y="990"/>
      <point x="970" y="1136" type="qcurve" smooth="yes"/>
      <point x="970" y="1269"/>
      <point x="804" y="1391"/>
      <point x="645" y="1391" type="qcurve" smooth="yes"/>
      <point x="470" y="1391" type="line"/>
      <point x="441" y="1372" type="line"/>
    </contour>
  </outline>
</glyph>
<glyph name="C" format="2">
  <advance width="1608"/>
  <unicode hex="0043"/>
  <anchor x="873" y="0" name="bottom"/>
  <anchor x="873" y="1500" name="top"/>
  <outline>
    <contour>
      <point x="106" y="723" type="qcurve" smooth="yes"/>
      <point x="106" y="1084"/>
      <point x="525" y="1520"/>
      <point x="879" y="1520" type="qcurve" smooth="yes"/>
      <point x="1020" y="1520"/>
      <point x="1238" y="1459"/>
      <point x="1298" y="1422" type="qcurve"/>
      <point x="1332" y="1506" type="line"/>
      <point x="1412" y="1506" type="line"/>
      <point x="1412" y="1019" type="line"/>
      <point x="1312" y="1019" type="line"/>
      <point x="1271" y="1199" type="line" smooth="yes"/>
      <point x="1245" y="1306"/>
      <point x="1049" y="1413"/>
      <point x="898" y="1413" type="qcurve" smooth="yes"/>
      <point x="599" y="1413"/>
      <point x="234" y="1074"/>
      <point x="236" y="740" type="qcurve" smooth="yes"/>
      <point x="238" y="431"/>
      <point x="590" y="90"/>
      <point x="880" y="90" type="qcurve" smooth="yes"/>
      <point x="1094" y="90"/>
      <point x="1365" y="217"/>
      <point x="1443" y="318" type="qcurve"/>
      <point x="1535" y="249" type="line"/>
      <point x="1423" y="115"/>
      <point x="1086" y="-30"/>
      <point x="883" y="-30" type="qcurve" smooth="yes"/>
      <point x="528" y="-30"/>
      <point x="106" y="368"/>
    </contour>
  </outline>
</glyph>
<glyph name="D" format="2">
  <advance width="1674"/>
  <unicode hex="0044"/>
  <anchor x="756" y="0" name="bottom"/>
  <anchor x="439" y="754" name="center"/>
  <anchor x="756" y="1500" name="top"/>
  <outline>
    <contour>
      <point x="88" y="0" type="line"/>
      <point x="88" y="98" type="line"/>
      <point x="316" y="133" type="line"/>
      <point x="317" y="754" type="line"/>
      <point x="316" y="1354" type="line"/>
      <point x="88" y="1388" type="line"/>
      <point x="88" y="1500" type="line"/>
      <point x="731" y="1500" type="line" smooth="yes"/>
      <point x="1108" y="1500"/>
      <point x="1568" y="1119"/>
      <point x="1568" y="777" type="qcurve" smooth="yes"/>
      <point x="1568" y="410"/>
      <point x="1106" y="0"/>
      <point x="684" y="0" type="qcurve" smooth="yes"/>
    </contour>
    <contour>
      <point x="440" y="111" type="line"/>
      <point x="480" y="105"/>
      <point x="627" y="96"/>
      <point x="737" y="96" type="qcurve" smooth="yes"/>
      <point x="1043" y="96"/>
      <point x="1435" y="432"/>
      <point x="1437" y="761" type="qcurve" smooth="yes"/>
      <point x="1439" y="1068"/>
      <point x="1034" y="1395"/>
      <point x="698" y="1395" type="qcurve" smooth="yes"/>
      <point x="620" y="1395"/>
      <point x="483" y="1385"/>
      <point x="440" y="1378" type="qcurve"/>
      <point x="438" y="754" type="line"/>
    </contour>
  </outline>
</glyph>
<glyph name="F" format="2">
  <advance width="1244"/>
  <unicode hex="0046"/>
  <anchor x="598" y="0" name="bottom"/>
  <anchor x="667" y="1500" name="top"/>
  <outline>
    <contour>
      <point x="88" y="0" type="line"/>
      <point x="88" y="98" type="line"/>
      <point x="316" y="135" type="line"/>
      <point x="317" y="760" type="line"/>
      <point x="316" y="1354" type="line"/>
      <point x="88" y="1388" type="line"/>
      <point x="88" y="1500" type="line"/>
      <point x="1162" y="1500" type="line"/>
      <point x="1162" y="1130" type="line"/>
      <point x="1066" y="1130" type="line"/>
      <point x="1031" y="1401" type="line"/>
      <point x="470" y="1401" type="line"/>
      <point x="440" y="1381" type="line"/>
      <point x="438" y="760" type="line"/>
      <point x="440" y="130" type="line"/>
      <point x="688" y="98" type="line"/>
      <point x="688" y="0" type="line"/>
    </contour>
    <contour>
      <point x="378" y="717" type="line"/>
      <point x="378" y="803" type="line"/>
      <point x="885" y="809" type="line"/>
      <point x="920" y="1000" type="line"/>
      <point x="1016" y="1000" type="line"/>
      <point x="1016" y="510" type="line"/>
      <point x="920" y="510" type="line"/>
      <point x="885" y="711" type="line"/>
    </contour>
  </outline>
</glyph>
<glyph name="G" format="2">
  <advance width="1679"/>
  <unicode hex="0047"/>
  <anchor x="923" y="0" name="bottom"/>
  <anchor x="894" y="1500" name="top"/>
  <outline>
    <contour>
      <point x="106" y="744" type="qcurve" smooth="yes"/>
      <point x="106" y="1068"/>
      <point x="563" y="1520"/>
      <point x="906" y="1520" type="qcurve" smooth="yes"/>
      <point x="1068" y="1520"/>
      <point x="1294" y="1457"/>
      <point x="1347" y="1427" type="qcurve"/>
      <point x="1378" y="1506" type="line"/>
      <point x="1468" y="1506" type="line"/>
      <point x="1468" y="1029" type="line"/>
      <point x="1368" y="1029" type="line"/>
      <point x="1323" y="1193" type="line" smooth="yes"/>
      <point x="1291" y="1303"/>
      <point x="1085" y="1406"/>
      <point x="926" y="1406" type="qcurve" smooth="yes"/>
      <point x="601" y="1406"/>
      <point x="234" y="1068"/>
      <point x="237" y="768" type="qcurve" smooth="yes"/>
      <point x="239" y="466"/>
      <point x="624" y="75"/>
      <point x="960" y="75" type="qcurve" smooth="yes"/>
      <point x="1097" y="75"/>
      <point x="1328" y="157"/>
      <point x="1408" y="226" type="qcurve"/>
      <point x="1408" y="525" type="line"/>
      <point x="1189" y="560" type="line"/>
      <point x="1189" y="658" type="line"/>
      <point x="1677" y="658" type="line"/>
      <point x="1677" y="560" type="line"/>
      <point x="1526" y="525" type="line"/>
      <point x="1526" y="219" type="line"/>
      <point x="1444" y="121"/>
      <point x="1142" y="-30"/>
      <point x="942" y="-30" type="qcurve" smooth="yes"/>
      <point x="573" y="-30"/>
      <point x="106" y="394"/>
    </contour>
  </outline>
</glyph>
<glyph name="K" format="2">
  <advance width="1549"/>
  <unicode hex="004B"/>
  <anchor x="805" y="0" name="bottom"/>
  <anchor x="763" y="1500" name="top"/>
  <outline>
    <contour>
      <point x="88" y="0" type="line"/>
      <point x="88" y="98" type="line"/>
      <point x="316" y="133" type="line"/>
      <point x="317" y="754" type="line"/>
      <point x="316" y="1354" type="line"/>
      <point x="88" y="1388" type="line"/>
      <point x="88" y="1500" type="line"/>
      <point x="658" y="1500" type="line"/>
      <point x="658" y="1388" type="line"/>
      <point x="440" y="1354" type="line"/>
      <point x="438" y="753" type="line"/>
      <point x="440" y="132" type="line"/>
      <point x="668" y="98" type="line"/>
      <point x="668" y="0" type="line"/>
    </contour>
    <contour>
      <point x="379" y="509" type="line"/>
      <point x="379" y="638" type="line"/>
      <point x="1138" y="1340" type="line"/>
      <point x="969" y="1388" type="line"/>
      <point x="969" y="1500" type="line"/>
      <point x="1484" y="1500" type="line"/>
      <point x="1484" y="1388" type="line"/>
      <point x="1288" y="1340" type="line"/>
      <point x="732" y="827" type="line"/>
      <point x="693" y="794" type="line"/>
    </contour>
    <contour>
      <point x="652" y="826" type="line"/>
      <point x="736" y="900" type="line"/>
      <point x="1403" y="133" type="line"/>
      <point x="1579" y="98" type="line"/>
      <point x="1579" y="0" type="line"/>
      <point x="1068" y="0" type="line"/>
      <point x="1068" y="98" type="line"/>
      <point x="1258" y="133" type="line"/>
    </contour>
  </outline>
</glyph>
<glyph name="L" format="2">
  <advance width="1377"/>
  <unicode hex="004C"/>
  <anchor x="739" y="0" name="bottom"/>
  <anchor x="962" y="750" name="centerright"/>
  <anchor x="666" y="1500" name="top"/>
  <anchor x="818" y="1001" name="topright"/>
  <anchor x="377" y="750" name="center"/>
  <outline>
    <contour>
      <point x="88" y="0" type="line"/>
      <point x="88" y="98" type="line"/>
      <point x="316" y="130" type="line"/>
      <point x="317" y="754" type="line"/>
      <point x="316" y="1354" type="line"/>
      <point x="88" y="1388" type="line"/>
      <point x="88" y="1500" type="line"/>
      <point x="691" y="1500" type="line"/>
      <point x="691" y="1388" type="line"/>
      <point x="440" y="1354" type="line"/>
      <point x="438" y="754" type="line"/>
      <point x="440" y="118" type="line"/>
      <point x="480" y="91" type="line"/>
      <point x="1152" y="91" type="line"/>
      <point x="1238" y="436" type="line"/>
      <point x="1345" y="436" type="line"/>
      <point x="1294" y="0" type="line"/>
    </contour>
  </outline>
</glyph>
<glyph name="M" format="2">
  <advance width="2208"/>
  <unicode hex="004D"/>
  <anchor x="1106" y="0" name="bottom"/>
  <anchor x="1139" y="1500" name="top"/>
  <outline>
    <contour>
      <point x="126" y="0" type="line"/>
      <point x="126" y="98" type="line"/>
      <point x="354" y="133" type="line"/>
      <point x="354" y="754" type="line"/>
      <point x="354" y="1354" type="line"/>
      <point x="126" y="1388" type="line"/>
      <point x="126" y="1500" type="line"/>
      <point x="517" y="1500" type="line"/>
      <point x="837" y="792" type="line"/>
      <point x="1069" y="293" type="line"/>
      <point x="1117" y="179" type="line"/>
      <point x="1127" y="179" type="line"/>
      <point x="1175" y="293" type="line"/>
      <point x="1406" y="794" type="line"/>
      <point x="1723" y="1500" type="line"/>
      <point x="2120" y="1500" type="line"/>
      <point x="2120" y="1388" type="line"/>
      <point x="1892" y="1354" type="line"/>
      <point x="1890" y="754" type="line"/>
      <point x="1892" y="133" type="line"/>
      <point x="2120" y="98" type="line"/>
      <point x="2120" y="0" type="line"/>
      <point x="1510" y="0" type="line"/>
      <point x="1510" y="98" type="line"/>
      <point x="1768" y="133" type="line"/>
      <point x="1770" y="754" type="line"/>
      <point x="1768" y="1210" type="line"/>
      <point x="1772" y="1329" type="line"/>
      <point x="1762" y="1331" type="line"/>
      <point x="1716" y="1224" type="line"/>
      <point x="1492" y="744" type="line"/>
      <point x="1154" y="-8" type="line"/>
      <point x="1069" y="-8" type="line"/>
      <point x="733" y="737" type="line"/>
      <point x="509" y="1228" type="line"/>
      <point x="461" y="1335" type="line"/>
      <point x="451" y="1332" type="line"/>
      <point x="456" y="1214" type="line"/>
      <point x="454" y="754" type="line"/>
      <point x="457" y="133" type="line"/>
      <point x="695" y="98" type="line"/>
      <point x="695" y="0" type="line"/>
    </contour>
  </outline>
</glyph>
<glyph name="N" format="2">
  <advance width="1714"/>
  <unicode hex="004E"/>
  <anchor x="846" y="0" name="bottom"/>
  <anchor x="852" y="1500" name="top"/>
  <outline>
    <contour>
      <point x="88" y="0" type="line"/>
      <point x="88" y="98" type="line"/>
      <point x="316" y="133" type="line"/>
      <point x="318" y="754" type="line"/>
      <point x="316" y="1354" type="line"/>
      <point x="88" y="1388" type="line"/>
      <point x="88" y="1500" type="line"/>
      <point x="454" y="1500" type="line"/>
      <point x="911" y="839" type="line"/>
      <point x="1244" y="355" type="line"/>
      <point x="1309" y="252" type="line"/>
      <point x="1318" y="255" type="line"/>
      <point x="1314" y="375" type="line"/>
      <point x="1315" y="754" type="line"/>
      <point x="1314" y="1354" type="line"/>
      <point x="1066" y="1388" type="line"/>
      <point x="1066" y="1500" type="line"/>
      <point x="1642" y="1500" type="line"/>
      <point x="1642" y="1388" type="line"/>
      <point x="1414" y="1354" type="line"/>
      <point x="1413" y="754" type="line"/>
      <point x="1409" y="0" type="line"/>
      <point x="1342" y="0" type="line"/>
      <point x="825" y="759" type="line"/>
      <point x="486" y="1243" type="line"/>
      <point x="421" y="1347" type="line"/>
      <point x="412" y="1344" type="line"/>
      <point x="417" y="1224" type="line"/>
      <point x="415" y="754" type="line"/>
      <point x="417" y="133" type="line"/>
      <point x="655" y="98" type="line"/>
      <point x="655" y="0" type="line"/>
    </contour>
  </outline>
</glyph>
<glyph name="O" format="2">
  <advance width="1751"/>
  <unicode hex="004F"/>
  <anchor x="875" y="0" name="bottom"/>
  <anchor x="875" y="750" name="center"/>
  <anchor x="1107" y="0" name="ogonek"/>
  <anchor x="875" y="1500" name="top"/>
  <anchor x="1065" y="1500" name="topright"/>
  <anchor x="181" y="1500" name="tonos"/>
  <outline>
    <contour>
      <point x="106" y="742" type="qcurve" smooth="yes"/>
      <point x="106" y="1068"/>
      <point x="529" y="1520"/>
      <point x="876" y="1520" type="qcurve" smooth="yes"/>
      <point x="1221" y="1520"/>
      <point x="1645" y="1095"/>
      <point x="1645" y="752" type="qcurve" smooth="yes"/>
      <point x="1645" y="414"/>
      <point x="1230" y="-31"/>
      <point x="884" y="-31" type="qcurve" smooth="yes"/>
      <point x="542" y="-31"/>
      <point x="106" y="403"/>
    </contour>
    <contour>
      <point x="237" y="768" type="qcurve" smooth="yes"/>
      <point x="237" y="470"/>
      <point x="593" y="79"/>
      <point x="882" y="79" type="qcurve" smooth="yes"/>
      <point x="1187" y="79"/>
      <point x="1514" y="427"/>
      <point x="1514" y="746" type="qcurve" smooth="yes"/>
      <point x="1514" y="1032"/>
      <point x="1165" y="1403"/>
      <point x="877" y="1403" type="qcurve" smooth="yes"/>
      <point x="567" y="1403"/>
      <point x="237" y="1050"/>
    </contour>
  </outline>
</glyph>
<glyph name="P" format="2">
  <advance width="1297"/>
  <unicode hex="0050"/>
  <anchor x="606" y="0" name="bottom"/>
  <anchor x="658" y="1500" name="top"/>
  <outline>
    <contour>
      <point x="88" y="0" type="line"/>
      <point x="88" y="98" type="line"/>
      <point x="316" y="135" type="line"/>
      <point x="317" y="754" type="line"/>
      <point x="316" y="1354" type="line"/>
      <point x="88" y="1388" type="line"/>
      <point x="88" y="1500" type="line"/>
      <point x="716" y="1500" type="line" smooth="yes"/>
      <point x="971" y="1500"/>
      <point x="1221" y="1284"/>
      <point x="1221" y="1072" type="qcurve" smooth="yes"/>
      <point x="1221" y="861"/>
      <point x="951" y="599"/>
      <point x="708" y="599" type="qcurve" smooth="yes"/>
      <point x="597" y="599"/>
      <point x="422" y="617"/>
      <point x="369" y="625" type="qcurve"/>
      <point x="375" y="714" type="line"/>
      <point x="438" y="703"/>
      <point x="572" y="694"/>
      <point x="677" y="694" type="qcurve" smooth="yes"/>
      <point x="876" y="694"/>
      <point x="1088" y="895"/>
      <point x="1088" y="1072" type="qcurve" smooth="yes"/>
      <point x="1088" y="1238"/>
      <point x="886" y="1401"/>
      <point x="700" y="1401" type="qcurve" smooth="yes"/>
      <point x="474" y="1401" type="line"/>
      <point x="440" y="1379" type="line"/>
      <point x="438" y="764" type="line"/>
      <point x="439" y="130" type="line"/>
      <point x="727" y="98" type="line"/>
      <point x="727" y="0" type="line"/>
    </contour>
  </outline>
</glyph>
<glyph name="Q" format="2">
  <advance width="1751"/>
  <unicode hex="0051"/>
  <anchor x="884" y="0" name="bottom"/>
  <anchor x="901" y="1496" name="top"/>
  <outline>
    <contour>
      <point x="106" y="746" type="qcurve" smooth="yes"/>
      <point x="106" y="1065"/>
      <point x="531" y="1520"/>
      <point x="876" y="1520" type="qcurve" smooth="yes"/>
      <point x="1225" y="1520"/>
      <point x="1645" y="1092"/>
      <point x="1645" y="753" type="qcurve" smooth="yes"/>
      <point x="1645" y="392"/>
      <point x="1222" y="-23"/>
      <point x="882" y="-23" type="qcurve" smooth="yes"/>
      <point x="530" y="-23"/>
      <point x="106" y="414"/>
    </contour>
    <contour>
      <point x="237" y="768" type="qcurve" smooth="yes"/>
      <point x="238" y="472"/>
      <point x="591" y="75"/>
      <point x="880" y="75" type="qcurve" smooth="yes"/>
      <point x="1185" y="76"/>
      <point x="1513" y="441"/>
      <point x="1514" y="747" type="qcurve" smooth="yes"/>
      <point x="1515" y="1034"/>
      <point x="1165" y="1403"/>
      <point x="877" y="1403" type="qcurve" smooth="yes"/>
      <point x="565" y="1403"/>
      <point x="236" y="1051"/>
    </contour>
    <contour>
      <point x="556" y="-57" type="qcurve"/>
      <point x="1347" y="-277" type="line"/>
      <point x="1412" y="-287"/>
      <point x="1522" y="-196"/>
      <point x="1557" y="-136" type="qcurve"/>
      <point x="1632" y="-180" type="line"/>
      <point x="1586" y="-285"/>
      <point x="1439" y="-397"/>
      <point x="1311" y="-384" type="qcurve"/>
      <point x="535" y="-164" type="line"/>
      <point x="463" y="-157"/>
      <point x="352" y="-219"/>
      <point x="295" y="-279" type="qcurve"/>
      <point x="238" y="-225" type="line"/>
      <point x="295" y="-140"/>
      <point x="453" y="-51"/>
    </contour>
    <contour>
      <point x="552" y="-99" type="line"/>
      <point x="757" y="325" type="line"/>
      <point x="858" y="287" type="line"/>
      <point x="650" y="-129" type="line"/>
    </contour>
  </outline>
</glyph>
<glyph name="R" format="2">
  <advance width="1392"/>
  <unicode hex="0052"/>
  <anchor x="772" y="0" name="bottom"/>
  <anchor x="652" y="1500" name="top"/>
  <outline>
    <contour>
      <point x="88" y="0" type="line"/>
      <point x="88" y="98" type="line"/>
      <point x="316" y="134" type="line"/>
      <point x="318" y="794" type="line"/>
      <point x="316" y="1354" type="line"/>
      <point x="89" y="1388" type="line"/>
      <point x="89" y="1500" type="line"/>
      <point x="731" y="1500" type="line" smooth="yes"/>
      <point x="936" y="1500"/>
      <point x="1149" y="1318"/>
      <point x="1149" y="1153" type="qcurve" smooth="yes"/>
      <point x="1149" y="974"/>
      <point x="892" y="748"/>
      <point x="726" y="748" type="qcurve" smooth="yes"/>
      <point x="661" y="748"/>
      <point x="443" y="756"/>
      <point x="379" y="761" type="qcurve"/>
      <point x="379" y="840" type="line"/>
      <point x="647" y="840" type="line" smooth="yes"/>
      <point x="830" y="840"/>
      <point x="1014" y="1007"/>
      <point x="1014" y="1145" type="qcurve" smooth="yes"/>
      <point x="1014" y="1266"/>
      <point x="853" y="1401"/>
      <point x="692" y="1401" type="qcurve" smooth="yes"/>
      <point x="472" y="1401" type="line"/>
      <point x="443" y="1382" type="line"/>
      <point x="439" y="794" type="line"/>
      <point x="441" y="134" type="line"/>
      <point x="677" y="98" type="line"/>
      <point x="677" y="0" type="line"/>
    </contour>
    <contour>
      <point x="649" y="766" type="line"/>
      <point x="749" y="831" type="line"/>
      <point x="1108" y="313" type="line" smooth="yes"/>
      <point x="1211" y="163"/>
      <point x="1367" y="99"/>
      <point x="1442" y="98" type="qcurve"/>
      <point x="1442" y="0" type="line"/>
      <point x="1207" y="0" type="line"/>
      <point x="1174" y="20" type="line"/>
    </contour>
  </outline>
</glyph>
<glyph name="S" format="2">
  <advance width="1163"/>
  <unicode hex="0053"/>
  <anchor x="628" y="0" name="bottom"/>
  <anchor x="553" y="1500" name="top"/>
  <outline>
    <contour>
      <point x="94" y="-6" type="line"/>
      <point x="94" y="496" type="line"/>
      <point x="196" y="496" type="line"/>
      <point x="219" y="379" type="line" smooth="yes"/>
      <point x="254" y="224"/>
      <point x="481" y="82"/>
      <point x="640" y="82" type="qcurve" smooth="yes"/>
      <point x="814" y="82"/>
      <point x="991" y="239"/>
      <point x="991" y="375" type="qcurve" smooth="yes"/>
      <point x="991" y="522"/>
      <point x="772" y="681"/>
      <point x="548" y="753" type="qcurve" smooth="yes"/>
      <point x="353" y="816"/>
      <point x="152" y="993"/>
      <point x="152" y="1148" type="qcurve" smooth="yes"/>
      <point x="152" y="1297"/>
      <point x="370" y="1520"/>
      <point x="553" y="1520" type="qcurve" smooth="yes"/>
      <point x="644" y="1520"/>
      <point x="811" y="1467"/>
      <point x="864" y="1421" type="qcurve"/>
      <point x="887" y="1493" type="line"/>
      <point x="976" y="1493" type="line"/>
      <point x="976" y="1039" type="line"/>
      <point x="877" y="1039" type="line"/>
      <point x="849" y="1203" type="line" smooth="yes"/>
      <point x="831" y="1299"/>
      <point x="671" y="1408"/>
      <point x="544" y="1408" type="qcurve" smooth="yes"/>
      <point x="415" y="1408"/>
      <point x="257" y="1286"/>
      <point x="257" y="1181" type="qcurve" smooth="yes"/>
      <point x="257" y="1071"/>
      <point x="416" y="929"/>
      <point x="650" y="854" type="qcurve" smooth="yes"/>
      <point x="855" y="788"/>
      <point x="1098" y="587"/>
      <point x="1098" y="417" type="qcurve" smooth="yes"/>
      <point x="1098" y="225"/>
      <point x="853" y="-20"/>
      <point x="644" y="-20" type="qcurve" smooth="yes"/>
      <point x="509" y="-20"/>
      <point x="300" y="54"/>
      <point x="236" y="113" type="qcurve"/>
      <point x="182" y="-6" type="line"/>
    </contour>
  </outline>
</glyph>
<glyph name="T" format="2">
  <advance width="1425"/>
  <unicode hex="0054"/>
  <anchor x="712" y="0" name="bottom"/>
  <anchor x="712" y="750" name="center"/>
  <anchor x="712" y="1500" name="top"/>
  <outline>
    <contour>
      <point x="72" y="1040" type="line"/>
      <point x="72" y="1500" type="line"/>
      <point x="1353" y="1500" type="line"/>
      <point x="1353" y="1039" type="line"/>
      <point x="1257" y="1039" type="line"/>
      <point x="1222" y="1401" type="line"/>
      <point x="793" y="1401" type="line"/>
      <point x="774" y="1381" type="line"/>
      <point x="773" y="754" type="line"/>
      <point x="774" y="134" type="line"/>
      <point x="1011" y="98" type="line"/>
      <point x="1011" y="0" type="line"/>
      <point x="412" y="0" type="line"/>
      <point x="412" y="98" type="line"/>
      <point x="651" y="134" type="line"/>
      <point x="652" y="754" type="line"/>
      <point x="651" y="1381" type="line"/>
      <point x="642" y="1401" type="line"/>
      <point x="203" y="1401" type="line"/>
      <point x="168" y="1040" type="line"/>
    </contour>
  </outline>
</glyph>
<glyph name="U" format="2">
  <advance width="1719"/>
  <unicode hex="0055"/>
  <anchor x="881" y="0" name="bottom"/>
  <anchor x="1105" y="0" name="ogonek"/>
  <anchor x="891" y="1500" name="top"/>
  <anchor x="1722" y="1500" name="topright"/>
  <outline>
    <contour>
      <point x="70" y="1388" type="line"/>
      <point x="70" y="1500" type="line"/>
      <point x="642" y="1500" type="line"/>
      <point x="642" y="1388" type="line"/>
      <point x="415" y="1354" type="line"/>
      <point x="409" y="794" type="line"/>
      <point x="414" y="474" type="line" smooth="yes"/>
      <point x="416" y="269"/>
      <point x="673" y="90"/>
      <point x="884" y="90" type="qcurve" smooth="yes"/>
      <point x="1084" y="90"/>
      <point x="1353" y="285"/>
      <point x="1354" y="494" type="qcurve" smooth="yes"/>
      <point x="1356" y="794" type="line"/>
      <point x="1354" y="1354" type="line"/>
      <point x="1116" y="1388" type="line"/>
      <point x="1116" y="1500" type="line"/>
      <point x="1699" y="1500" type="line"/>
      <point x="1699" y="1388" type="line"/>
      <point x="1471" y="1354" type="line"/>
      <point x="1469" y="794" type="line"/>
      <point x="1472" y="493" type="line" smooth="yes"/>
      <point x="1474" y="236"/>
      <point x="1139" y="-31"/>
      <point x="879" y="-31" type="qcurve" smooth="yes"/>
      <point x="598" y="-31"/>
      <point x="289" y="242"/>
      <point x="290" y="481" type="qcurve" smooth="yes"/>
      <point x="290" y="794" type="line"/>
      <point x="288" y="1354" type="line"/>
    </contour>
  </outline>
</glyph>
<glyph name="V" format="2">
  <advance width="1602"/>
  <unicode hex="0056"/>
  <anchor x="804" y="0" name="bottom"/>
  <anchor x="818" y="1500" name="top"/>
  <outline>
    <contour>
      <point x="4" y="1388" type="line"/>
      <point x="4" y="1500" type="line"/>
      <point x="517" y="1500" type="line"/>
      <point x="517" y="1388" type="line"/>
      <point x="328" y="1347" type="line"/>
      <point x="565" y="793" type="line"/>
      <point x="782" y="296" type="line"/>
      <point x="820" y="193" type="line"/>
      <point x="830" y="193" type="line"/>
      <point x="870" y="296" type="line"/>
      <point x="1095" y="815" type="line"/>
      <point x="1321" y="1354" type="line"/>
      <point x="1114" y="1388" type="line"/>
      <point x="1114" y="1500" type="line"/>
      <point x="1637" y="1502" type="line"/>
      <point x="1637" y="1390" type="line"/>
      <point x="1440" y="1349" type="line"/>
      <point x="1184" y="762" type="line"/>
      <point x="849" y="-8" type="line"/>
      <point x="781" y="-8" type="line"/>
      <point x="457" y="741" type="line"/>
      <point x="191" y="1349" type="line"/>
    </contour>
  </outline>
</glyph>
<glyph name="W" format="2">
  <advance width="2309"/>
  <unicode hex="0057"/>
  <anchor x="1122" y="0" name="bottom"/>
  <anchor x="1122" y="1500" name="top"/>
  <outline>
    <contour>
      <point x="717" y="-8" type="line"/>
      <point x="435" y="698" type="line"/>
      <point x="163" y="1349" type="line"/>
      <point x="-24" y="1388" type="line"/>
      <point x="-24" y="1500" type="line"/>
      <point x="511" y="1500" type="line"/>
      <point x="511" y="1388" type="line"/>
      <point x="299" y="1347" type="line"/>
      <point x="546" y="740" type="line"/>
      <point x="733" y="272" type="line"/>
      <point x="774" y="158" type="line"/>
      <point x="784" y="158" type="line"/>
      <point x="825" y="272" type="line"/>
      <point x="978" y="679" type="line"/>
      <point x="1121" y="1054" type="line"/>
      <point x="1007" y="1357" type="line"/>
      <point x="820" y="1396" type="line"/>
      <point x="820" y="1500" type="line"/>
      <point x="1339" y="1500" type="line"/>
      <point x="1339" y="1396" type="line"/>
      <point x="1144" y="1355" type="line"/>
      <point x="1346" y="800" type="line"/>
      <point x="1534" y="272" type="line"/>
      <point x="1572" y="158" type="line"/>
      <point x="1581" y="158" type="line"/>
      <point x="1623" y="272" type="line"/>
      <point x="1841" y="803" type="line"/>
      <point x="2064" y="1354" type="line"/>
      <point x="1846" y="1388" type="line"/>
      <point x="1846" y="1500" type="line"/>
      <point x="2397" y="1500" type="line"/>
      <point x="2397" y="1388" type="line"/>
      <point x="2189" y="1349" type="line"/>
      <point x="1938" y="760" type="line"/>
      <point x="1611" y="-8" type="line"/>
      <point x="1510" y="-8" type="line"/>
      <point x="1216" y="799" type="line"/>
      <point x="1177" y="917" type="line"/>
      <point x="1168" y="917" type="line"/>
      <point x="1126" y="799" type="line"/>
      <point x="813" y="-8" type="line"/>
    </contour>
  </outline>
</glyph>
<glyph name="X" format="2">
  <advance width="1490"/>
  <unicode hex="0058"/>
  <anchor x="709" y="0" name="bottom"/>
  <anchor x="721" y="1500" name="top"/>
  <outline>
    <contour>
      <point x="-3" y="0" type="line"/>
      <point x="-3" y="98" type="line"/>
      <point x="185" y="133" type="line"/>
      <point x="677" y="806" type="line"/>
      <point x="240" y="1357" type="line"/>
      <point x="62" y="1388" type="line"/>
      <point x="62" y="1500" type="line"/>
      <point x="573" y="1500" type="line"/>
      <point x="573" y="1388" type="line"/>
      <point x="382" y="1355" type="line"/>
      <point x="663" y="999" type="line"/>
      <point x="742" y="896" type="line"/>
      <point x="752" y="896" type="line"/>
      <point x="826" y="998" type="line"/>
      <point x="1089" y="1362" type="line"/>
      <point x="889" y="1388" type="line"/>
      <point x="889" y="1500" type="line"/>
      <point x="1414" y="1500" type="line"/>
      <point x="1414" y="1388" type="line"/>
      <point x="1215" y="1357" type="line"/>
      <point x="813" y="808" type="line"/>
      <point x="1336" y="133" type="line"/>
      <point x="1524" y="98" type="line"/>
      <point x="1524" y="0" type="line"/>
      <point x="1003" y="0" type="line"/>
      <point x="1003" y="98" type="line"/>
      <point x="1196" y="133" type="line"/>
      <point x="821" y="624" type="line"/>
      <point x="747" y="720" type="line"/>
      <point x="737" y="720" type="line"/>
      <point x="667" y="622" type="line"/>
      <point x="311" y="128" type="line"/>
      <point x="509" y="98" type="line"/>
      <point x="509" y="0" type="line"/>
    </contour>
  </outline>
</glyph>
<glyph name="Y" format="2">
  <advance width="1375"/>
  <unicode hex="0059"/>
  <anchor x="690" y="0" name="bottom"/>
  <anchor x="689" y="1501" name="top"/>
  <anchor x="-94" y="1500" name="tonos"/>
  <outline>
    <contour>
      <point x="362" y="0" type="line"/>
      <point x="362" y="98" type="line"/>
      <point x="603" y="133" type="line"/>
      <point x="604" y="617" type="line"/>
      <point x="372" y="1000" type="line"/>
      <point x="144" y="1362" type="line"/>
      <point x="-37" y="1388" type="line"/>
      <point x="-37" y="1500" type="line"/>
      <point x="467" y="1500" type="line"/>
      <point x="467" y="1388" type="line"/>
      <point x="289" y="1353" type="line"/>
      <point x="468" y="1054" type="line"/>
      <point x="673" y="726" type="line"/>
      <point x="682" y="726" type="line"/>
      <point x="894" y="1069" type="line"/>
      <point x="1071" y="1360" type="line"/>
      <point x="862" y="1388" type="line"/>
      <point x="862" y="1500" type="line"/>
      <point x="1387" y="1500" type="line"/>
      <point x="1387" y="1388" type="line"/>
      <point x="1200" y="1361" type="line"/>
      <point x="974" y="1012" type="line"/>
      <point x="725" y="618" type="line"/>
      <point x="727" y="133" type="line"/>
      <point x="965" y="98" type="line"/>
      <point x="965" y="0" type="line"/>
    </contour>
  </outline>
</glyph>
<glyph name="Z" format="2">
  <advance width="1328"/>
  <unicode hex="005A"/>
  <anchor x="661" y="0" name="bottom"/>
  <anchor x="661" y="1500" name="top"/>
  <outline>
    <contour>
      <point x="90" y="0" type="line"/>
      <point x="66" y="68" type="line"/>
      <point x="1074" y="1393" type="line"/>
      <point x="1065" y="1401" type="line"/>
      <point x="265" y="1401" type="line"/>
      <point x="227" y="1046" type="line"/>
      <point x="120" y="1046" type="line"/>
      <point x="120" y="1500" type="line"/>
      <point x="1240" y="1500" type="line"/>
      <point x="1240" y="1434" type="line"/>
      <point x="224" y="97" type="line"/>
      <point x="232" y="91" type="line"/>
      <point x="1095" y="91" type="line"/>
      <point x="1182" y="390" type="line"/>
      <point x="1278" y="390" type="line"/>
      <point x="1238" y="0" type="line"/>
    </contour>
  </outline>
</glyph>
<glyph name="bracketleft" format="2">
  <advance width="748"/>
  <unicode hex="005B"/>
  <outline>
    <contour>
      <point x="171" y="508" type="line"/>
      <point x="159" y="1364" type="line"/>
      <point x="140" y="1384" type="line"/>
      <point x="140" y="1500" type="line"/>
      <point x="658" y="1500" type="line"/>
      <point x="658" y="1383" type="line"/>
      <point x="290" y="1364" type="line"/>
      <point x="278" y="508" type="line"/>
      <point x="290" y="-344" type="line"/>
      <point x="658" y="-363" type="line"/>
      <point x="658" y="-480" type="line"/>
      <point x="140" y="-480" type="line"/>
      <point x="140" y="-364" type="line"/>
      <point x="159" y="-344" type="line"/>
    </contour>
  </outline>
</glyph>
<glyph name="backslash" format="2">
  <advance width="835"/>
  <unicode hex="005C"/>
  <outline>
    <contour>
      <point x="-20" y="1508" type="line"/>
      <point x="94" y="1555" type="line"/>
      <point x="866" y="-114" type="line"/>
      <point x="751" y="-161" type="line"/>
    </contour>
  </outline>
</glyph>
<glyph name="bracketright" format="2">
  <advance width="748"/>
  <unicode hex="005D"/>
  <outline>
    <contour>
      <point x="90" y="-480" type="line"/>
      <point x="90" y="-363" type="line"/>
      <point x="457" y="-344" type="line"/>
      <point x="469" y="508" type="line"/>
      <point x="457" y="1364" type="line"/>
      <point x="90" y="1383" type="line"/>
      <point x="90" y="1500" type="line"/>
      <point x="608" y="1500" type="line"/>
      <point x="608" y="1384" type="line"/>
      <point x="589" y="1364" type="line"/>
      <point x="577" y="508" type="line"/>
      <point x="589" y="-344" type="line"/>
      <point x="608" y="-364" type="line"/>
      <point x="608" y="-480" type="line"/>
    </contour>
  </outline>
</glyph>
<glyph name="asciicircum" format="2">
  <advance width="1556"/>
  <unicode hex="005E"/>
  <outline>
    <contour>
      <point x="155" y="918" type="line"/>
      <point x="210" y="970"/>
      <point x="728" y="1501"/>
      <point x="754" y="1524" type="qcurve"/>
      <point x="778" y="1501"/>
      <point x="1345" y="971"/>
      <point x="1400" y="919" type="qcurve"/>
      <point x="1325" y="836" type="line"/>
      <point x="1192" y="956"/>
      <point x="773" y="1340"/>
      <point x="756" y="1354" type="qcurve"/>
      <point x="734" y="1332"/>
      <point x="366" y="965"/>
      <point x="231" y="838" type="qcurve"/>
    </contour>
  </outline>
</glyph>
<glyph name="underscore" format="2">
  <advance width="1884"/>
  <unicode hex="005F"/>
  <outline>
    <contour>
      <point x="6" y="-480" type="line"/>
      <point x="6" y="-365" type="line"/>
      <point x="947" y="-360" type="line"/>
      <point x="1878" y="-365" type="line"/>
      <point x="1878" y="-480" type="line"/>
      <point x="947" y="-493" type="line"/>
    </contour>
  </outline>
</glyph>
<glyph name="a" format="2">
  <advance width="1136"/>
  <unicode hex="0061"/>
  <anchor x="562" y="0" name="bottom"/>
  <anchor x="907" y="0" name="ogonek"/>
  <anchor x="552" y="1051" name="top"/>
  <outline>
    <contour>
      <point x="140" y="253" type="qcurve" smooth="yes"/>
      <point x="140" y="397"/>
      <point x="462" y="606"/>
      <point x="840" y="651" type="qcurve"/>
      <point x="839" y="578" type="line"/>
      <point x="560" y="538"/>
      <point x="263" y="404"/>
      <point x="263" y="257" type="qcurve" smooth="yes"/>
      <point x="263" y="174"/>
      <point x="372" y="89"/>
      <point x="462" y="89" type="qcurve" smooth="yes"/>
      <point x="551" y="89"/>
      <point x="753" y="182"/>
      <point x="792" y="236" type="qcurve"/>
      <point x="794" y="666" type="line" smooth="yes"/>
      <point x="795" y="855"/>
      <point x="658" y="976"/>
      <point x="550" y="976" type="qcurve" smooth="yes"/>
      <point x="451" y="976"/>
      <point x="325" y="918"/>
      <point x="297" y="873" type="qcurve"/>
      <point x="312" y="857"/>
      <point x="329" y="824"/>
      <point x="331" y="808" type="qcurve" smooth="yes"/>
      <point x="337" y="779"/>
      <point x="304" y="737"/>
      <point x="274" y="737" type="qcurve" smooth="yes"/>
      <point x="239" y="737"/>
      <point x="199" y="790"/>
      <point x="199" y="835" type="qcurve" smooth="yes"/>
      <point x="199" y="935"/>
      <point x="408" y="1072"/>
      <point x="561" y="1072" type="qcurve" smooth="yes"/>
      <point x="727" y="1072"/>
      <point x="906" y="898"/>
      <point x="906" y="712" type="qcurve" smooth="yes"/>
      <point x="906" y="131" type="line"/>
      <point x="1064" y="96" type="line"/>
      <point x="1064" y="0" type="line"/>
      <point x="861" y="0" type="line"/>
      <point x="804" y="60" type="line"/>
      <point x="793" y="157" type="line"/>
      <point x="751" y="90"/>
      <point x="546" y="-13"/>
      <point x="423" y="-13" type="qcurve" smooth="yes"/>
      <point x="296" y="-13"/>
      <point x="140" y="141"/>
    </contour>
  </outline>
</glyph>
<glyph name="b" format="2">
  <advance width="1184"/>
  <unicode hex="0062"/>
  <anchor x="596" y="0" name="bottom"/>
  <anchor x="596" y="1513" name="top"/>
  <outline>
    <contour>
      <point x="181" y="0" type="line"/>
      <point x="188" y="477" type="line"/>
      <point x="181" y="1340" type="line"/>
      <point x="-6" y="1370" type="line"/>
      <point x="-6" y="1480" type="line"/>
      <point x="240" y="1514" type="line"/>
      <point x="270" y="1514" type="line"/>
      <point x="298" y="1482" type="line"/>
      <point x="297" y="907" type="line"/>
      <point x="348" y="977"/>
      <point x="538" y="1071"/>
      <point x="664" y="1071" type="qcurve" smooth="yes"/>
      <point x="851" y="1071"/>
      <point x="1094" y="795"/>
      <point x="1094" y="557" type="qcurve" smooth="yes"/>
      <point x="1094" y="294"/>
      <point x="841" y="-12"/>
      <point x="615" y="-13" type="qcurve" smooth="yes"/>
      <point x="513" y="-12"/>
      <point x="348" y="49"/>
      <point x="297" y="92" type="qcurve"/>
      <point x="239" y="0" type="line"/>
    </contour>
    <contour>
      <point x="290" y="529" type="line"/>
      <point x="297" y="220" type="line"/>
      <point x="339" y="161"/>
      <point x="510" y="75"/>
      <point x="626" y="75" type="qcurve" smooth="yes"/>
      <point x="784" y="75"/>
      <point x="967" y="318"/>
      <point x="967" y="530" type="qcurve" smooth="yes"/>
      <point x="967" y="735"/>
      <point x="787" y="964"/>
      <point x="635" y="964" type="qcurve" smooth="yes"/>
      <point x="518" y="964"/>
      <point x="349" y="870"/>
      <point x="297" y="798" type="qcurve"/>
    </contour>
  </outline>
</glyph>
<glyph name="c" format="2">
  <advance width="1111"/>
  <unicode hex="0063"/>
  <anchor x="603" y="0" name="bottom"/>
  <anchor x="584" y="1051" name="top"/>
  <outline>
    <contour>
      <point x="90" y="515" type="qcurve" smooth="yes"/>
      <point x="90" y="752"/>
      <point x="371" y="1074"/>
      <point x="598" y="1074" type="qcurve" smooth="yes"/>
      <point x="689" y="1074"/>
      <point x="821" y="1038"/>
      <point x="855" y="1014" type="qcurve"/>
      <point x="876" y="1066" type="line"/>
      <point x="961" y="1066" type="line"/>
      <point x="961" y="688" type="line"/>
      <point x="875" y="688" type="line"/>
      <point x="858" y="767" type="line" smooth="yes"/>
      <point x="831" y="862"/>
      <point x="699" y="980"/>
      <point x="577" y="980" type="qcurve" smooth="yes"/>
      <point x="413" y="980"/>
      <point x="214" y="761"/>
      <point x="214" y="533" type="qcurve" smooth="yes"/>
      <point x="214" y="317"/>
      <point x="434" y="87"/>
      <point x="615" y="87" type="qcurve" smooth="yes"/>
      <point x="744" y="87"/>
      <point x="927" y="164"/>
      <point x="989" y="219" type="qcurve"/>
      <point x="1031" y="168" type="line"/>
      <point x="976" y="91"/>
      <point x="773" y="-22"/>
      <point x="609" y="-22" type="qcurve" smooth="yes"/>
      <point x="391" y="-22"/>
      <point x="90" y="268"/>
    </contour>
  </outline>
</glyph>
<glyph name="d" format="2">
  <advance width="1253"/>
  <unicode hex="0064"/>
  <anchor x="610" y="0" name="bottom"/>
  <anchor x="938" y="1209" name="center"/>
  <anchor x="610" y="1514" name="top"/>
  <anchor x="1023" y="981" name="topright"/>
  <outline>
    <contour>
      <point x="94" y="502" type="qcurve" smooth="yes"/>
      <point x="94" y="758"/>
      <point x="379" y="1071"/>
      <point x="611" y="1071" type="qcurve" smooth="yes"/>
      <point x="696" y="1071"/>
      <point x="861" y="1023"/>
      <point x="912" y="985" type="qcurve"/>
      <point x="907" y="1340" type="line"/>
      <point x="717" y="1370" type="line"/>
      <point x="717" y="1480" type="line"/>
      <point x="965" y="1514" type="line"/>
      <point x="996" y="1514" type="line"/>
      <point x="1024" y="1482" type="line"/>
      <point x="1022" y="565" type="line"/>
      <point x="1028" y="131" type="line"/>
      <point x="1197" y="96" type="line"/>
      <point x="1197" y="0" type="line"/>
      <point x="984" y="0" type="line"/>
      <point x="927" y="67" type="line"/>
      <point x="916" y="157" type="line"/>
      <point x="864" y="88"/>
      <point x="694" y="-9"/>
      <point x="563" y="-9" type="qcurve" smooth="yes"/>
      <point x="354" y="-9"/>
      <point x="94" y="267"/>
    </contour>
    <contour>
      <point x="220" y="525" type="qcurve" smooth="yes"/>
      <point x="220" y="322"/>
      <point x="413" y="98"/>
      <point x="582" y="98" type="qcurve" smooth="yes"/>
      <point x="703" y="98"/>
      <point x="867" y="193"/>
      <point x="914" y="257" type="qcurve"/>
      <point x="918" y="549" type="line"/>
      <point x="918" y="846" type="line"/>
      <point x="871" y="907"/>
      <point x="717" y="979"/>
      <point x="607" y="979" type="qcurve" smooth="yes"/>
      <point x="430" y="979"/>
      <point x="220" y="717"/>
    </contour>
  </outline>
</glyph>
<glyph name="e" format="2">
  <advance width="1092"/>
  <unicode hex="0065"/>
  <anchor x="585" y="0" name="bottom"/>
  <anchor x="771" y="0" name="ogonek"/>
  <anchor x="559" y="1051" name="top"/>
  <outline>
    <contour>
      <point x="89" y="527" type="qcurve" smooth="yes"/>
      <point x="89" y="769"/>
      <point x="349" y="1074"/>
      <point x="564" y="1074" type="qcurve" smooth="yes"/>
      <point x="755" y="1074"/>
      <point x="975" y="837"/>
      <point x="993" y="614" type="qcurve"/>
      <point x="993" y="561" type="line"/>
      <point x="146" y="561" type="line"/>
      <point x="148" y="642" type="line"/>
      <point x="878" y="642" type="line"/>
      <point x="859" y="808"/>
      <point x="687" y="978"/>
      <point x="554" y="978" type="qcurve" smooth="yes"/>
      <point x="391" y="978"/>
      <point x="212" y="747"/>
      <point x="213" y="547" type="qcurve" smooth="yes"/>
      <point x="214" y="313"/>
      <point x="435" y="87"/>
      <point x="606" y="87" type="qcurve" smooth="yes"/>
      <point x="704" y="87"/>
      <point x="857" y="143"/>
      <point x="915" y="198" type="qcurve"/>
      <point x="958" y="147" type="line"/>
      <point x="901" y="71"/>
      <point x="714" y="-22"/>
      <point x="589" y="-22" type="qcurve" smooth="yes"/>
      <point x="357" y="-22"/>
      <point x="89" y="258"/>
    </contour>
  </outline>
</glyph>
<glyph name="f" format="2">
  <advance width="698"/>
  <unicode hex="0066"/>
  <anchor x="338" y="0" name="bottom"/>
  <anchor x="382" y="1517" name="top"/>
  <outline>
    <contour>
      <point x="88" y="0" type="line"/>
      <point x="88" y="96" type="line"/>
      <point x="276" y="131" type="line"/>
      <point x="277" y="530" type="line"/>
      <point x="275" y="939" type="line"/>
      <point x="89" y="942" type="line"/>
      <point x="89" y="1021" type="line"/>
      <point x="277" y="1036" type="line"/>
      <point x="279" y="1244" type="line" smooth="yes"/>
      <point x="281" y="1367"/>
      <point x="410" y="1519"/>
      <point x="507" y="1519" type="qcurve" smooth="yes"/>
      <point x="549" y="1519"/>
      <point x="620" y="1507"/>
      <point x="644" y="1498" type="qcurve" smooth="yes"/>
      <point x="663" y="1491" type="line"/>
      <point x="647" y="1412" type="line"/>
      <point x="625" y="1417" type="line" smooth="yes"/>
      <point x="610" y="1421"/>
      <point x="574" y="1424"/>
      <point x="552" y="1424" type="qcurve" smooth="yes"/>
      <point x="471" y="1424"/>
      <point x="384" y="1314"/>
      <point x="385" y="1225" type="qcurve" smooth="yes"/>
      <point x="388" y="1037" type="line"/>
      <point x="642" y="1037" type="line"/>
      <point x="642" y="944" type="line"/>
      <point x="388" y="944" type="line"/>
      <point x="390" y="530" type="line"/>
      <point x="394" y="131" type="line"/>
      <point x="604" y="96" type="line"/>
      <point x="604" y="0" type="line"/>
    </contour>
  </outline>
</glyph>
<glyph name="g" format="2">
  <advance width="1112"/>
  <unicode hex="0067"/>
  <anchor x="553" y="-416" name="bottom"/>
  <anchor x="513" y="1051" name="top"/>
  <outline>
    <contour>
      <point x="41" y="-249" type="qcurve" smooth="yes"/>
      <point x="41" y="-154"/>
      <point x="153" y="-41"/>
      <point x="244" y="-5" type="qcurve"/>
      <point x="301" y="-30" type="line"/>
      <point x="239" y="-60"/>
      <point x="155" y="-148"/>
      <point x="155" y="-228" type="qcurve" smooth="yes"/>
      <point x="155" y="-319"/>
      <point x="343" y="-430"/>
      <point x="587" y="-430" type="qcurve" smooth="yes"/>
      <point x="772" y="-430"/>
      <point x="993" y="-337"/>
      <point x="993" y="-234" type="qcurve" smooth="yes"/>
      <point x="993" y="-146"/>
      <point x="810" y="-82"/>
      <point x="563" y="-70" type="qcurve" smooth="yes"/>
      <point x="347" y="-60"/>
      <point x="111" y="32"/>
      <point x="112" y="141" type="qcurve" smooth="yes"/>
      <point x="112" y="232"/>
      <point x="245" y="335"/>
      <point x="316" y="364" type="qcurve"/>
      <point x="345" y="328" type="line"/>
      <point x="287" y="304"/>
      <point x="198" y="233"/>
      <point x="197" y="175" type="qcurve" smooth="yes"/>
      <point x="197" y="110"/>
      <point x="363" y="53"/>
      <point x="578" y="44" type="qcurve" smooth="yes"/>
      <point x="860" y="32"/>
      <point x="1085" y="-70"/>
      <point x="1085" y="-182" type="qcurve" smooth="yes"/>
      <point x="1085" y="-321"/>
      <point x="816" y="-518"/>
      <point x="522" y="-518" type="qcurve" smooth="yes"/>
      <point x="253" y="-518"/>
      <point x="41" y="-370"/>
    </contour>
    <contour>
      <point x="125" y="680" type="qcurve" smooth="yes"/>
      <point x="125" y="851"/>
      <point x="344" y="1073"/>
      <point x="521" y="1073" type="qcurve" smooth="yes"/>
      <point x="699" y="1073"/>
      <point x="919" y="867"/>
      <point x="919" y="685" type="qcurve" smooth="yes"/>
      <point x="919" y="514"/>
      <point x="702" y="268"/>
      <point x="526" y="268" type="qcurve" smooth="yes"/>
      <point x="348" y="268"/>
      <point x="125" y="495"/>
    </contour>
    <contour>
      <point x="246" y="690" type="qcurve" smooth="yes"/>
      <point x="246" y="527"/>
      <point x="397" y="353"/>
      <point x="530" y="353" type="qcurve" smooth="yes"/>
      <point x="653" y="353"/>
      <point x="797" y="513"/>
      <point x="797" y="679" type="qcurve" smooth="yes"/>
      <point x="797" y="816"/>
      <point x="647" y="977"/>
      <point x="514" y="977" type="qcurve" smooth="yes"/>
      <point x="391" y="977"/>
      <point x="246" y="833"/>
    </contour>
    <contour>
      <point x="620" y="987" type="line"/>
      <point x="577" y="1051" type="line"/>
      <point x="1080" y="1051" type="line"/>
      <point x="1080" y="928" type="line"/>
    </contour>
  </outline>
</glyph>
<glyph name="h" format="2">
  <advance width="1289"/>
  <unicode hex="0068"/>
  <anchor x="643" y="0" name="bottom"/>
  <anchor x="362" y="1209" name="center"/>
  <anchor x="328" y="1514" name="top"/>
  <outline>
    <contour>
      <point x="82" y="0" type="line"/>
      <point x="82" y="96" type="line"/>
      <point x="244" y="131" type="line"/>
      <point x="245" y="530" type="line"/>
      <point x="244" y="1340" type="line"/>
      <point x="58" y="1370" type="line"/>
      <point x="58" y="1480" type="line"/>
      <point x="301" y="1514" type="line"/>
      <point x="333" y="1514" type="line"/>
      <point x="361" y="1482" type="line"/>
      <point x="360" y="903" type="line"/>
      <point x="423" y="976"/>
      <point x="620" y="1072"/>
      <point x="727" y="1072" type="qcurve" smooth="yes"/>
      <point x="888" y="1072"/>
      <point x="1050" y="923"/>
      <point x="1050" y="793" type="qcurve" smooth="yes"/>
      <point x="1050" y="706"/>
      <point x="1046" y="530"/>
      <point x="1046" y="530" type="qcurve"/>
      <point x="1049" y="131" type="line"/>
      <point x="1217" y="96" type="line"/>
      <point x="1217" y="0" type="line"/>
      <point x="754" y="0" type="line"/>
      <point x="754" y="96" type="line"/>
      <point x="932" y="131" type="line"/>
      <point x="934" y="530" type="line"/>
      <point x="934" y="772" type="line" smooth="yes"/>
      <point x="934" y="844"/>
      <point x="811" y="948"/>
      <point x="703" y="948" type="qcurve" smooth="yes"/>
      <point x="605" y="948"/>
      <point x="417" y="869"/>
      <point x="360" y="795" type="qcurve"/>
      <point x="360" y="547" type="line"/>
      <point x="361" y="131" type="line"/>
      <point x="519" y="96" type="line"/>
      <point x="519" y="0" type="line"/>
    </contour>
  </outline>
</glyph>
<glyph name="k" format="2">
  <advance width="1243"/>
  <unicode hex="006B"/>
  <anchor x="615" y="0" name="bottom"/>
  <anchor x="585" y="1514" name="top"/>
  <outline>
    <contour>
      <point x="82" y="0" type="line"/>
      <point x="82" y="96" type="line"/>
      <point x="244" y="131" type="line"/>
      <point x="245" y="527" type="line"/>
      <point x="244" y="1340" type="line"/>
      <point x="58" y="1370" type="line"/>
      <point x="58" y="1480" type="line"/>
      <point x="301" y="1514" type="line"/>
      <point x="333" y="1514" type="line"/>
      <point x="361" y="1482" type="line"/>
      <point x="360" y="514" type="line"/>
      <point x="361" y="131" type="line"/>
      <point x="519" y="96" type="line"/>
      <point x="519" y="0" type="line"/>
    </contour>
    <contour>
      <point x="322" y="428" type="line"/>
      <point x="319" y="519" type="line"/>
      <point x="792" y="923" type="line"/>
      <point x="634" y="953" type="line"/>
      <point x="634" y="1051" type="line"/>
      <point x="1110" y="1051" type="line"/>
      <point x="1110" y="953" type="line"/>
      <point x="923" y="918" type="line"/>
    </contour>
    <contour>
      <point x="531" y="647" type="line"/>
      <point x="612" y="715" type="line"/>
      <point x="1064" y="131" type="line"/>
      <point x="1213" y="96" type="line"/>
      <point x="1213" y="0" type="line"/>
      <point x="865" y="0" type="line"/>
      <point x="860" y="95" type="line"/>
      <point x="927" y="127" type="line"/>
    </contour>
  </outline>
</glyph>
<glyph name="m" format="2">
  <advance width="1978"/>
  <unicode hex="006D"/>
  <anchor x="992" y="0" name="bottom"/>
  <anchor x="992" y="1051" name="top"/>
  <outline>
    <contour>
      <point x="82" y="0" type="line"/>
      <point x="82" y="96" type="line"/>
      <point x="250" y="131" type="line"/>
      <point x="251" y="527" type="line"/>
      <point x="250" y="876" type="line"/>
      <point x="82" y="906" type="line"/>
      <point x="82" y="1016" type="line"/>
      <point x="307" y="1050" type="line"/>
      <point x="342" y="1023" type="line"/>
      <point x="367" y="904" type="line"/>
      <point x="428" y="979"/>
      <point x="625" y="1071"/>
      <point x="730" y="1071" type="qcurve" smooth="yes"/>
      <point x="857" y="1071"/>
      <point x="1002" y="976"/>
      <point x="1031" y="890" type="qcurve"/>
      <point x="1100" y="970"/>
      <point x="1305" y="1071"/>
      <point x="1415" y="1071" type="qcurve" smooth="yes"/>
      <point x="1576" y="1071"/>
      <point x="1738" y="922"/>
      <point x="1738" y="792" type="qcurve" smooth="yes"/>
      <point x="1738" y="708"/>
      <point x="1735" y="562"/>
      <point x="1735" y="527" type="qcurve" smooth="yes"/>
      <point x="1738" y="131" type="line"/>
      <point x="1906" y="96" type="line"/>
      <point x="1906" y="0" type="line"/>
      <point x="1443" y="0" type="line"/>
      <point x="1443" y="96" type="line"/>
      <point x="1621" y="131" type="line"/>
      <point x="1623" y="527" type="line"/>
      <point x="1623" y="772" type="line" smooth="yes"/>
      <point x="1623" y="850"/>
      <point x="1500" y="947"/>
      <point x="1394" y="947" type="qcurve" smooth="yes"/>
      <point x="1289" y="947"/>
      <point x="1109" y="869"/>
      <point x="1053" y="801" type="qcurve"/>
      <point x="1050" y="725"/>
      <point x="1050" y="550"/>
      <point x="1050" y="527" type="qcurve" smooth="yes"/>
      <point x="1053" y="131" type="line"/>
      <point x="1221" y="96" type="line"/>
      <point x="1221" y="0" type="line"/>
      <point x="758" y="0" type="line"/>
      <point x="758" y="96" type="line"/>
      <point x="936" y="131" type="line"/>
      <point x="938" y="527" type="line"/>
      <point x="938" y="772" type="line" smooth="yes"/>
      <point x="938" y="850"/>
      <point x="806" y="947"/>
      <point x="707" y="947" type="qcurve" smooth="yes"/>
      <point x="603" y="947"/>
      <point x="422" y="865"/>
      <point x="366" y="795" type="qcurve"/>
      <point x="366" y="527" type="line"/>
      <point x="367" y="131" type="line"/>
      <point x="524" y="96" type="line"/>
      <point x="524" y="0" type="line"/>
    </contour>
  </outline>
</glyph>
<glyph name="n" format="2">
  <advance width="1297"/>
  <unicode hex="006E"/>
  <anchor x="651" y="0" name="bottom"/>
  <anchor x="648" y="1051" name="top"/>
  <outline>
    <contour>
      <point x="82" y="0" type="line"/>
      <point x="82" y="96" type="line"/>
      <point x="250" y="131" type="line"/>
      <point x="251" y="530" type="line"/>
      <point x="250" y="876" type="line"/>
      <point x="82" y="906" type="line"/>
      <point x="82" y="1016" type="line"/>
      <point x="307" y="1050" type="line"/>
      <point x="342" y="1023" type="line"/>
      <point x="368" y="904" type="line"/>
      <point x="425" y="970"/>
      <point x="629" y="1071"/>
      <point x="741" y="1072" type="qcurve" smooth="yes"/>
      <point x="900" y="1071"/>
      <point x="1056" y="922"/>
      <point x="1056" y="792" type="qcurve" smooth="yes"/>
      <point x="1056" y="713"/>
      <point x="1053" y="557"/>
      <point x="1053" y="530" type="qcurve" smooth="yes"/>
      <point x="1056" y="131" type="line"/>
      <point x="1225" y="96" type="line"/>
      <point x="1225" y="0" type="line"/>
      <point x="760" y="0" type="line"/>
      <point x="760" y="96" type="line"/>
      <point x="938" y="131" type="line"/>
      <point x="940" y="530" type="line"/>
      <point x="940" y="765" type="line" smooth="yes"/>
      <point x="940" y="850"/>
      <point x="817" y="950"/>
      <point x="715" y="950" type="qcurve" smooth="yes"/>
      <point x="610" y="950"/>
      <point x="422" y="866"/>
      <point x="366" y="795" type="qcurve"/>
      <point x="366" y="530" type="line"/>
      <point x="367" y="131" type="line"/>
      <point x="525" y="96" type="line"/>
      <point x="525" y="0" type="line"/>
    </contour>
  </outline>
</glyph>
<glyph name="o" format="2">
  <advance width="1196"/>
  <unicode hex="006F"/>
  <anchor x="599" y="0" name="bottom"/>
  <anchor x="599" y="525" name="center"/>
  <anchor x="774" y="0" name="ogonek"/>
  <anchor x="599" y="1051" name="top"/>
  <anchor x="778" y="1051" name="topright"/>
  <anchor x="599" y="1051" name="GRKtop"/>
  <outline>
    <contour>
      <point x="90" y="525" type="qcurve" smooth="yes"/>
      <point x="90" y="753"/>
      <point x="369" y="1073"/>
      <point x="597" y="1073" type="qcurve" smooth="yes"/>
      <point x="824" y="1073"/>
      <point x="1106" y="774"/>
      <point x="1106" y="531" type="qcurve" smooth="yes"/>
      <point x="1106" y="305"/>
      <point x="829" y="-22"/>
      <point x="603" y="-22" type="qcurve" smooth="yes"/>
      <point x="375" y="-22"/>
      <point x="90" y="281"/>
    </contour>
    <contour>
      <point x="216" y="545" type="qcurve" smooth="yes"/>
      <point x="217" y="346"/>
      <point x="425" y="70"/>
      <point x="597" y="70" type="qcurve" smooth="yes"/>
      <point x="780" y="70"/>
      <point x="980" y="323"/>
      <point x="980" y="531" type="qcurve" smooth="yes"/>
      <point x="980" y="724"/>
      <point x="771" y="975"/>
      <point x="599" y="975" type="qcurve" smooth="yes"/>
      <point x="413" y="975"/>
      <point x="215" y="746"/>
    </contour>
  </outline>
</glyph>
<glyph name="q" format="2">
  <advance width="1231"/>
  <unicode hex="0071"/>
  <anchor x="586" y="0" name="bottom"/>
  <anchor x="603" y="1051" name="top"/>
  <outline>
    <contour>
      <point x="94" y="502" type="qcurve" smooth="yes"/>
      <point x="94" y="763"/>
      <point x="377" y="1071"/>
      <point x="609" y="1071" type="qcurve" smooth="yes"/>
      <point x="697" y="1071"/>
      <point x="863" y="1019"/>
      <point x="915" y="979" type="qcurve"/>
      <point x="970" y="1061" type="line"/>
      <point x="1184" y="1026" type="line"/>
      <point x="1184" y="917" type="line"/>
      <point x="1015" y="883" type="line"/>
      <point x="1010" y="449" type="line"/>
      <point x="1012" y="-349" type="line"/>
      <point x="1184" y="-384" type="line"/>
      <point x="1184" y="-480" type="line"/>
      <point x="700" y="-480" type="line"/>
      <point x="700" y="-384" type="line"/>
      <point x="893" y="-349" type="line"/>
      <point x="899" y="138" type="line"/>
      <point x="842" y="72"/>
      <point x="663" y="-9"/>
      <point x="546" y="-9" type="qcurve" smooth="yes"/>
      <point x="353" y="-9"/>
      <point x="94" y="267"/>
    </contour>
    <contour>
      <point x="220" y="525" type="qcurve" smooth="yes"/>
      <point x="220" y="323"/>
      <point x="412" y="97"/>
      <point x="564" y="97" type="qcurve" smooth="yes"/>
      <point x="673" y="97"/>
      <point x="846" y="177"/>
      <point x="900" y="242" type="qcurve"/>
      <point x="901" y="860" type="line"/>
      <point x="858" y="917"/>
      <point x="707" y="984"/>
      <point x="596" y="984" type="qcurve" smooth="yes"/>
      <point x="430" y="984"/>
      <point x="220" y="724"/>
    </contour>
  </outline>
</glyph>
<glyph name="r" format="2">
  <advance width="902"/>
  <unicode hex="0072"/>
  <anchor x="421" y="0" name="bottom"/>
  <anchor x="511" y="1051" name="top"/>
  <outline>
    <contour>
      <point x="82" y="0" type="line"/>
      <point x="82" y="96" type="line"/>
      <point x="250" y="131" type="line"/>
      <point x="251" y="548" type="line"/>
      <point x="250" y="876" type="line"/>
      <point x="82" y="906" type="line"/>
      <point x="82" y="1016" type="line"/>
      <point x="307" y="1050" type="line"/>
      <point x="342" y="1023" type="line"/>
      <point x="367" y="910" type="line"/>
      <point x="446" y="973"/>
      <point x="631" y="1050"/>
      <point x="736" y="1050" type="qcurve" smooth="yes"/>
      <point x="845" y="1050" type="line"/>
      <point x="845" y="753" type="line"/>
      <point x="748" y="753" type="line"/>
      <point x="713" y="933" type="line"/>
      <point x="604" y="934"/>
      <point x="439" y="867"/>
      <point x="366" y="797" type="qcurve"/>
      <point x="366" y="548" type="line"/>
      <point x="367" y="131" type="line"/>
      <point x="545" y="96" type="line"/>
      <point x="545" y="0" type="line"/>
    </contour>
  </outline>
</glyph>
<glyph name="s" format="2">
  <advance width="952"/>
  <unicode hex="0073"/>
  <anchor x="502" y="0" name="bottom"/>
  <anchor x="451" y="1051" name="top"/>
  <outline>
    <contour>
      <point x="81" y="-9" type="line"/>
      <point x="81" y="356" type="line"/>
      <point x="177" y="356" type="line"/>
      <point x="190" y="280" type="line" smooth="yes"/>
      <point x="209" y="181"/>
      <point x="367" y="71"/>
      <point x="496" y="71" type="qcurve" smooth="yes"/>
      <point x="613" y="71"/>
      <point x="764" y="175"/>
      <point x="764" y="279" type="qcurve" smooth="yes"/>
      <point x="764" y="369"/>
      <point x="620" y="473"/>
      <point x="431" y="525" type="qcurve" smooth="yes"/>
      <point x="250" y="575"/>
      <point x="115" y="694"/>
      <point x="115" y="806" type="qcurve" smooth="yes"/>
      <point x="115" y="924"/>
      <point x="289" y="1073"/>
      <point x="447" y="1073" type="qcurve" smooth="yes"/>
      <point x="527" y="1073"/>
      <point x="649" y="1040"/>
      <point x="693" y="1010" type="qcurve"/>
      <point x="709" y="1059" type="line"/>
      <point x="790" y="1059" type="line"/>
      <point x="790" y="737" type="line"/>
      <point x="695" y="737" type="line"/>
      <point x="678" y="848" type="line" smooth="yes"/>
      <point x="669" y="898"/>
      <point x="540" y="980"/>
      <point x="450" y="980" type="qcurve" smooth="yes"/>
      <point x="340" y="980"/>
      <point x="230" y="896"/>
      <point x="230" y="820" type="qcurve" smooth="yes"/>
      <point x="230" y="754"/>
      <point x="326" y="674"/>
      <point x="514" y="619" type="qcurve" smooth="yes"/>
      <point x="691" y="566"/>
      <point x="878" y="430"/>
      <point x="878" y="293" type="qcurve" smooth="yes"/>
      <point x="878" y="150"/>
      <point x="671" y="-21"/>
      <point x="506" y="-21" type="qcurve" smooth="yes"/>
      <point x="399" y="-21"/>
      <point x="257" y="23"/>
      <point x="202" y="73" type="qcurve"/>
      <point x="163" y="-9" type="line"/>
    </contour>
  </outline>
</glyph>
<glyph name="u" format="2">
  <advance width="1277"/>
  <unicode hex="0075"/>
  <anchor x="619" y="0" name="bottom"/>
  <anchor x="1099" y="20" name="ogonek"/>
  <anchor x="623" y="1051" name="top"/>
  <anchor x="1012" y="1051" name="topright"/>
  <outline>
    <contour>
      <point x="62" y="907" type="line"/>
      <point x="62" y="1017" type="line"/>
      <point x="288" y="1051" type="line"/>
      <point x="322" y="1051" type="line"/>
      <point x="347" y="1015" type="line"/>
      <point x="346" y="503" type="line"/>
      <point x="346" y="278" type="line" smooth="yes"/>
      <point x="346" y="208"/>
      <point x="466" y="93"/>
      <point x="577" y="93" type="qcurve" smooth="yes"/>
      <point x="669" y="93"/>
      <point x="859" y="171"/>
      <point x="921" y="247" type="qcurve"/>
      <point x="922" y="503" type="line"/>
      <point x="920" y="877" type="line"/>
      <point x="762" y="907" type="line"/>
      <point x="762" y="1017" type="line"/>
      <point x="977" y="1051" type="line"/>
      <point x="1012" y="1051" type="line"/>
      <point x="1037" y="1015" type="line"/>
      <point x="1036" y="503" type="line"/>
      <point x="1037" y="161" type="line"/>
      <point x="1205" y="131" type="line"/>
      <point x="1205" y="34" type="line"/>
      <point x="980" y="0" type="line"/>
      <point x="945" y="27" type="line"/>
      <point x="921" y="147" type="line"/>
      <point x="858" y="72"/>
      <point x="651" y="-21"/>
      <point x="539" y="-21" type="qcurve" smooth="yes"/>
      <point x="385" y="-21"/>
      <point x="230" y="128"/>
      <point x="230" y="258" type="qcurve" smooth="yes"/>
      <point x="230" y="330"/>
      <point x="233" y="478"/>
      <point x="233" y="503" type="qcurve" smooth="yes"/>
      <point x="230" y="877" type="line"/>
    </contour>
  </outline>
</glyph>
<glyph name="v" format="2">
  <advance width="1127"/>
  <unicode hex="0076"/>
  <anchor x="518" y="0" name="bottom"/>
  <anchor x="553" y="1051" name="top"/>
  <outline>
    <contour>
      <point x="-4" y="945" type="line"/>
      <point x="-4" y="1051" type="line"/>
      <point x="408" y="1051" type="line"/>
      <point x="408" y="945" type="line"/>
      <point x="260" y="907" type="line"/>
      <point x="403" y="549" type="line"/>
      <point x="517" y="264" type="line"/>
      <point x="562" y="148" type="line"/>
      <point x="572" y="148" type="line"/>
      <point x="615" y="264" type="line"/>
      <point x="732" y="567" type="line"/>
      <point x="867" y="915" type="line"/>
      <point x="716" y="945" type="line"/>
      <point x="716" y="1051" type="line"/>
      <point x="1151" y="1051" type="line"/>
      <point x="1151" y="945" type="line"/>
      <point x="976" y="910" type="line"/>
      <point x="819" y="526" type="line"/>
      <point x="607" y="-8" type="line"/>
      <point x="521" y="-8" type="line"/>
      <point x="309" y="509" type="line"/>
      <point x="140" y="910" type="line"/>
    </contour>
  </outline>
</glyph>
<glyph name="w" format="2">
  <advance width="1680"/>
  <unicode hex="0077"/>
  <anchor x="779" y="0" name="bottom"/>
  <anchor x="814" y="1051" name="top"/>
  <outline>
    <contour>
      <point x="480" y="-8" type="line"/>
      <point x="291" y="492" type="line"/>
      <point x="134" y="910" type="line"/>
      <point x="-4" y="945" type="line"/>
      <point x="-4" y="1051" type="line"/>
      <point x="408" y="1051" type="line"/>
      <point x="408" y="945" type="line"/>
      <point x="254" y="907" type="line"/>
      <point x="387" y="531" type="line"/>
      <point x="486" y="254" type="line"/>
      <point x="524" y="146" type="line"/>
      <point x="536" y="146" type="line"/>
      <point x="577" y="254" type="line"/>
      <point x="678" y="513" type="line"/>
      <point x="782" y="791" type="line"/>
      <point x="734" y="910" type="line"/>
      <point x="594" y="945" type="line"/>
      <point x="594" y="1051" type="line"/>
      <point x="1001" y="1051" type="line"/>
      <point x="1001" y="945" type="line"/>
      <point x="853" y="907" type="line"/>
      <point x="1007" y="501" type="line"/>
      <point x="1102" y="254" type="line"/>
      <point x="1144" y="147" type="line"/>
      <point x="1155" y="147" type="line"/>
      <point x="1195" y="254" type="line"/>
      <point x="1302" y="554" type="line"/>
      <point x="1435" y="915" type="line"/>
      <point x="1275" y="945" type="line"/>
      <point x="1275" y="1051" type="line"/>
      <point x="1704" y="1051" type="line"/>
      <point x="1704" y="945" type="line"/>
      <point x="1536" y="910" type="line"/>
      <point x="1382" y="505" type="line"/>
      <point x="1188" y="-8" type="line"/>
      <point x="1104" y="-8" type="line"/>
      <point x="884" y="545" type="line"/>
      <point x="839" y="661" type="line"/>
      <point x="830" y="661" type="line"/>
      <point x="785" y="545" type="line"/>
      <point x="565" y="-8" type="line"/>
    </contour>
  </outline>
</glyph>
<glyph name="x" format="2">
  <advance width="1150"/>
  <unicode hex="0078"/>
  <anchor x="559" y="0" name="bottom"/>
  <anchor x="559" y="1051" name="top"/>
  <outline>
    <contour>
      <point x="29" y="0" type="line"/>
      <point x="29" y="96" type="line"/>
      <point x="206" y="131" type="line"/>
      <point x="494" y="524" type="line"/>
      <point x="162" y="910" type="line"/>
      <point x="26" y="945" type="line"/>
      <point x="26" y="1051" type="line"/>
      <point x="445" y="1051" type="line"/>
      <point x="445" y="945" type="line"/>
      <point x="304" y="908" type="line"/>
      <point x="483" y="697" type="line"/>
      <point x="561" y="602" type="line"/>
      <point x="571" y="602" type="line"/>
      <point x="641" y="697" type="line"/>
      <point x="801" y="915" type="line"/>
      <point x="644" y="945" type="line"/>
      <point x="644" y="1051" type="line"/>
      <point x="1077" y="1051" type="line"/>
      <point x="1077" y="945" type="line"/>
      <point x="910" y="910" type="line"/>
      <point x="631" y="528" type="line"/>
      <point x="977" y="131" type="line"/>
      <point x="1122" y="96" type="line"/>
      <point x="1122" y="0" type="line"/>
      <point x="694" y="0" type="line"/>
      <point x="694" y="96" type="line"/>
      <point x="834" y="133" type="line"/>
      <point x="641" y="358" type="line"/>
      <point x="563" y="452" type="line"/>
      <point x="553" y="452" type="line"/>
      <point x="487" y="358" type="line"/>
      <point x="317" y="126" type="line"/>
      <point x="464" y="96" type="line"/>
      <point x="464" y="0" type="line"/>
    </contour>
  </outline>
</glyph>
<glyph name="y" format="2">
  <advance width="1132"/>
  <unicode hex="0079"/>
  <anchor x="849" y="0" name="bottom"/>
  <anchor x="572" y="1051" name="top"/>
  <outline>
    <contour>
      <point x="17" y="945" type="line"/>
      <point x="17" y="1051" type="line"/>
      <point x="429" y="1051" type="line"/>
      <point x="429" y="945" type="line"/>
      <point x="276" y="907" type="line"/>
      <point x="426" y="549" type="line"/>
      <point x="526" y="308" type="line"/>
      <point x="573" y="188" type="line"/>
      <point x="583" y="188" type="line"/>
      <point x="630" y="308" type="line"/>
      <point x="732" y="569" type="line"/>
      <point x="874" y="915" type="line"/>
      <point x="686" y="945" type="line"/>
      <point x="686" y="1051" type="line"/>
      <point x="1156" y="1051" type="line"/>
      <point x="1156" y="945" type="line"/>
      <point x="987" y="910" type="line"/>
      <point x="818" y="526" type="line"/>
      <point x="471" y="-287" type="line" smooth="yes"/>
      <point x="424" y="-397"/>
      <point x="290" y="-492"/>
      <point x="194" y="-492" type="qcurve"/>
      <point x="44" y="-463" type="line"/>
      <point x="44" y="-387" type="line"/>
      <point x="140" y="-387" type="line" smooth="yes"/>
      <point x="207" y="-387"/>
      <point x="350" y="-323"/>
      <point x="405" y="-195" type="qcurve" smooth="yes"/>
      <point x="520" y="72" type="line"/>
      <point x="517" y="72" type="line"/>
      <point x="331" y="511" type="line"/>
      <point x="155" y="910" type="line"/>
    </contour>
  </outline>
</glyph>
<glyph name="braceleft" format="2">
  <advance width="769"/>
  <unicode hex="007B"/>
  <outline>
    <contour>
      <point x="86" y="490" type="line"/>
      <point x="86" y="579" type="line"/>
      <point x="217" y="590" type="line" smooth="yes"/>
      <point x="273" y="595"/>
      <point x="322" y="660"/>
      <point x="322" y="716" type="qcurve" smooth="yes"/>
      <point x="322" y="834"/>
      <point x="204" y="1073"/>
      <point x="204" y="1184" type="qcurve" smooth="yes"/>
      <point x="204" y="1343"/>
      <point x="363" y="1510"/>
      <point x="504" y="1510" type="qcurve" smooth="yes"/>
      <point x="568" y="1510"/>
      <point x="692" y="1503"/>
      <point x="733" y="1500" type="qcurve"/>
      <point x="733" y="1388" type="line"/>
      <point x="670" y="1390"/>
      <point x="617" y="1390"/>
      <point x="558" y="1390" type="qcurve" smooth="yes"/>
      <point x="458" y="1390"/>
      <point x="335" y="1296"/>
      <point x="335" y="1198" type="qcurve" smooth="yes"/>
      <point x="335" y="1096"/>
      <point x="430" y="867"/>
      <point x="430" y="766" type="qcurve" smooth="yes"/>
      <point x="430" y="681"/>
      <point x="383" y="573"/>
      <point x="341" y="550" type="qcurve"/>
      <point x="392" y="516"/>
      <point x="431" y="410"/>
      <point x="431" y="330" type="qcurve" smooth="yes"/>
      <point x="431" y="230"/>
      <point x="301" y="-79"/>
      <point x="301" y="-182" type="qcurve" smooth="yes"/>
      <point x="301" y="-280"/>
      <point x="428" y="-376"/>
      <point x="527" y="-376" type="qcurve" smooth="yes"/>
      <point x="587" y="-376"/>
      <point x="666" y="-376"/>
      <point x="729" y="-374" type="qcurve"/>
      <point x="729" y="-484" type="line"/>
      <point x="688" y="-487"/>
      <point x="594" y="-495"/>
      <point x="515" y="-495" type="qcurve" smooth="yes"/>
      <point x="373" y="-495"/>
      <point x="177" y="-327"/>
      <point x="177" y="-168" type="qcurve" smooth="yes"/>
      <point x="177" y="-50"/>
      <point x="321" y="246"/>
      <point x="321" y="364" type="qcurve"/>
      <point x="321" y="490" type="line"/>
    </contour>
  </outline>
</glyph>
<glyph name="bar" format="2">
  <advance width="656"/>
  <unicode hex="007C"/>
  <outline>
    <contour>
      <point x="259" y="-540" type="line"/>
      <point x="265" y="-58" type="line"/>
      <point x="271" y="250" type="line"/>
      <point x="269" y="830" type="line"/>
      <point x="263" y="1138" type="line"/>
      <point x="257" y="1489" type="line"/>
      <point x="403" y="1550" type="line"/>
      <point x="394" y="1138" type="line"/>
      <point x="386" y="830" type="line"/>
      <point x="387" y="250" type="line"/>
      <point x="395" y="-58" type="line"/>
      <point x="401" y="-479" type="line"/>
    </contour>
  </outline>
</glyph>
<glyph name="braceright" format="2">
  <advance width="768"/>
  <unicode hex="007D"/>
  <outline>
    <contour>
      <point x="41" y="-484" type="qcurve"/>
      <point x="41" y="-374" type="line"/>
      <point x="104" y="-376"/>
      <point x="164" y="-376"/>
      <point x="224" y="-376" type="qcurve" smooth="yes"/>
      <point x="323" y="-376"/>
      <point x="446" y="-280"/>
      <point x="446" y="-181" type="qcurve" smooth="yes"/>
      <point x="446" y="-79"/>
      <point x="337" y="230"/>
      <point x="337" y="330" type="qcurve" smooth="yes"/>
      <point x="337" y="410"/>
      <point x="376" y="516"/>
      <point x="426" y="550" type="qcurve"/>
      <point x="385" y="573"/>
      <point x="338" y="681"/>
      <point x="338" y="766" type="qcurve" smooth="yes"/>
      <point x="338" y="867"/>
      <point x="448" y="1095"/>
      <point x="448" y="1198" type="qcurve" smooth="yes"/>
      <point x="448" y="1296"/>
      <point x="329" y="1390"/>
      <point x="230" y="1390" type="qcurve" smooth="yes"/>
      <point x="170" y="1390"/>
      <point x="99" y="1390"/>
      <point x="36" y="1388" type="qcurve"/>
      <point x="36" y="1500" type="line"/>
      <point x="78" y="1503"/>
      <point x="165" y="1510"/>
      <point x="245" y="1510" type="qcurve" smooth="yes"/>
      <point x="418" y="1510"/>
      <point x="574" y="1343"/>
      <point x="574" y="1184" type="qcurve" smooth="yes"/>
      <point x="574" y="1073"/>
      <point x="446" y="834"/>
      <point x="446" y="716" type="qcurve" smooth="yes"/>
      <point x="446" y="660"/>
      <point x="495" y="595"/>
      <point x="551" y="590" type="qcurve" smooth="yes"/>
      <point x="682" y="579" type="line"/>
      <point x="682" y="490" type="line"/>
      <point x="447" y="490" type="line"/>
      <point x="447" y="364" type="line"/>
      <point x="447" y="246"/>
      <point x="574" y="-50"/>
      <point x="574" y="-168" type="qcurve" smooth="yes"/>
      <point x="574" y="-327"/>
      <point x="411" y="-495"/>
      <point x="237" y="-495" type="qcurve" smooth="yes"/>
      <point x="158" y="-495"/>
      <point x="82" y="-487"/>
    </contour>
  </outline>
</glyph>
<glyph name="asciitilde" format="2">
  <advance width="1205"/>
  <unicode hex="007E"/>
  <outline>
    <contour>
      <point x="47" y="601" type="line"/>
      <point x="109" y="694"/>
      <point x="314" y="782"/>
      <point x="410" y="782" type="qcurve"/>
      <point x="849" y="642" type="line"/>
      <point x="909" y="642"/>
      <point x="1035" y="739"/>
      <point x="1081" y="805" type="qcurve"/>
      <point x="1158" y="761" type="line"/>
      <point x="1106" y="653"/>
      <point x="932" y="540"/>
      <point x="800" y="540" type="qcurve"/>
      <point x="375" y="677" type="line"/>
      <point x="310" y="677"/>
      <point x="162" y="600"/>
      <point x="105" y="546" type="qcurve"/>
    </contour>
  </outline>
</glyph>
<glyph name="exclamdown" format="2">
  <advance width="656"/>
  <unicode hex="00A1"/>
  <outline>
    <contour>
      <point x="433" y="1238" type="qcurve" smooth="yes"/>
      <point x="433" y="1196"/>
      <point x="374" y="1134"/>
      <point x="328" y="1134" type="qcurve" smooth="yes"/>
      <point x="283" y="1134"/>
      <point x="224" y="1196"/>
      <point x="224" y="1238" type="qcurve" smooth="yes"/>
      <point x="224" y="1280"/>
      <point x="283" y="1342"/>
      <point x="328" y="1342" type="qcurve" smooth="yes"/>
      <point x="374" y="1342"/>
      <point x="433" y="1280"/>
    </contour>
    <contour>
      <point x="393" y="-85" type="line" smooth="yes"/>
      <point x="395" y="-153"/>
      <point x="367" y="-240"/>
      <point x="329" y="-241" type="qcurve" smooth="yes"/>
      <point x="291" y="-242"/>
      <point x="261" y="-155"/>
      <point x="263" y="-86" type="qcurve" smooth="yes"/>
      <point x="273" y="213" type="line"/>
      <point x="289" y="521" type="line"/>
      <point x="289" y="891" type="line"/>
      <point x="368" y="891" type="line"/>
      <point x="368" y="521" type="line"/>
      <point x="383" y="213" type="line"/>
    </contour>
  </outline>
</glyph>
<glyph name="cent" format="2">
  <advance width="1080"/>
  <unicode hex="00A2"/>
  <outline>
    <contour>
      <point x="90" y="489" type="qcurve" smooth="yes"/>
      <point x="90" y="714"/>
      <point x="358" y="1022"/>
      <point x="592" y="1022" type="qcurve" smooth="yes"/>
      <point x="664" y="1022"/>
      <point x="799" y="992"/>
      <point x="837" y="965" type="qcurve"/>
      <point x="869" y="1019" type="line"/>
      <point x="946" y="994" type="line"/>
      <point x="962" y="663" type="line"/>
      <point x="877" y="648" type="line"/>
      <point x="854" y="716" type="line" smooth="yes"/>
      <point x="826" y="802"/>
      <point x="667" y="929"/>
      <point x="579" y="929" type="qcurve" smooth="yes"/>
      <point x="414" y="929"/>
      <point x="214" y="720"/>
      <point x="214" y="517" type="qcurve" smooth="yes"/>
      <point x="214" y="304"/>
      <point x="445" y="87"/>
      <point x="645" y="87" type="qcurve" smooth="yes"/>
      <point x="757" y="87"/>
      <point x="931" y="166"/>
      <point x="1002" y="230" type="qcurve"/>
      <point x="1046" y="179" type="line"/>
      <point x="986" y="102"/>
      <point x="773" y="-22"/>
      <point x="627" y="-22" type="qcurve" smooth="yes"/>
      <point x="384" y="-22"/>
      <point x="90" y="246"/>
    </contour>
    <contour>
      <point x="510" y="-210" type="line"/>
      <point x="510" y="52" type="line"/>
      <point x="533" y="52" type="line"/>
      <point x="533" y="520" type="line"/>
      <point x="620" y="478" type="line"/>
      <point x="620" y="52" type="line"/>
      <point x="644" y="52" type="line"/>
      <point x="644" y="-168" type="line"/>
    </contour>
    <contour>
      <point x="509" y="1170" type="line"/>
      <point x="642" y="1203" type="line"/>
      <point x="642" y="988" type="line"/>
      <point x="620" y="988" type="line"/>
      <point x="620" y="478" type="line"/>
      <point x="533" y="520" type="line"/>
      <point x="533" y="988" type="line"/>
      <point x="509" y="988" type="line"/>
    </contour>
  </outline>
</glyph>
<glyph name="sterling" format="2">
  <advance width="1177"/>
  <unicode hex="00A3"/>
  <outline>
    <contour>
      <point x="642" y="539" type="qcurve" smooth="yes"/>
      <point x="642" y="405"/>
      <point x="457" y="166"/>
      <point x="318" y="124" type="qcurve"/>
      <point x="328" y="91" type="line"/>
      <point x="877" y="91" type="line"/>
      <point x="1011" y="372" type="line"/>
      <point x="1109" y="372" type="line"/>
      <point x="1010" y="0" type="line"/>
      <point x="96" y="0" type="line"/>
      <point x="42" y="90" type="line"/>
      <point x="65" y="112" type="line"/>
      <point x="291" y="112"/>
      <point x="521" y="356"/>
      <point x="521" y="477" type="qcurve" smooth="yes"/>
      <point x="521" y="552"/>
      <point x="431" y="700"/>
      <point x="370" y="771" type="qcurve" smooth="yes"/>
      <point x="291" y="865"/>
      <point x="143" y="1053"/>
      <point x="143" y="1152" type="qcurve" smooth="yes"/>
      <point x="143" y="1280"/>
      <point x="391" y="1501"/>
      <point x="579" y="1501" type="qcurve" smooth="yes"/>
      <point x="745" y="1501"/>
      <point x="969" y="1404"/>
      <point x="1053" y="1328" type="qcurve"/>
      <point x="983" y="1239" type="line"/>
      <point x="911" y="1299"/>
      <point x="712" y="1392"/>
      <point x="573" y="1392" type="qcurve" smooth="yes"/>
      <point x="418" y="1392"/>
      <point x="259" y="1259"/>
      <point x="259" y="1170" type="qcurve" smooth="yes"/>
      <point x="259" y="1089"/>
      <point x="392" y="923"/>
      <point x="470" y="832" type="qcurve" smooth="yes"/>
      <point x="535" y="759"/>
      <point x="642" y="607"/>
    </contour>
    <contour>
      <point x="189" y="593" type="line"/>
      <point x="169" y="707" type="line"/>
      <point x="971" y="707" type="line"/>
      <point x="946" y="593" type="line"/>
    </contour>
  </outline>
</glyph>
<glyph name="yen" format="2">
  <advance width="1385"/>
  <unicode hex="00A5"/>
  <outline>
    <contour>
      <point x="261" y="631" type="line"/>
      <point x="236" y="736" type="line"/>
      <point x="1144" y="736" type="line"/>
      <point x="1119" y="631" type="line"/>
    </contour>
    <contour>
      <point x="632" y="657" type="line"/>
      <point x="408" y="1003" type="line"/>
      <point x="175" y="1360" type="line"/>
      <point x="-4" y="1386" type="line"/>
      <point x="-4" y="1500" type="line"/>
      <point x="490" y="1500" type="line"/>
      <point x="490" y="1386" type="line"/>
      <point x="319" y="1351" type="line"/>
      <point x="505" y="1057" type="line"/>
      <point x="703" y="759" type="line"/>
      <point x="898" y="1064" type="line"/>
      <point x="1078" y="1358" type="line"/>
      <point x="878" y="1386" type="line"/>
      <point x="878" y="1500" type="line"/>
      <point x="1389" y="1500" type="line"/>
      <point x="1389" y="1386" type="line"/>
      <point x="1207" y="1359" type="line"/>
      <point x="979" y="1008" type="line"/>
      <point x="753" y="656" type="line"/>
      <point x="754" y="135" type="line"/>
      <point x="992" y="100" type="line"/>
      <point x="992" y="0" type="line"/>
      <point x="389" y="0" type="line"/>
      <point x="389" y="100" type="line"/>
      <point x="630" y="135" type="line"/>
    </contour>
    <contour>
      <point x="321" y="331" type="line"/>
      <point x="296" y="436" type="line"/>
      <point x="1084" y="436" type="line"/>
      <point x="1059" y="331" type="line"/>
    </contour>
  </outline>
</glyph>
<glyph name="brokenbar" format="2">
  <advance width="656"/>
  <unicode hex="00A6"/>
  <outline>
    <contour>
      <point x="248" y="688" type="line"/>
      <point x="257" y="900" type="line"/>
      <point x="245" y="1208" type="line"/>
      <point x="233" y="1480" type="line"/>
      <point x="423" y="1550" type="line"/>
      <point x="411" y="1208" type="line"/>
      <point x="397" y="900" type="line"/>
      <point x="399" y="738" type="line"/>
    </contour>
    <contour>
      <point x="233" y="-540" type="line"/>
      <point x="245" y="-128" type="line"/>
      <point x="259" y="180" type="line"/>
      <point x="257" y="348" type="line"/>
      <point x="408" y="408" type="line"/>
      <point x="399" y="180" type="line"/>
      <point x="411" y="-128" type="line"/>
      <point x="423" y="-451" type="line"/>
    </contour>
  </outline>
</glyph>
<glyph name="section" format="2">
  <advance width="1091"/>
  <unicode hex="00A7"/>
  <outline>
    <contour>
      <point x="965" y="123" type="qcurve" smooth="yes"/>
      <point x="965" y="-35"/>
      <point x="758" y="-253"/>
      <point x="579" y="-253" type="qcurve" smooth="yes"/>
      <point x="477" y="-253"/>
      <point x="322" y="-187"/>
      <point x="268" y="-135" type="qcurve"/>
      <point x="227" y="-235" type="line"/>
      <point x="143" y="-235" type="line"/>
      <point x="143" y="196" type="line"/>
      <point x="236" y="196" type="line"/>
      <point x="257" y="103" type="line" smooth="yes"/>
      <point x="288" y="-38"/>
      <point x="466" y="-153"/>
      <point x="586" y="-153" type="qcurve" smooth="yes"/>
      <point x="736" y="-153"/>
      <point x="872" y="-18"/>
      <point x="872" y="92" type="qcurve" smooth="yes"/>
      <point x="872" y="229"/>
      <point x="681" y="363"/>
      <point x="481" y="430" type="qcurve" smooth="yes"/>
      <point x="328" y="481"/>
      <point x="171" y="643"/>
      <point x="171" y="767" type="qcurve" smooth="yes"/>
      <point x="171" y="863"/>
      <point x="241" y="1003"/>
      <point x="308" y="1054" type="qcurve"/>
      <point x="267" y="1087"/>
      <point x="223" y="1176"/>
      <point x="223" y="1241" type="qcurve" smooth="yes"/>
      <point x="223" y="1349"/>
      <point x="382" y="1512"/>
      <point x="526" y="1512" type="qcurve" smooth="yes"/>
      <point x="605" y="1512"/>
      <point x="714" y="1472"/>
      <point x="754" y="1449" type="qcurve"/>
      <point x="768" y="1480" type="line"/>
      <point x="847" y="1480" type="line"/>
      <point x="847" y="1184" type="line"/>
      <point x="754" y="1184" type="line"/>
      <point x="730" y="1297" type="line" smooth="yes"/>
      <point x="718" y="1351"/>
      <point x="605" y="1419"/>
      <point x="516" y="1419" type="qcurve" smooth="yes"/>
      <point x="414" y="1419"/>
      <point x="318" y="1338"/>
      <point x="318" y="1275" type="qcurve" smooth="yes"/>
      <point x="318" y="1200"/>
      <point x="415" y="1112"/>
      <point x="589" y="1067" type="qcurve" smooth="yes"/>
      <point x="757" y="1023"/>
      <point x="936" y="896"/>
      <point x="936" y="774" type="qcurve" smooth="yes"/>
      <point x="936" y="664"/>
      <point x="817" y="507"/>
      <point x="695" y="479" type="qcurve"/>
      <point x="822" y="426"/>
      <point x="965" y="263"/>
    </contour>
    <contour>
      <point x="254" y="799" type="qcurve" smooth="yes"/>
      <point x="254" y="713"/>
      <point x="375" y="594"/>
      <point x="530" y="539" type="qcurve"/>
      <point x="688" y="546"/>
      <point x="849" y="655"/>
      <point x="849" y="748" type="qcurve" smooth="yes"/>
      <point x="849" y="836"/>
      <point x="690" y="923"/>
      <point x="534" y="961" type="qcurve" smooth="yes"/>
      <point x="493" y="973"/>
      <point x="437" y="990"/>
      <point x="409" y="999" type="qcurve"/>
      <point x="328" y="974"/>
      <point x="254" y="876"/>
    </contour>
  </outline>
</glyph>
<glyph name="copyright" format="2">
  <advance width="2100"/>
  <unicode hex="00A9"/>
  <outline>
    <contour>
      <point x="575" y="662" type="qcurve" smooth="yes"/>
      <point x="575" y="901"/>
      <point x="836" y="1209"/>
      <point x="1062" y="1209" type="qcurve" smooth="yes"/>
      <point x="1125" y="1209"/>
      <point x="1246" y="1176"/>
      <point x="1276" y="1152" type="qcurve"/>
      <point x="1308" y="1206" type="line"/>
      <point x="1396" y="1177" type="line"/>
      <point x="1412" y="851" type="line"/>
      <point x="1314" y="834" type="line"/>
      <point x="1265" y="1019" type="line"/>
      <point x="1223" y="1063"/>
      <point x="1120" y="1116"/>
      <point x="1063" y="1116" type="qcurve" smooth="yes"/>
      <point x="924" y="1116"/>
      <point x="755" y="898"/>
      <point x="755" y="697" type="qcurve" smooth="yes"/>
      <point x="755" y="488"/>
      <point x="955" y="274"/>
      <point x="1087" y="274" type="qcurve" smooth="yes"/>
      <point x="1205" y="274"/>
      <point x="1396" y="381"/>
      <point x="1445" y="443" type="qcurve"/>
      <point x="1496" y="380" type="line"/>
      <point x="1434" y="287"/>
      <point x="1196" y="165"/>
      <point x="1086" y="165" type="qcurve" smooth="yes"/>
      <point x="855" y="165"/>
      <point x="575" y="433"/>
    </contour>
    <contour>
      <point x="127" y="685" type="qcurve" smooth="yes"/>
      <point x="127" y="1061"/>
      <point x="648" y="1570"/>
      <point x="1052" y="1570" type="qcurve" smooth="yes"/>
      <point x="1454" y="1570"/>
      <point x="1973" y="1087"/>
      <point x="1973" y="706" type="qcurve" smooth="yes"/>
      <point x="1973" y="288"/>
      <point x="1461" y="-242"/>
      <point x="1064" y="-242" type="qcurve" smooth="yes"/>
      <point x="655" y="-242"/>
      <point x="127" y="276"/>
    </contour>
    <contour>
      <point x="265" y="682" type="qcurve" smooth="yes"/>
      <point x="265" y="325"/>
      <point x="734" y="-138"/>
      <point x="1077" y="-138" type="qcurve" smooth="yes"/>
      <point x="1412" y="-138"/>
      <point x="1835" y="349"/>
      <point x="1835" y="699" type="qcurve" smooth="yes"/>
      <point x="1835" y="1019"/>
      <point x="1392" y="1466"/>
      <point x="1035" y="1466" type="qcurve" smooth="yes"/>
      <point x="694" y="1466"/>
      <point x="265" y="1008"/>
    </contour>
  </outline>
</glyph>
<glyph name="ordfeminine" format="2">
  <advance width="969"/>
  <unicode hex="00AA"/>
  <outline>
    <contour>
      <point x="96" y="888" type="qcurve" smooth="yes"/>
      <point x="96" y="1003"/>
      <point x="389" y="1175"/>
      <point x="689" y="1207" type="qcurve"/>
      <point x="695" y="1134" type="line"/>
      <point x="475" y="1110"/>
      <point x="204" y="1014"/>
      <point x="204" y="899" type="qcurve" smooth="yes"/>
      <point x="204" y="829"/>
      <point x="308" y="766"/>
      <point x="380" y="766" type="qcurve" smooth="yes"/>
      <point x="456" y="766"/>
      <point x="628" y="841"/>
      <point x="664" y="886" type="qcurve"/>
      <point x="666" y="1202" type="line" smooth="yes"/>
      <point x="667" y="1362"/>
      <point x="563" y="1456"/>
      <point x="466" y="1456" type="qcurve" smooth="yes"/>
      <point x="373" y="1456"/>
      <point x="253" y="1410"/>
      <point x="221" y="1383" type="qcurve"/>
      <point x="236" y="1370"/>
      <point x="253" y="1340"/>
      <point x="255" y="1327" type="qcurve" smooth="yes"/>
      <point x="259" y="1301"/>
      <point x="228" y="1266"/>
      <point x="200" y="1266" type="qcurve" smooth="yes"/>
      <point x="171" y="1266"/>
      <point x="136" y="1316"/>
      <point x="136" y="1355" type="qcurve" smooth="yes"/>
      <point x="136" y="1430"/>
      <point x="326" y="1543"/>
      <point x="469" y="1543" type="qcurve" smooth="yes"/>
      <point x="616" y="1543"/>
      <point x="768" y="1385"/>
      <point x="769" y="1194" type="qcurve" smooth="yes"/>
      <point x="771" y="780" type="line"/>
      <point x="901" y="751" type="line"/>
      <point x="901" y="684" type="line"/>
      <point x="727" y="684" type="line"/>
      <point x="683" y="734" type="line"/>
      <point x="672" y="789" type="line"/>
      <point x="628" y="744"/>
      <point x="445" y="670"/>
      <point x="343" y="670" type="qcurve" smooth="yes"/>
      <point x="234" y="670"/>
      <point x="96" y="793"/>
    </contour>
  </outline>
</glyph>
<glyph name="guillemotleft" format="2">
  <advance width="1397"/>
  <unicode hex="00AB"/>
  <outline>
    <contour>
      <point x="25" y="624" type="line"/>
      <point x="121" y="674"/>
      <point x="674" y="973"/>
      <point x="775" y="1027" type="qcurve" smooth="yes"/>
      <point x="835" y="1060"/>
      <point x="898" y="975"/>
      <point x="842" y="941" type="qcurve" smooth="yes"/>
      <point x="728" y="866"/>
      <point x="234" y="629"/>
      <point x="199" y="611" type="qcurve"/>
      <point x="234" y="591"/>
      <point x="730" y="342"/>
      <point x="843" y="266" type="qcurve" smooth="yes"/>
      <point x="898" y="233"/>
      <point x="850" y="144"/>
      <point x="788" y="173" type="qcurve" smooth="yes"/>
      <point x="699" y="215"/>
      <point x="111" y="534"/>
      <point x="25" y="584" type="qcurve"/>
    </contour>
    <contour>
      <point x="511" y="624" type="line"/>
      <point x="607" y="674"/>
      <point x="1160" y="973"/>
      <point x="1261" y="1027" type="qcurve" smooth="yes"/>
      <point x="1321" y="1060"/>
      <point x="1384" y="975"/>
      <point x="1328" y="941" type="qcurve" smooth="yes"/>
      <point x="1215" y="866"/>
      <point x="720" y="629"/>
      <point x="685" y="611" type="qcurve"/>
      <point x="720" y="591"/>
      <point x="1217" y="342"/>
      <point x="1329" y="266" type="qcurve" smooth="yes"/>
      <point x="1385" y="233"/>
      <point x="1336" y="144"/>
      <point x="1274" y="173" type="qcurve" smooth="yes"/>
      <point x="1185" y="215"/>
      <point x="597" y="534"/>
      <point x="511" y="584" type="qcurve"/>
    </contour>
  </outline>
</glyph>
<glyph name="logicalnot" format="2">
  <advance width="1205"/>
  <unicode hex="00AC"/>
  <outline>
    <contour>
      <point x="101" y="696" type="line"/>
      <point x="1080" y="696" type="line"/>
      <point x="1080" y="200" type="line"/>
      <point x="947" y="200" type="line"/>
      <point x="947" y="569" type="line"/>
      <point x="101" y="569" type="line"/>
    </contour>
  </outline>
</glyph>
<glyph name="registered" format="2">
  <advance width="2100"/>
  <unicode hex="00AE"/>
  <outline>
    <contour>
      <point x="132" y="682" type="qcurve" smooth="yes"/>
      <point x="132" y="1058"/>
      <point x="650" y="1570"/>
      <point x="1054" y="1570" type="qcurve" smooth="yes"/>
      <point x="1456" y="1570"/>
      <point x="1973" y="1081"/>
      <point x="1973" y="699" type="qcurve" smooth="yes"/>
      <point x="1973" y="285"/>
      <point x="1461" y="-242"/>
      <point x="1064" y="-242" type="qcurve" smooth="yes"/>
      <point x="655" y="-242"/>
      <point x="132" y="273"/>
    </contour>
    <contour>
      <point x="270" y="678" type="qcurve" smooth="yes"/>
      <point x="270" y="321"/>
      <point x="734" y="-138"/>
      <point x="1077" y="-138" type="qcurve" smooth="yes"/>
      <point x="1412" y="-138"/>
      <point x="1835" y="346"/>
      <point x="1835" y="692" type="qcurve" smooth="yes"/>
      <point x="1835" y="1015"/>
      <point x="1392" y="1466"/>
      <point x="1038" y="1466" type="qcurve" smooth="yes"/>
      <point x="695" y="1466"/>
      <point x="270" y="1004"/>
    </contour>
    <contour>
      <point x="607" y="176" type="line"/>
      <point x="597" y="266" type="line"/>
      <point x="728" y="290" type="line"/>
      <point x="739" y="723" type="line"/>
      <point x="728" y="1088" type="line"/>
      <point x="587" y="1111" type="line"/>
      <point x="587" y="1209" type="line"/>
      <point x="1074" y="1209" type="line" smooth="yes"/>
      <point x="1232" y="1209"/>
      <point x="1385" y="1082"/>
      <point x="1385" y="968" type="qcurve" smooth="yes"/>
      <point x="1385" y="841"/>
      <point x="1198" y="664"/>
      <point x="1072" y="664" type="qcurve" smooth="yes"/>
      <point x="1021" y="664"/>
      <point x="881" y="673"/>
      <point x="857" y="673" type="qcurve"/>
      <point x="857" y="745" type="line"/>
      <point x="1014" y="744" type="line" smooth="yes"/>
      <point x="1133" y="743"/>
      <point x="1217" y="863"/>
      <point x="1217" y="962" type="qcurve" smooth="yes"/>
      <point x="1217" y="1049"/>
      <point x="1125" y="1124"/>
      <point x="1022" y="1124" type="qcurve" smooth="yes"/>
      <point x="915" y="1124" type="line"/>
      <point x="894" y="1111" type="line"/>
      <point x="881" y="723" type="line"/>
      <point x="892" y="290" type="line"/>
      <point x="1038" y="266" type="line"/>
      <point x="1038" y="176" type="line"/>
    </contour>
    <contour>
      <point x="980" y="703" type="line"/>
      <point x="1133" y="729" type="line"/>
      <point x="1376" y="393" type="line" smooth="yes"/>
      <point x="1449" y="292"/>
      <point x="1553" y="266"/>
      <point x="1598" y="266" type="qcurve"/>
      <point x="1598" y="176" type="line"/>
      <point x="1393" y="176" type="line"/>
      <point x="1351" y="190" type="line"/>
    </contour>
  </outline>
</glyph>
<glyph name="plusminus" format="2">
  <advance width="1205"/>
  <unicode hex="00B1"/>
  <outline>
    <contour>
      <point x="106" y="609" type="line"/>
      <point x="106" y="736" type="line"/>
      <point x="1099" y="736" type="line"/>
      <point x="1099" y="609" type="line"/>
    </contour>
    <contour>
      <point x="536" y="238" type="line"/>
      <point x="536" y="1129" type="line"/>
      <point x="669" y="1129" type="line"/>
      <point x="669" y="238" type="line"/>
    </contour>
    <contour>
      <point x="106" y="26" type="line"/>
      <point x="106" y="147" type="line"/>
      <point x="1099" y="147" type="line"/>
      <point x="1099" y="26" type="line"/>
    </contour>
  </outline>
</glyph>
<glyph name="twosuperior" format="2">
  <advance width="873"/>
  <unicode hex="00B2"/>
  <outline>
    <contour>
      <point x="106" y="671" type="line"/>
      <point x="104" y="777" type="line"/>
      <point x="123" y="851"/>
      <point x="256" y="1007"/>
      <point x="425" y="1083" type="qcurve" smooth="yes"/>
      <point x="564" y="1146"/>
      <point x="640" y="1235"/>
      <point x="636" y="1304" type="qcurve" smooth="yes"/>
      <point x="632" y="1364"/>
      <point x="532" y="1427"/>
      <point x="461" y="1427" type="qcurve" smooth="yes"/>
      <point x="362" y="1427"/>
      <point x="227" y="1380"/>
      <point x="159" y="1329" type="qcurve"/>
      <point x="98" y="1398" type="line"/>
      <point x="150" y="1449"/>
      <point x="312" y="1520"/>
      <point x="441" y="1520" type="qcurve" smooth="yes"/>
      <point x="570" y="1520"/>
      <point x="748" y="1413"/>
      <point x="748" y="1310" type="qcurve" smooth="yes"/>
      <point x="748" y="1200"/>
      <point x="598" y="1078"/>
      <point x="491" y="1031" type="qcurve" smooth="yes"/>
      <point x="344" y="967"/>
      <point x="231" y="871"/>
      <point x="219" y="822" type="qcurve"/>
      <point x="219" y="760" type="line"/>
      <point x="771" y="760" type="line"/>
      <point x="771" y="671" type="line"/>
    </contour>
  </outline>
</glyph>
<glyph name="threesuperior" format="2">
  <advance width="825"/>
  <unicode hex="00B3"/>
  <outline>
    <contour>
      <point x="68" y="739" type="qcurve"/>
      <point x="110" y="817" type="line"/>
      <point x="179" y="774"/>
      <point x="314" y="738"/>
      <point x="409" y="738" type="qcurve" smooth="yes"/>
      <point x="505" y="738"/>
      <point x="614" y="816"/>
      <point x="614" y="904" type="qcurve" smooth="yes"/>
      <point x="614" y="992"/>
      <point x="455" y="1067"/>
      <point x="301" y="1067" type="qcurve" smooth="yes"/>
      <point x="261" y="1067" type="line"/>
      <point x="248" y="1147" type="line"/>
      <point x="320" y="1150" type="line" smooth="yes"/>
      <point x="461" y="1156"/>
      <point x="584" y="1241"/>
      <point x="584" y="1317" type="qcurve" smooth="yes"/>
      <point x="584" y="1373"/>
      <point x="507" y="1433"/>
      <point x="429" y="1433" type="qcurve" smooth="yes"/>
      <point x="341" y="1433"/>
      <point x="217" y="1395"/>
      <point x="152" y="1359" type="qcurve"/>
      <point x="115" y="1422" type="line"/>
      <point x="174" y="1468"/>
      <point x="322" y="1520"/>
      <point x="421" y="1520" type="qcurve" smooth="yes"/>
      <point x="551" y="1520"/>
      <point x="694" y="1418"/>
      <point x="694" y="1337" type="qcurve" smooth="yes"/>
      <point x="694" y="1252"/>
      <point x="576" y="1142"/>
      <point x="460" y="1118" type="qcurve"/>
      <point x="460" y="1114" type="line"/>
      <point x="582" y="1111"/>
      <point x="721" y="1001"/>
      <point x="721" y="905" type="qcurve" smooth="yes"/>
      <point x="721" y="783"/>
      <point x="539" y="649"/>
      <point x="386" y="649" type="qcurve" smooth="yes"/>
      <point x="299" y="649"/>
      <point x="124" y="697"/>
    </contour>
  </outline>
</glyph>
<glyph name="micro" format="2">
  <advance width="1240"/>
  <unicode hex="00B5"/>
  <outline>
    <contour>
      <point x="11" y="-317" type="line"/>
      <point x="51" y="-292" type="line"/>
      <point x="88" y="-134"/>
      <point x="146" y="112"/>
      <point x="159" y="181" type="qcurve" smooth="yes"/>
      <point x="272" y="822" type="line"/>
      <point x="129" y="819" type="line"/>
      <point x="131" y="915" type="line"/>
      <point x="340" y="1002" type="line"/>
      <point x="374" y="1002" type="line"/>
      <point x="404" y="944" type="line"/>
      <point x="280" y="291" type="line" smooth="yes"/>
      <point x="263" y="206"/>
      <point x="321" y="146"/>
      <point x="412" y="146" type="qcurve" smooth="yes"/>
      <point x="521" y="146"/>
      <point x="770" y="264"/>
      <point x="841" y="331" type="qcurve"/>
      <point x="959" y="976" type="line"/>
      <point x="950" y="1000" type="line"/>
      <point x="1044" y="1015" type="line"/>
      <point x="1074" y="958" type="line"/>
      <point x="956" y="362" type="line"/>
      <point x="930" y="134" type="line"/>
      <point x="1066" y="134" type="line"/>
      <point x="1068" y="47" type="line"/>
      <point x="862" y="-15" type="line"/>
      <point x="820" y="76" type="line"/>
      <point x="828" y="215" type="line"/>
      <point x="739" y="136"/>
      <point x="470" y="23"/>
      <point x="355" y="23" type="qcurve" smooth="yes"/>
      <point x="317" y="23"/>
      <point x="260" y="35"/>
      <point x="230" y="48" type="qcurve"/>
      <point x="173" y="-274" type="line"/>
      <point x="319" y="-282" type="line"/>
      <point x="311" y="-371" type="line"/>
      <point x="34" y="-399" type="line"/>
    </contour>
  </outline>
</glyph>
<glyph name="paragraph" format="2">
  <advance width="1252"/>
  <unicode hex="00B6"/>
  <outline>
    <contour>
      <point x="1118" y="100" type="line"/>
      <point x="1118" y="0" type="line"/>
      <point x="347" y="0" type="line"/>
      <point x="347" y="100" type="line"/>
      <point x="844" y="132" type="line"/>
      <point x="845" y="787" type="line"/>
      <point x="797" y="780"/>
      <point x="602" y="773"/>
      <point x="539" y="773" type="qcurve" smooth="yes"/>
      <point x="317" y="773"/>
      <point x="58" y="989"/>
      <point x="58" y="1155" type="qcurve" smooth="yes"/>
      <point x="58" y="1326"/>
      <point x="303" y="1500"/>
      <point x="514" y="1500" type="qcurve" smooth="yes"/>
      <point x="1171" y="1500" type="line"/>
      <point x="1171" y="1386" type="line"/>
      <point x="950" y="1352" type="line"/>
      <point x="948" y="754" type="line"/>
      <point x="950" y="137" type="line"/>
    </contour>
    <contour>
      <point x="670" y="46" type="line"/>
      <point x="555" y="46" type="line"/>
      <point x="557" y="907" type="line"/>
      <point x="668" y="907" type="line"/>
    </contour>
  </outline>
</glyph>
<glyph name="periodcentered" format="2">
  <advance width="557"/>
  <unicode hex="00B7"/>
  <outline>
    <contour>
      <point x="174" y="674" type="qcurve" smooth="yes"/>
      <point x="174" y="716"/>
      <point x="233" y="779"/>
      <point x="279" y="779" type="qcurve" smooth="yes"/>
      <point x="324" y="779"/>
      <point x="383" y="716"/>
      <point x="383" y="674" type="qcurve" smooth="yes"/>
      <point x="383" y="633"/>
      <point x="324" y="570"/>
      <point x="279" y="570" type="qcurve" smooth="yes"/>
      <point x="233" y="570"/>
      <point x="174" y="633"/>
    </contour>
  </outline>
</glyph>
<glyph name="onesuperior" format="2">
  <advance width="836"/>
  <unicode hex="00B9"/>
  <outline>
    <contour>
      <point x="140" y="670" type="line"/>
      <point x="140" y="754" type="line"/>
      <point x="359" y="784" type="line"/>
      <point x="362" y="1109" type="line"/>
      <point x="359" y="1390" type="line"/>
      <point x="138" y="1409" type="line"/>
      <point x="138" y="1480" type="line"/>
      <point x="429" y="1513" type="line"/>
      <point x="467" y="1478" type="line"/>
      <point x="461" y="1109" type="line"/>
      <point x="462" y="784" type="line"/>
      <point x="682" y="754" type="line"/>
      <point x="682" y="670" type="line"/>
    </contour>
  </outline>
</glyph>
<glyph name="ordmasculine" format="2">
  <advance width="1080"/>
  <unicode hex="00BA"/>
  <outline>
    <contour>
      <point x="98" y="1094" type="qcurve" smooth="yes"/>
      <point x="98" y="1280"/>
      <point x="336" y="1542"/>
      <point x="539" y="1542" type="qcurve" smooth="yes"/>
      <point x="741" y="1542"/>
      <point x="982" y="1297"/>
      <point x="982" y="1099" type="qcurve" smooth="yes"/>
      <point x="982" y="914"/>
      <point x="747" y="646"/>
      <point x="545" y="646" type="qcurve" smooth="yes"/>
      <point x="341" y="646"/>
      <point x="98" y="894"/>
    </contour>
    <contour>
      <point x="220" y="1111" type="qcurve" smooth="yes"/>
      <point x="220" y="948"/>
      <point x="396" y="718"/>
      <point x="536" y="718" type="qcurve" smooth="yes"/>
      <point x="687" y="718"/>
      <point x="855" y="928"/>
      <point x="855" y="1098" type="qcurve" smooth="yes"/>
      <point x="855" y="1256"/>
      <point x="679" y="1465"/>
      <point x="539" y="1465" type="qcurve" smooth="yes"/>
      <point x="386" y="1465"/>
      <point x="219" y="1276"/>
    </contour>
  </outline>
</glyph>
<glyph name="guillemotright" format="2">
  <advance width="1295"/>
  <unicode hex="00BB"/>
  <outline>
    <contour>
      <point x="1263" y="580" type="line"/>
      <point x="1178" y="531"/>
      <point x="686" y="234"/>
      <point x="593" y="180" type="qcurve" smooth="yes"/>
      <point x="534" y="143"/>
      <point x="466" y="224"/>
      <point x="521" y="263" type="qcurve" smooth="yes"/>
      <point x="630" y="343"/>
      <point x="1060" y="579"/>
      <point x="1090" y="596" type="qcurve"/>
      <point x="1060" y="615"/>
      <point x="628" y="859"/>
      <point x="519" y="938" type="qcurve" smooth="yes"/>
      <point x="464" y="974"/>
      <point x="517" y="1060"/>
      <point x="578" y="1029" type="qcurve" smooth="yes"/>
      <point x="665" y="983"/>
      <point x="1185" y="668"/>
      <point x="1263" y="620" type="qcurve"/>
    </contour>
    <contour>
      <point x="803" y="580" type="line"/>
      <point x="718" y="531"/>
      <point x="226" y="234"/>
      <point x="133" y="180" type="qcurve" smooth="yes"/>
      <point x="74" y="143"/>
      <point x="6" y="224"/>
      <point x="61" y="263" type="qcurve" smooth="yes"/>
      <point x="170" y="343"/>
      <point x="600" y="579"/>
      <point x="630" y="596" type="qcurve"/>
      <point x="600" y="615"/>
      <point x="168" y="859"/>
      <point x="59" y="938" type="qcurve" smooth="yes"/>
      <point x="4" y="974"/>
      <point x="57" y="1060"/>
      <point x="118" y="1029" type="qcurve" smooth="yes"/>
      <point x="205" y="983"/>
      <point x="725" y="668"/>
      <point x="803" y="620" type="qcurve"/>
    </contour>
  </outline>
</glyph>
<glyph name="questiondown" format="2">
  <advance width="972"/>
  <unicode hex="00BF"/>
  <outline>
    <contour>
      <point x="677" y="1244" type="qcurve" smooth="yes"/>
      <point x="677" y="1202"/>
      <point x="618" y="1140"/>
      <point x="572" y="1140" type="qcurve" smooth="yes"/>
      <point x="526" y="1140"/>
      <point x="467" y="1202"/>
      <point x="467" y="1244" type="qcurve" smooth="yes"/>
      <point x="467" y="1286"/>
      <point x="526" y="1348"/>
      <point x="572" y="1348" type="qcurve" smooth="yes"/>
      <point x="618" y="1348"/>
      <point x="677" y="1286"/>
    </contour>
    <contour>
      <point x="913" y="77" type="qcurve" smooth="yes"/>
      <point x="913" y="-54"/>
      <point x="691" y="-214"/>
      <point x="483" y="-214" type="qcurve" smooth="yes"/>
      <point x="284" y="-214"/>
      <point x="46" y="-17"/>
      <point x="46" y="163" type="qcurve" smooth="yes"/>
      <point x="46" y="359"/>
      <point x="241" y="535"/>
      <point x="357" y="591" type="qcurve" smooth="yes"/>
      <point x="432" y="626"/>
      <point x="543" y="722"/>
      <point x="542" y="804" type="qcurve" smooth="yes"/>
      <point x="542" y="891" type="line"/>
      <point x="626" y="891" type="line"/>
      <point x="639" y="807" type="line" smooth="yes"/>
      <point x="651" y="732"/>
      <point x="556" y="574"/>
      <point x="430" y="507" type="qcurve" smooth="yes"/>
      <point x="325" y="452"/>
      <point x="175" y="326"/>
      <point x="175" y="177" type="qcurve" smooth="yes"/>
      <point x="175" y="34"/>
      <point x="359" y="-121"/>
      <point x="504" y="-121" type="qcurve" smooth="yes"/>
      <point x="647" y="-121"/>
      <point x="807" y="-31"/>
      <point x="807" y="30" type="qcurve" smooth="yes"/>
      <point x="807" y="61"/>
      <point x="719" y="102"/>
      <point x="717" y="138" type="qcurve" smooth="yes"/>
      <point x="715" y="167"/>
      <point x="760" y="214"/>
      <point x="804" y="214" type="qcurve" smooth="yes"/>
      <point x="852" y="214"/>
      <point x="913" y="144"/>
    </contour>
  </outline>
</glyph>
<glyph name="AE" format="2">
  <advance width="2191"/>
  <unicode hex="00C6"/>
  <anchor x="1253" y="1500" name="top"/>
  <outline>
    <contour>
      <point x="-25" y="0" type="line"/>
      <point x="-25" y="98" type="line"/>
      <point x="184" y="133" type="line"/>
      <point x="465" y="538" type="line"/>
      <point x="1028" y="1369" type="line"/>
      <point x="890" y="1388" type="line"/>
      <point x="890" y="1500" type="line"/>
      <point x="2007" y="1500" type="line"/>
      <point x="2007" y="1161" type="line"/>
      <point x="1911" y="1161" type="line"/>
      <point x="1876" y="1401" type="line"/>
      <point x="1260" y="1401" type="line"/>
      <point x="1231" y="1381" type="line"/>
      <point x="1229" y="783" type="line"/>
      <point x="1231" y="115" type="line"/>
      <point x="1261" y="91" type="line"/>
      <point x="1939" y="91" type="line"/>
      <point x="2015" y="369" type="line"/>
      <point x="2111" y="369" type="line"/>
      <point x="2071" y="0" type="line"/>
      <point x="879" y="0" type="line"/>
      <point x="879" y="98" type="line"/>
      <point x="1107" y="135" type="line"/>
      <point x="1109" y="783" type="line"/>
      <point x="1107" y="1278" type="line"/>
      <point x="1083" y="1304" type="line"/>
      <point x="551" y="500" type="line"/>
      <point x="312" y="128" type="line"/>
      <point x="512" y="98" type="line"/>
      <point x="512" y="0" type="line"/>
    </contour>
    <contour>
      <point x="469" y="462" type="line"/>
      <point x="534" y="563" type="line"/>
      <point x="852" y="550" type="line"/>
      <point x="852" y="462" type="line"/>
    </contour>
    <contour>
      <point x="852" y="550" type="line"/>
      <point x="1179" y="564" type="line"/>
      <point x="1179" y="462" type="line"/>
      <point x="852" y="462" type="line"/>
    </contour>
    <contour>
      <point x="1170" y="745" type="line"/>
      <point x="1170" y="825" type="line"/>
      <point x="1730" y="835" type="line"/>
      <point x="1765" y="1001" type="line"/>
      <point x="1861" y="1001" type="line"/>
      <point x="1861" y="571" type="line"/>
      <point x="1765" y="571" type="line"/>
      <point x="1730" y="735" type="line"/>
    </contour>
  </outline>
</glyph>
<glyph name="multiply" format="2">
  <advance width="1205"/>
  <unicode hex="00D7"/>
  <outline>
    <contour>
      <point x="286" y="233" type="line"/>
      <point x="202" y="317" type="line"/>
      <point x="917" y="1033" type="line"/>
      <point x="1002" y="948" type="line"/>
    </contour>
    <contour>
      <point x="914" y="228" type="line"/>
      <point x="198" y="943" type="line"/>
      <point x="291" y="1036" type="line"/>
      <point x="1007" y="321" type="line"/>
    </contour>
  </outline>
</glyph>
<glyph name="Thorn" format="2">
  <advance width="1301"/>
  <unicode hex="00DE"/>
  <outline>
    <contour>
      <point x="88" y="0" type="line"/>
      <point x="88" y="98" type="line"/>
      <point x="316" y="135" type="line"/>
      <point x="318" y="754" type="line"/>
      <point x="316" y="1354" type="line"/>
      <point x="88" y="1388" type="line"/>
      <point x="88" y="1500" type="line"/>
      <point x="689" y="1500" type="line"/>
      <point x="689" y="1402" type="line"/>
      <point x="442" y="1362" type="line"/>
      <point x="440" y="1251" type="line"/>
      <point x="718" y="1251" type="line" smooth="yes"/>
      <point x="966" y="1251"/>
      <point x="1225" y="1041"/>
      <point x="1225" y="836" type="qcurve" smooth="yes"/>
      <point x="1225" y="636"/>
      <point x="951" y="377"/>
      <point x="699" y="377" type="qcurve" smooth="yes"/>
      <point x="594" y="377"/>
      <point x="438" y="391"/>
      <point x="384" y="401" type="qcurve"/>
      <point x="391" y="491" type="line"/>
      <point x="454" y="479"/>
      <point x="585" y="472"/>
      <point x="699" y="472" type="qcurve" smooth="yes"/>
      <point x="891" y="472"/>
      <point x="1091" y="666"/>
      <point x="1091" y="837" type="qcurve" smooth="yes"/>
      <point x="1091" y="994"/>
      <point x="895" y="1152"/>
      <point x="710" y="1152" type="qcurve" smooth="yes"/>
      <point x="441" y="1152" type="line"/>
      <point x="439" y="764" type="line"/>
      <point x="441" y="130" type="line"/>
      <point x="689" y="98" type="line"/>
      <point x="689" y="0" type="line"/>
    </contour>
  </outline>
</glyph>
<glyph name="germandbls" format="2">
  <advance width="1407"/>
  <unicode hex="00DF"/>
  <outline>
    <contour>
      <point x="1103" y="1224" type="qcurve" smooth="yes"/>
      <point x="1103" y="1092"/>
      <point x="960" y="974"/>
      <point x="858" y="940" type="qcurve" smooth="yes"/>
      <point x="791" y="916"/>
      <point x="689" y="854"/>
      <point x="689" y="791" type="qcurve" smooth="yes"/>
      <point x="689" y="723"/>
      <point x="820" y="639"/>
      <point x="962" y="601" type="qcurve" smooth="yes"/>
      <point x="1138" y="556"/>
      <point x="1333" y="419"/>
      <point x="1333" y="281" type="qcurve" smooth="yes"/>
      <point x="1333" y="160"/>
      <point x="1138" y="-23"/>
      <point x="980" y="-23" type="qcurve" smooth="yes"/>
      <point x="874" y="-23"/>
      <point x="733" y="31"/>
      <point x="673" y="73" type="qcurve"/>
      <point x="633" y="0" type="line"/>
      <point x="552" y="0" type="line"/>
      <point x="552" y="341" type="line"/>
      <point x="647" y="341" type="line"/>
      <point x="660" y="280" type="line" smooth="yes"/>
      <point x="680" y="182"/>
      <point x="858" y="70"/>
      <point x="972" y="70" type="qcurve" smooth="yes"/>
      <point x="1072" y="70"/>
      <point x="1235" y="162"/>
      <point x="1235" y="253" type="qcurve" smooth="yes"/>
      <point x="1235" y="352"/>
      <point x="1077" y="451"/>
      <point x="919" y="496" type="qcurve" smooth="yes"/>
      <point x="740" y="547"/>
      <point x="602" y="664"/>
      <point x="602" y="763" type="qcurve" smooth="yes"/>
      <point x="602" y="869"/>
      <point x="717" y="984"/>
      <point x="813" y="1020" type="qcurve" smooth="yes"/>
      <point x="903" y="1053"/>
      <point x="992" y="1139"/>
      <point x="992" y="1215" type="qcurve" smooth="yes"/>
      <point x="992" y="1299"/>
      <point x="860" y="1407"/>
      <point x="716" y="1407" type="qcurve" smooth="yes"/>
      <point x="548" y="1407"/>
      <point x="357" y="1240"/>
      <point x="358" y="1065" type="qcurve"/>
      <point x="362" y="527" type="line"/>
      <point x="375" y="45" type="line"/>
      <point x="346" y="0" type="line"/>
      <point x="80" y="0" type="line"/>
      <point x="80" y="96" type="line"/>
      <point x="248" y="131" type="line"/>
      <point x="249" y="527" type="line"/>
      <point x="251" y="1088" type="line" smooth="yes"/>
      <point x="252" y="1271"/>
      <point x="504" y="1502"/>
      <point x="716" y="1502" type="qcurve" smooth="yes"/>
      <point x="904" y="1502"/>
      <point x="1103" y="1347"/>
    </contour>
  </outline>
</glyph>
<glyph name="eth" format="2">
  <advance width="1237"/>
  <unicode hex="00F0"/>
  <outline>
    <contour>
      <point x="90" y="490" type="qcurve" smooth="yes"/>
      <point x="90" y="707"/>
      <point x="380" y="1004"/>
      <point x="615" y="1004" type="qcurve" smooth="yes"/>
      <point x="852" y="1004"/>
      <point x="1090" y="721"/>
      <point x="1097" y="498" type="qcurve"/>
      <point x="1014" y="498" type="line"/>
      <point x="1034" y="669"/>
      <point x="819" y="907"/>
      <point x="611" y="907" type="qcurve" smooth="yes"/>
      <point x="418" y="907"/>
      <point x="212" y="699"/>
      <point x="214" y="510" type="qcurve" smooth="yes"/>
      <point x="215" y="311"/>
      <point x="431" y="69"/>
      <point x="608" y="70" type="qcurve" smooth="yes"/>
      <point x="812" y="71"/>
      <point x="1021" y="345"/>
      <point x="1021" y="621" type="qcurve" smooth="yes"/>
      <point x="1021" y="984"/>
      <point x="604" y="1396"/>
      <point x="256" y="1493" type="qcurve"/>
      <point x="286" y="1576" type="line"/>
      <point x="747" y="1469"/>
      <point x="1143" y="949"/>
      <point x="1143" y="624" type="qcurve" smooth="yes"/>
      <point x="1143" y="325"/>
      <point x="868" y="-22"/>
      <point x="616" y="-22" type="qcurve" smooth="yes"/>
      <point x="382" y="-22"/>
      <point x="90" y="257"/>
    </contour>
    <contour>
      <point x="437" y="1211" type="line"/>
      <point x="976" y="1527" type="line"/>
      <point x="1035" y="1449" type="line"/>
      <point x="496" y="1132" type="line"/>
    </contour>
  </outline>
</glyph>
<glyph name="divide" format="2">
  <advance width="1205"/>
  <unicode hex="00F7"/>
  <outline>
    <contour>
      <point x="106" y="569" type="line"/>
      <point x="106" y="696" type="line"/>
      <point x="1099" y="696" type="line"/>
      <point x="1099" y="569" type="line"/>
    </contour>
    <contour>
      <point x="507" y="281" type="qcurve" smooth="yes"/>
      <point x="507" y="319"/>
      <point x="561" y="376"/>
      <point x="603" y="376" type="qcurve" smooth="yes"/>
      <point x="644" y="376"/>
      <point x="698" y="319"/>
      <point x="698" y="281" type="qcurve" smooth="yes"/>
      <point x="698" y="244"/>
      <point x="644" y="186"/>
      <point x="603" y="186" type="qcurve" smooth="yes"/>
      <point x="561" y="186"/>
      <point x="507" y="244"/>
    </contour>
    <contour>
      <point x="507" y="984" type="qcurve" smooth="yes"/>
      <point x="507" y="1022"/>
      <point x="561" y="1080"/>
      <point x="603" y="1080" type="qcurve" smooth="yes"/>
      <point x="644" y="1080"/>
      <point x="698" y="1022"/>
      <point x="698" y="984" type="qcurve" smooth="yes"/>
      <point x="698" y="947"/>
      <point x="644" y="890"/>
      <point x="603" y="890" type="qcurve" smooth="yes"/>
      <point x="561" y="890"/>
      <point x="507" y="947"/>
    </contour>
  </outline>
</glyph>
<glyph name="thorn" format="2">
  <advance width="1198"/>
  <unicode hex="00FE"/>
  <outline>
    <contour>
      <point x="45" y="-480" type="line"/>
      <point x="45" y="-384" type="line"/>
      <point x="188" y="-349" type="line"/>
      <point x="190" y="427" type="line"/>
      <point x="189" y="1340" type="line"/>
      <point x="23" y="1370" type="line"/>
      <point x="23" y="1480" type="line"/>
      <point x="247" y="1514" type="line"/>
      <point x="279" y="1514" type="line"/>
      <point x="307" y="1482" type="line"/>
      <point x="307" y="905" type="line"/>
      <point x="360" y="978"/>
      <point x="538" y="1071"/>
      <point x="662" y="1071" type="qcurve" smooth="yes"/>
      <point x="854" y="1071"/>
      <point x="1104" y="792"/>
      <point x="1104" y="557" type="qcurve" smooth="yes"/>
      <point x="1104" y="301"/>
      <point x="844" y="-12"/>
      <point x="626" y="-12" type="qcurve" smooth="yes"/>
      <point x="519" y="-12"/>
      <point x="352" y="51"/>
      <point x="305" y="94" type="qcurve"/>
      <point x="306" y="-349" type="line"/>
      <point x="458" y="-384" type="line"/>
      <point x="458" y="-480" type="line"/>
    </contour>
    <contour>
      <point x="306" y="236" type="line"/>
      <point x="345" y="171"/>
      <point x="518" y="75"/>
      <point x="636" y="75" type="qcurve" smooth="yes"/>
      <point x="795" y="75"/>
      <point x="978" y="321"/>
      <point x="978" y="533" type="qcurve" smooth="yes"/>
      <point x="978" y="735"/>
      <point x="796" y="963"/>
      <point x="642" y="963" type="qcurve" smooth="yes"/>
      <point x="526" y="963"/>
      <point x="357" y="872"/>
      <point x="307" y="802" type="qcurve"/>
      <point x="303" y="447" type="line"/>
    </contour>
  </outline>
</glyph>
<glyph name="idotless" format="2">
  <advance width="638"/>
  <unicode hex="0131"/>
  <anchor x="323" y="0" name="bottom"/>
  <anchor x="316" y="1041" name="top"/>
  <anchor x="486" y="0" name="ogonek"/>
  <outline>
    <contour>
      <point x="83" y="0" type="line"/>
      <point x="83" y="96" type="line"/>
      <point x="271" y="131" type="line"/>
      <point x="272" y="530" type="line"/>
      <point x="268" y="877" type="line"/>
      <point x="78" y="907" type="line"/>
      <point x="78" y="1017" type="line"/>
      <point x="321" y="1051" type="line"/>
      <point x="368" y="1051" type="line"/>
      <point x="391" y="1012" type="line"/>
      <point x="387" y="530" type="line"/>
      <point x="388" y="131" type="line"/>
      <point x="576" y="96" type="line"/>
      <point x="576" y="0" type="line"/>
    </contour>
  </outline>
</glyph>
<glyph name="kgreenlandic" format="2">
  <advance width="1242"/>
  <unicode hex="0138"/>
  <outline>
    <contour>
      <point x="101" y="0" type="line"/>
      <point x="101" y="96" type="line"/>
      <point x="240" y="131" type="line"/>
      <point x="242" y="554" type="line"/>
      <point x="240" y="920" type="line"/>
      <point x="101" y="955" type="line"/>
      <point x="101" y="1051" type="line"/>
      <point x="496" y="1051" type="line"/>
      <point x="496" y="955" type="line"/>
      <point x="358" y="920" type="line"/>
      <point x="356" y="533" type="line"/>
      <point x="358" y="131" type="line"/>
      <point x="496" y="96" type="line"/>
      <point x="496" y="0" type="line"/>
    </contour>
    <contour>
      <point x="394" y="468" type="line"/>
      <point x="394" y="573" type="line"/>
      <point x="831" y="915" type="line"/>
      <point x="711" y="951" type="line"/>
      <point x="714" y="1051" type="line"/>
      <point x="1110" y="1051" type="line"/>
      <point x="1110" y="951" type="line"/>
      <point x="947" y="910" type="line"/>
    </contour>
    <contour>
      <point x="487" y="608" type="line"/>
      <point x="594" y="655" type="line"/>
      <point x="1027" y="131" type="line"/>
      <point x="1158" y="96" type="line"/>
      <point x="1158" y="0" type="line"/>
      <point x="846" y="0" type="line"/>
      <point x="828" y="95" type="line"/>
      <point x="885" y="127" type="line"/>
    </contour>
  </outline>
</glyph>
<glyph name="oe" format="2">
  <advance width="1973"/>
  <unicode hex="0153"/>
  <outline>
    <contour>
      <point x="90" y="525" type="qcurve" smooth="yes"/>
      <point x="90" y="753"/>
      <point x="373" y="1072"/>
      <point x="602" y="1072" type="qcurve" smooth="yes"/>
      <point x="781" y="1072"/>
      <point x="999" y="902"/>
      <point x="1034" y="792" type="qcurve"/>
      <point x="1043" y="792" type="line"/>
      <point x="1082" y="901"/>
      <point x="1285" y="1072"/>
      <point x="1449" y="1072" type="qcurve" smooth="yes"/>
      <point x="1636" y="1072"/>
      <point x="1858" y="835"/>
      <point x="1875" y="617" type="qcurve"/>
      <point x="1875" y="562" type="line"/>
      <point x="1074" y="562" type="line"/>
      <point x="1074" y="643" type="line"/>
      <point x="1760" y="643" type="line"/>
      <point x="1737" y="812"/>
      <point x="1566" y="977"/>
      <point x="1434" y="977" type="qcurve" smooth="yes"/>
      <point x="1272" y="977"/>
      <point x="1093" y="756"/>
      <point x="1094" y="547" type="qcurve" smooth="yes"/>
      <point x="1096" y="309"/>
      <point x="1323" y="87"/>
      <point x="1492" y="87" type="qcurve" smooth="yes"/>
      <point x="1591" y="87"/>
      <point x="1740" y="146"/>
      <point x="1798" y="199" type="qcurve"/>
      <point x="1841" y="148" type="line"/>
      <point x="1785" y="71"/>
      <point x="1595" y="-22"/>
      <point x="1474" y="-22" type="qcurve" smooth="yes"/>
      <point x="1302" y="-22"/>
      <point x="1076" y="142"/>
      <point x="1033" y="283" type="qcurve"/>
      <point x="1028" y="283" type="line"/>
      <point x="993" y="163"/>
      <point x="769" y="-22"/>
      <point x="610" y="-22" type="qcurve" smooth="yes"/>
      <point x="374" y="-22"/>
      <point x="90" y="281"/>
    </contour>
    <contour>
      <point x="216" y="548" type="qcurve" smooth="yes"/>
      <point x="217" y="348"/>
      <point x="426" y="70"/>
      <point x="597" y="70" type="qcurve" smooth="yes"/>
      <point x="781" y="70"/>
      <point x="980" y="323"/>
      <point x="980" y="532" type="qcurve" smooth="yes"/>
      <point x="980" y="724"/>
      <point x="772" y="975"/>
      <point x="599" y="975" type="qcurve" smooth="yes"/>
      <point x="413" y="975"/>
      <point x="215" y="747"/>
    </contour>
  </outline>
</glyph>
<glyph name="Schwa" format="2">
  <advance width="1542"/>
  <unicode hex="018F"/>
  <outline>
    <contour>
      <point x="90" y="1199" type="line"/>
      <point x="187" y="1343"/>
      <point x="498" y="1519"/>
      <point x="720" y="1519" type="qcurve" smooth="yes"/>
      <point x="1063" y="1519"/>
      <point x="1436" y="1094"/>
      <point x="1436" y="789" type="qcurve" smooth="yes"/>
      <point x="1436" y="445"/>
      <point x="1042" y="-30"/>
      <point x="744" y="-30" type="qcurve" smooth="yes"/>
      <point x="461" y="-30"/>
      <point x="139" y="281"/>
      <point x="139" y="578" type="qcurve" smooth="yes"/>
      <point x="139" y="683" type="line"/>
      <point x="1288" y="683" type="line"/>
      <point x="1310" y="571" type="line"/>
      <point x="722" y="579" type="line"/>
      <point x="274" y="573" type="line"/>
      <point x="274" y="473" type="line" smooth="yes"/>
      <point x="274" y="302"/>
      <point x="515" y="76"/>
      <point x="749" y="76" type="qcurve" smooth="yes"/>
      <point x="995" y="76"/>
      <point x="1307" y="454"/>
      <point x="1304" y="751" type="qcurve" smooth="yes"/>
      <point x="1302" y="1059"/>
      <point x="958" y="1399"/>
      <point x="716" y="1399" type="qcurve" smooth="yes"/>
      <point x="513" y="1399"/>
      <point x="236" y="1245"/>
      <point x="169" y="1137" type="qcurve"/>
    </contour>
  </outline>
</glyph>
<glyph name="florin" format="2">
  <advance width="723"/>
  <unicode hex="0192"/>
  <outline>
    <contour>
      <point x="422" y="-51" type="line" smooth="yes"/>
      <point x="424" y="-160"/>
      <point x="291" y="-309"/>
      <point x="192" y="-309" type="qcurve" smooth="yes"/>
      <point x="161" y="-309"/>
      <point x="89" y="-302"/>
      <point x="62" y="-295" type="qcurve" smooth="yes"/>
      <point x="39" y="-288" type="line"/>
      <point x="56" y="-197" type="line"/>
      <point x="84" y="-205" type="line" smooth="yes"/>
      <point x="97" y="-208"/>
      <point x="138" y="-214"/>
      <point x="160" y="-214" type="qcurve" smooth="yes"/>
      <point x="237" y="-214"/>
      <point x="320" y="-121"/>
      <point x="318" y="-31" type="qcurve" smooth="yes"/>
      <point x="298" y="877" type="line"/>
      <point x="60" y="887" type="line"/>
      <point x="51" y="966" type="line"/>
      <point x="291" y="981" type="line"/>
      <point x="285" y="1284" type="line" smooth="yes"/>
      <point x="283" y="1394"/>
      <point x="415" y="1518"/>
      <point x="513" y="1518" type="qcurve" smooth="yes"/>
      <point x="547" y="1518"/>
      <point x="618" y="1509"/>
      <point x="646" y="1502" type="qcurve" smooth="yes"/>
      <point x="668" y="1496" type="line"/>
      <point x="652" y="1407" type="line"/>
      <point x="627" y="1414" type="line" smooth="yes"/>
      <point x="615" y="1417"/>
      <point x="570" y="1424"/>
      <point x="549" y="1424" type="qcurve" smooth="yes"/>
      <point x="477" y="1424"/>
      <point x="390" y="1351"/>
      <point x="393" y="1267" type="qcurve" smooth="yes"/>
      <point x="403" y="982" type="line"/>
      <point x="660" y="982" type="line"/>
      <point x="660" y="896" type="line"/>
      <point x="405" y="887" type="line"/>
    </contour>
  </outline>
</glyph>
<glyph name="schwa" format="2">
  <advance width="1093"/>
  <unicode hex="0259"/>
  <outline>
    <contour>
      <point x="1000" y="525" type="qcurve" smooth="yes"/>
      <point x="1000" y="299"/>
      <point x="737" y="-22"/>
      <point x="522" y="-22" type="qcurve" smooth="yes"/>
      <point x="334" y="-22"/>
      <point x="112" y="216"/>
      <point x="95" y="436" type="qcurve"/>
      <point x="95" y="489" type="line"/>
      <point x="915" y="489" type="line"/>
      <point x="913" y="409" type="line"/>
      <point x="211" y="409" type="line"/>
      <point x="233" y="247"/>
      <point x="405" y="74"/>
      <point x="537" y="74" type="qcurve" smooth="yes"/>
      <point x="699" y="74"/>
      <point x="877" y="305"/>
      <point x="876" y="505" type="qcurve" smooth="yes"/>
      <point x="875" y="731"/>
      <point x="653" y="964"/>
      <point x="481" y="964" type="qcurve" smooth="yes"/>
      <point x="377" y="964"/>
      <point x="227" y="916"/>
      <point x="179" y="873" type="qcurve"/>
      <point x="136" y="924" type="line"/>
      <point x="184" y="987"/>
      <point x="371" y="1074"/>
      <point x="505" y="1074" type="qcurve" smooth="yes"/>
      <point x="728" y="1074"/>
      <point x="1000" y="791"/>
    </contour>
  </outline>
</glyph>
<glyph name="gravecomb" format="2">
  <advance width="318"/>
  <unicode hex="0300"/>
  <anchor x="159" y="1000" name="_top"/>
  <anchor x="159" y="1497" name="top"/>
  <outline>
    <contour>
      <point x="-131" y="1457" type="qcurve" smooth="yes"/>
      <point x="-134" y="1483"/>
      <point x="-93" y="1521"/>
      <point x="-67" y="1523" type="qcurve" smooth="yes"/>
      <point x="-39" y="1526"/>
      <point x="25" y="1485"/>
      <point x="53" y="1463" type="qcurve" smooth="yes"/>
      <point x="371" y="1225" type="line"/>
      <point x="316" y="1155" type="line"/>
      <point x="-57" y="1376" type="line" smooth="yes"/>
      <point x="-89" y="1392"/>
      <point x="-126" y="1421"/>
    </contour>
  </outline>
</glyph>
<glyph name="acutecomb" format="2">
  <advance width="318"/>
  <unicode hex="0301"/>
  <anchor x="159" y="1000" name="_top"/>
  <anchor x="159" y="1524" name="top"/>
  <outline>
    <contour>
      <point x="448" y="1459" type="qcurve" smooth="yes"/>
      <point x="443" y="1423"/>
      <point x="406" y="1394"/>
      <point x="374" y="1378" type="qcurve" smooth="yes"/>
      <point x="0" y="1156" type="line"/>
      <point x="-55" y="1225" type="line"/>
      <point x="264" y="1465" type="line" smooth="yes"/>
      <point x="292" y="1487"/>
      <point x="356" y="1529"/>
      <point x="384" y="1525" type="qcurve" smooth="yes"/>
      <point x="410" y="1523"/>
      <point x="451" y="1485"/>
    </contour>
  </outline>
</glyph>
<glyph name="circumflexcomb" format="2">
  <advance width="318"/>
  <unicode hex="0302"/>
  <anchor x="159" y="1000" name="_top"/>
  <anchor x="159" y="1539" name="top"/>
  <outline>
    <contour>
      <point x="159" y="1539" type="qcurve" smooth="yes"/>
      <point x="199" y="1539"/>
      <point x="252" y="1508"/>
      <point x="289" y="1466" type="qcurve" smooth="yes"/>
      <point x="511" y="1218" type="line"/>
      <point x="446" y="1156" type="line"/>
      <point x="159" y="1426" type="line"/>
      <point x="-128" y="1156" type="line"/>
      <point x="-193" y="1218" type="line"/>
      <point x="28" y="1464" type="line" smooth="yes"/>
      <point x="72" y="1513"/>
      <point x="119" y="1539"/>
    </contour>
  </outline>
</glyph>
<glyph name="tildecomb" format="2">
  <advance width="318"/>
  <unicode hex="0303"/>
  <anchor x="160" y="1000" name="_top"/>
  <anchor x="160" y="1402" name="top"/>
  <outline>
    <contour>
      <point x="-258" y="1225" type="line"/>
      <point x="-219" y="1288"/>
      <point x="-85" y="1382"/>
      <point x="-15" y="1384" type="qcurve" smooth="yes"/>
      <point x="35" y="1385"/>
      <point x="133" y="1345"/>
      <point x="176" y="1322" type="qcurve" smooth="yes"/>
      <point x="212" y="1304"/>
      <point x="323" y="1253"/>
      <point x="367" y="1255" type="qcurve" smooth="yes"/>
      <point x="415" y="1255"/>
      <point x="497" y="1322"/>
      <point x="525" y="1366" type="qcurve"/>
      <point x="580" y="1299" type="line"/>
      <point x="542" y="1230"/>
      <point x="418" y="1155"/>
      <point x="359" y="1153" type="qcurve" smooth="yes"/>
      <point x="303" y="1152"/>
      <point x="188" y="1198"/>
      <point x="152" y="1217" type="qcurve" smooth="yes"/>
      <point x="112" y="1239"/>
      <point x="15" y="1278"/>
      <point x="-21" y="1277" type="qcurve" smooth="yes"/>
      <point x="-76" y="1276"/>
      <point x="-173" y="1193"/>
      <point x="-199" y="1158" type="qcurve"/>
    </contour>
  </outline>
</glyph>
<glyph name="dieresiscomb" format="2">
  <advance width="318"/>
  <unicode hex="0308"/>
  <anchor x="159" y="1000" name="_top"/>
  <anchor x="159" y="1327" name="top"/>
  <anchor x="159" y="1000" name="_GRKtop"/>
  <outline>
    <contour>
      <point x="318" y="1213" type="qcurve" smooth="yes"/>
      <point x="318" y="1258"/>
      <point x="367" y="1306"/>
      <point x="413" y="1306" type="qcurve" smooth="yes"/>
      <point x="456" y="1306"/>
      <point x="508" y="1255"/>
      <point x="508" y="1213" type="qcurve" smooth="yes"/>
      <point x="508" y="1169"/>
      <point x="459" y="1121"/>
      <point x="413" y="1121" type="qcurve" smooth="yes"/>
      <point x="370" y="1121"/>
      <point x="318" y="1171"/>
    </contour>
    <contour>
      <point x="-190" y="1213" type="qcurve" smooth="yes"/>
      <point x="-190" y="1258"/>
      <point x="-141" y="1306"/>
      <point x="-95" y="1306" type="qcurve" smooth="yes"/>
      <point x="-52" y="1306"/>
      <point x="0" y="1255"/>
      <point x="0" y="1213" type="qcurve" smooth="yes"/>
      <point x="0" y="1169"/>
      <point x="-48" y="1121"/>
      <point x="-95" y="1121" type="qcurve" smooth="yes"/>
      <point x="-138" y="1121"/>
      <point x="-190" y="1171"/>
    </contour>
  </outline>
</glyph>
<glyph name="ringcomb" format="2">
  <advance width="318"/>
  <unicode hex="030A"/>
  <anchor x="159" y="1000" name="_top"/>
  <anchor x="159" y="1565" name="top"/>
  <outline>
    <contour>
      <point x="-61" y="1347" type="qcurve" smooth="yes"/>
      <point x="-61" y="1436"/>
      <point x="67" y="1558"/>
      <point x="159" y="1558" type="qcurve" smooth="yes"/>
      <point x="251" y="1558"/>
      <point x="379" y="1435"/>
      <point x="379" y="1347" type="qcurve" smooth="yes"/>
      <point x="379" y="1258"/>
      <point x="251" y="1136"/>
      <point x="159" y="1136" type="qcurve" smooth="yes"/>
      <point x="67" y="1136"/>
      <point x="-61" y="1259"/>
    </contour>
    <contour>
      <point x="43" y="1347" type="qcurve" smooth="yes"/>
      <point x="43" y="1297"/>
      <point x="107" y="1232"/>
      <point x="159" y="1232" type="qcurve" smooth="yes"/>
      <point x="214" y="1232"/>
      <point x="275" y="1293"/>
      <point x="275" y="1347" type="qcurve" smooth="yes"/>
      <point x="275" y="1397"/>
      <point x="211" y="1462"/>
      <point x="159" y="1462" type="qcurve" smooth="yes"/>
      <point x="104" y="1462"/>
      <point x="43" y="1401"/>
    </contour>
  </outline>
</glyph>
<glyph name="hungarumlautcomb" format="2">
  <advance width="318"/>
  <unicode hex="030B"/>
  <anchor x="178" y="1000" name="_top"/>
  <anchor x="178" y="1534" name="top"/>
  <outline>
    <contour>
      <point x="182" y="1474" type="qcurve" smooth="yes"/>
      <point x="182" y="1427"/>
      <point x="139" y="1390"/>
      <point x="101" y="1357" type="qcurve" smooth="yes"/>
      <point x="-142" y="1150" type="line"/>
      <point x="-216" y="1226" type="line"/>
      <point x="-37" y="1453" type="line" smooth="yes"/>
      <point x="-5" y="1493"/>
      <point x="50" y="1552"/>
      <point x="87" y="1552" type="qcurve" smooth="yes"/>
      <point x="121" y="1552"/>
      <point x="182" y="1509"/>
    </contour>
    <contour>
      <point x="572" y="1474" type="qcurve" smooth="yes"/>
      <point x="572" y="1427"/>
      <point x="529" y="1390"/>
      <point x="491" y="1357" type="qcurve" smooth="yes"/>
      <point x="248" y="1150" type="line"/>
      <point x="174" y="1226" type="line"/>
      <point x="354" y="1453" type="line" smooth="yes"/>
      <point x="386" y="1493"/>
      <point x="440" y="1552"/>
      <point x="477" y="1552" type="qcurve" smooth="yes"/>
      <point x="511" y="1552"/>
      <point x="572" y="1509"/>
    </contour>
  </outline>
</glyph>
<glyph name="caroncomb" format="2">
  <advance width="318"/>
  <unicode hex="030C"/>
  <anchor x="159" y="1000" name="_top"/>
  <anchor x="159" y="1511" name="top"/>
  <outline>
    <contour>
      <point x="159" y="1122" type="qcurve" smooth="yes"/>
      <point x="119" y="1122"/>
      <point x="66" y="1153"/>
      <point x="30" y="1195" type="qcurve" smooth="yes"/>
      <point x="-193" y="1443" type="line"/>
      <point x="-128" y="1505" type="line"/>
      <point x="159" y="1235" type="line"/>
      <point x="446" y="1505" type="line"/>
      <point x="512" y="1443" type="line"/>
      <point x="290" y="1197" type="line" smooth="yes"/>
      <point x="246" y="1148"/>
      <point x="199" y="1122"/>
    </contour>
  </outline>
</glyph>
<glyph name="horncomb" format="2">
  <advance width="318"/>
  <unicode hex="031B"/>
  <anchor x="27" y="1000" name="_topright"/>
  <anchor x="26" y="1256" name="topright"/>
  <outline>
    <contour>
      <point x="26" y="1000" type="line"/>
      <point x="39" y="1000"/>
      <point x="69" y="1000"/>
      <point x="102" y="1000" type="qcurve" smooth="yes"/>
      <point x="168" y="1000"/>
      <point x="225" y="1033"/>
      <point x="225" y="1085" type="qcurve" smooth="yes"/>
      <point x="225" y="1120"/>
      <point x="213" y="1208"/>
      <point x="203" y="1256" type="qcurve"/>
      <point x="311" y="1256" type="line"/>
      <point x="335" y="1206"/>
      <point x="362" y="1106"/>
      <point x="362" y="1063" type="qcurve" smooth="yes"/>
      <point x="362" y="973"/>
      <point x="253" y="874"/>
      <point x="152" y="874" type="qcurve" smooth="yes"/>
      <point x="113" y="874"/>
      <point x="52" y="883"/>
      <point x="26" y="889" type="qcurve"/>
    </contour>
  </outline>
</glyph>
<glyph name="cedillacomb" format="2">
  <advance width="318"/>
  <unicode hex="0327"/>
  <anchor x="164" y="0" name="_bottom"/>
  <anchor x="146" y="-541" name="bottom"/>
  <outline>
    <contour>
      <point x="201" y="3" type="line"/>
      <point x="126" y="-135" type="line"/>
      <point x="145" y="-127"/>
      <point x="204" y="-114"/>
      <point x="236" y="-114" type="qcurve" smooth="yes"/>
      <point x="316" y="-114"/>
      <point x="432" y="-202"/>
      <point x="432" y="-288" type="qcurve" smooth="yes"/>
      <point x="432" y="-382"/>
      <point x="290" y="-494"/>
      <point x="199" y="-494" type="qcurve" smooth="yes"/>
      <point x="110" y="-494"/>
      <point x="-47" y="-450"/>
      <point x="-99" y="-408" type="qcurve"/>
      <point x="-56" y="-317" type="line"/>
      <point x="-8" y="-356"/>
      <point x="114" y="-396"/>
      <point x="182" y="-396" type="qcurve" smooth="yes"/>
      <point x="235" y="-396"/>
      <point x="326" y="-340"/>
      <point x="326" y="-285" type="qcurve" smooth="yes"/>
      <point x="326" y="-238"/>
      <point x="242" y="-196"/>
      <point x="181" y="-196" type="qcurve" smooth="yes"/>
      <point x="146" y="-196"/>
      <point x="89" y="-206"/>
      <point x="67" y="-214" type="qcurve"/>
      <point x="18" y="-153" type="line"/>
      <point x="125" y="48" type="line"/>
    </contour>
  </outline>
</glyph>
<glyph name="ogonekcomb" format="2">
  <advance width="318"/>
  <unicode hex="0328"/>
  <anchor x="210" y="0" name="_ogonek"/>
  <anchor x="135" y="-463" name="bottom"/>
  <outline>
    <contour>
      <point x="54" y="-240" type="qcurve" smooth="yes"/>
      <point x="54" y="-282"/>
      <point x="112" y="-332"/>
      <point x="161" y="-332" type="qcurve" smooth="yes"/>
      <point x="212" y="-332"/>
      <point x="335" y="-291"/>
      <point x="384" y="-251" type="qcurve"/>
      <point x="434" y="-335" type="line"/>
      <point x="397" y="-379"/>
      <point x="245" y="-463"/>
      <point x="136" y="-463" type="qcurve" smooth="yes"/>
      <point x="27" y="-463"/>
      <point x="-100" y="-369"/>
      <point x="-100" y="-287" type="qcurve" smooth="yes"/>
      <point x="-100" y="-202"/>
      <point x="22" y="-32"/>
      <point x="102" y="32" type="qcurve" smooth="yes"/>
      <point x="127" y="52" type="line"/>
      <point x="210" y="0" type="line"/>
      <point x="193" y="-18" type="line" smooth="yes"/>
      <point x="122" y="-93"/>
      <point x="54" y="-190"/>
    </contour>
  </outline>
</glyph>
<glyph name="brevebelowcomb" format="2">
  <advance width="318"/>
  <unicode hex="032E"/>
  <anchor x="159" y="0" name="_bottom"/>
  <anchor x="159" y="-463" name="bottom"/>
  <outline>
    <contour>
      <point x="450" y="-127" type="qcurve"/>
      <point x="543" y="-197" type="line"/>
      <point x="504" y="-296"/>
      <point x="303" y="-463"/>
      <point x="159" y="-463" type="qcurve" smooth="yes"/>
      <point x="31" y="-463"/>
      <point x="-176" y="-310"/>
      <point x="-224" y="-196" type="qcurve"/>
      <point x="-124" y="-127" type="line"/>
      <point x="-81" y="-190"/>
      <point x="64" y="-294"/>
      <point x="159" y="-294" type="qcurve" smooth="yes"/>
      <point x="261" y="-294"/>
      <point x="407" y="-195"/>
    </contour>
  </outline>
</glyph>
<glyph name="numeralsign" format="2">
  <advance width="401"/>
  <unicode hex="0374"/>
  <outline>
    <contour>
      <point x="137" y="1000" type="line"/>
      <point x="46" y="1033" type="line"/>
      <point x="152" y="1500" type="line"/>
      <point x="311" y="1482" type="line"/>
      <point x="337" y="1437" type="line"/>
    </contour>
  </outline>
</glyph>
<glyph name="lownumeralsign" format="2">
  <advance width="401"/>
  <unicode hex="0375"/>
  <outline>
    <contour>
      <point x="172" y="-235" type="line"/>
      <point x="13" y="-217" type="line"/>
      <point x="-13" y="-172" type="line"/>
      <point x="187" y="265" type="line"/>
      <point x="278" y="232" type="line"/>
    </contour>
  </outline>
</glyph>
<glyph name="Gamma" format="2">
  <advance width="1174"/>
  <unicode hex="0393"/>
  <anchor x="663" y="1500" name="top"/>
  <anchor x="369" y="760" name="center"/>
  <outline>
    <contour>
      <point x="62" y="0" type="line"/>
      <point x="62" y="98" type="line"/>
      <point x="290" y="135" type="line"/>
      <point x="291" y="760" type="line"/>
      <point x="290" y="1354" type="line"/>
      <point x="62" y="1388" type="line"/>
      <point x="62" y="1500" type="line"/>
      <point x="1117" y="1500" type="line"/>
      <point x="1117" y="1048" type="line"/>
      <point x="1007" y="1048" type="line"/>
      <point x="970" y="1401" type="line"/>
      <point x="444" y="1401" type="line"/>
      <point x="414" y="1381" type="line"/>
      <point x="412" y="760" type="line"/>
      <point x="414" y="130" type="line"/>
      <point x="662" y="98" type="line"/>
      <point x="662" y="0" type="line"/>
    </contour>
  </outline>
</glyph>
<glyph name="Delta" format="2">
  <advance width="1630"/>
  <unicode hex="0394"/>
  <outline>
    <contour>
      <point x="163" y="0" type="line"/>
      <point x="163" y="84" type="line"/>
      <point x="359" y="535" type="line"/>
      <point x="773" y="1508" type="line"/>
      <point x="860" y="1508" type="line"/>
      <point x="1275" y="547" type="line"/>
      <point x="1476" y="85" type="line"/>
      <point x="1476" y="0" type="line"/>
    </contour>
    <contour>
      <point x="308" y="91" type="line"/>
      <point x="813" y="79" type="line"/>
      <point x="1324" y="90" type="line"/>
      <point x="1333" y="96" type="line"/>
      <point x="1145" y="548" type="line"/>
      <point x="863" y="1207" type="line"/>
      <point x="817" y="1322" type="line"/>
      <point x="804" y="1322" type="line"/>
      <point x="758" y="1204" type="line"/>
      <point x="479" y="535" type="line"/>
      <point x="298" y="97" type="line"/>
    </contour>
  </outline>
</glyph>
<glyph name="Theta" format="2">
  <advance width="1751"/>
  <unicode hex="0398"/>
  <outline>
    <contour>
      <point x="885" y="-31" type="qcurve"/>
      <point x="544" y="-31"/>
      <point x="106" y="396"/>
      <point x="106" y="727" type="qcurve" smooth="yes"/>
      <point x="106" y="1031"/>
      <point x="530" y="1520"/>
      <point x="875" y="1520" type="qcurve" smooth="yes"/>
      <point x="1222" y="1520"/>
      <point x="1645" y="1097"/>
      <point x="1645" y="761" type="qcurve" smooth="yes"/>
      <point x="1645" y="463"/>
      <point x="1228" y="-31"/>
    </contour>
    <contour>
      <point x="880" y="79" type="qcurve"/>
      <point x="1184" y="79"/>
      <point x="1514" y="394"/>
      <point x="1514" y="745" type="qcurve"/>
      <point x="1514" y="1033"/>
      <point x="1149" y="1403"/>
      <point x="880" y="1403" type="qcurve"/>
      <point x="571" y="1403"/>
      <point x="237" y="1102"/>
      <point x="237" y="804" type="qcurve" smooth="yes"/>
      <point x="237" y="497"/>
      <point x="647" y="79"/>
    </contour>
    <contour>
      <point x="459" y="677" type="line"/>
      <point x="459" y="796" type="line"/>
      <point x="469" y="796" type="line"/>
      <point x="872" y="786" type="line"/>
      <point x="881" y="786" type="line"/>
      <point x="1283" y="796" type="line"/>
      <point x="1293" y="796" type="line"/>
      <point x="1293" y="677" type="line"/>
      <point x="1283" y="677" type="line"/>
      <point x="881" y="685" type="line"/>
      <point x="872" y="685" type="line"/>
      <point x="469" y="677" type="line"/>
    </contour>
  </outline>
</glyph>
<glyph name="Lambda" format="2">
  <advance width="1660"/>
  <unicode hex="039B"/>
  <outline>
    <contour>
      <point x="4" y="0" type="line"/>
      <point x="4" y="98" type="line"/>
      <point x="211" y="133" type="line"/>
      <point x="387" y="535" type="line"/>
      <point x="800" y="1508" type="line"/>
      <point x="888" y="1508" type="line"/>
      <point x="1301" y="549" type="line"/>
      <point x="1482" y="133" type="line"/>
      <point x="1679" y="98" type="line"/>
      <point x="1679" y="0" type="line"/>
      <point x="1147" y="0" type="line"/>
      <point x="1147" y="98" type="line"/>
      <point x="1348" y="129" type="line"/>
      <point x="1173" y="548" type="line"/>
      <point x="890" y="1207" type="line"/>
      <point x="845" y="1322" type="line"/>
      <point x="832" y="1322" type="line"/>
      <point x="785" y="1204" type="line"/>
      <point x="508" y="536" type="line"/>
      <point x="338" y="128" type="line"/>
      <point x="535" y="98" type="line"/>
      <point x="535" y="0" type="line"/>
    </contour>
  </outline>
</glyph>
<glyph name="Xi" format="2">
  <advance width="1514"/>
  <unicode hex="039E"/>
  <outline>
    <contour>
      <point x="105" y="0" type="line"/>
      <point x="54" y="430" type="line"/>
      <point x="161" y="430" type="line"/>
      <point x="245" y="93" type="line"/>
      <point x="756" y="80" type="line"/>
      <point x="1268" y="93" type="line"/>
      <point x="1353" y="430" type="line"/>
      <point x="1459" y="430" type="line"/>
      <point x="1408" y="0" type="line"/>
    </contour>
    <contour>
      <point x="301" y="506" type="line"/>
      <point x="301" y="966" type="line"/>
      <point x="389" y="966" type="line"/>
      <point x="424" y="797" type="line"/>
      <point x="756" y="781" type="line"/>
      <point x="1090" y="797" type="line"/>
      <point x="1125" y="966" type="line"/>
      <point x="1212" y="966" type="line"/>
      <point x="1212" y="506" type="line"/>
      <point x="1125" y="506" type="line"/>
      <point x="1090" y="675" type="line"/>
      <point x="756" y="692" type="line"/>
      <point x="424" y="675" type="line"/>
      <point x="389" y="506" type="line"/>
    </contour>
    <contour>
      <point x="100" y="1046" type="line"/>
      <point x="100" y="1500" type="line"/>
      <point x="1413" y="1500" type="line"/>
      <point x="1413" y="1046" type="line"/>
      <point x="1307" y="1046" type="line"/>
      <point x="1275" y="1400" type="line"/>
      <point x="756" y="1413" type="line"/>
      <point x="239" y="1400" type="line"/>
      <point x="207" y="1046" type="line"/>
    </contour>
  </outline>
</glyph>
<glyph name="Pi" format="2">
  <advance width="1799"/>
  <unicode hex="03A0"/>
  <outline>
    <contour>
      <point x="88" y="0" type="line"/>
      <point x="88" y="98" type="line"/>
      <point x="316" y="133" type="line"/>
      <point x="317" y="754" type="line"/>
      <point x="316" y="1354" type="line"/>
      <point x="88" y="1388" type="line"/>
      <point x="88" y="1500" type="line"/>
      <point x="1711" y="1500" type="line"/>
      <point x="1711" y="1388" type="line"/>
      <point x="1483" y="1354" type="line"/>
      <point x="1482" y="754" type="line"/>
      <point x="1483" y="133" type="line"/>
      <point x="1711" y="98" type="line"/>
      <point x="1711" y="0" type="line"/>
      <point x="1132" y="0" type="line"/>
      <point x="1132" y="98" type="line"/>
      <point x="1360" y="133" type="line"/>
      <point x="1361" y="754" type="line"/>
      <point x="1360" y="1374" type="line"/>
      <point x="1321" y="1401" type="line"/>
      <point x="479" y="1401" type="line"/>
      <point x="440" y="1374" type="line"/>
      <point x="438" y="754" type="line"/>
      <point x="440" y="133" type="line"/>
      <point x="668" y="98" type="line"/>
      <point x="668" y="0" type="line"/>
    </contour>
  </outline>
</glyph>
<glyph name="Sigma" format="2">
  <advance width="1322"/>
  <unicode hex="03A3"/>
  <outline>
    <contour>
      <point x="67" y="0" type="line"/>
      <point x="41" y="79" type="line"/>
      <point x="624" y="713" type="line"/>
      <point x="624" y="723" type="line"/>
      <point x="90" y="1410" type="line"/>
      <point x="90" y="1500" type="line"/>
      <point x="1250" y="1500" type="line"/>
      <point x="1250" y="1046" type="line"/>
      <point x="1128" y="1046" type="line"/>
      <point x="1092" y="1401" type="line"/>
      <point x="263" y="1401" type="line"/>
      <point x="254" y="1393" type="line"/>
      <point x="759" y="737" type="line"/>
      <point x="759" y="685" type="line"/>
      <point x="226" y="97" type="line"/>
      <point x="234" y="91" type="line"/>
      <point x="1094" y="91" type="line"/>
      <point x="1182" y="430" type="line"/>
      <point x="1304" y="430" type="line"/>
      <point x="1251" y="0" type="line"/>
    </contour>
  </outline>
</glyph>
<glyph name="Phi" format="2">
  <advance width="1756"/>
  <unicode hex="03A6"/>
  <outline>
    <contour>
      <point x="616" y="-24" type="line"/>
      <point x="616" y="74" type="line"/>
      <point x="818" y="109" type="line"/>
      <point x="820" y="270" type="line"/>
      <point x="826" y="270" type="line"/>
      <point x="828" y="745" type="line"/>
      <point x="927" y="745" type="line"/>
      <point x="929" y="270" type="line"/>
      <point x="935" y="270" type="line"/>
      <point x="937" y="109" type="line"/>
      <point x="1138" y="74" type="line"/>
      <point x="1138" y="-24" type="line"/>
    </contour>
    <contour>
      <point x="828" y="745" type="line"/>
      <point x="826" y="1233" type="line"/>
      <point x="820" y="1233" type="line"/>
      <point x="818" y="1374" type="line"/>
      <point x="616" y="1408" type="line"/>
      <point x="616" y="1520" type="line"/>
      <point x="1138" y="1520" type="line"/>
      <point x="1138" y="1408" type="line"/>
      <point x="937" y="1374" type="line"/>
      <point x="935" y="1233" type="line"/>
      <point x="929" y="1233" type="line"/>
      <point x="927" y="745" type="line"/>
    </contour>
    <contour>
      <point x="878" y="224" type="qcurve" smooth="yes"/>
      <point x="427" y="224"/>
      <point x="60" y="500"/>
      <point x="60" y="703" type="qcurve"/>
      <point x="60" y="972"/>
      <point x="526" y="1284"/>
      <point x="878" y="1284" type="qcurve" smooth="yes"/>
      <point x="1328" y="1284"/>
      <point x="1696" y="1015"/>
      <point x="1696" y="817" type="qcurve" smooth="yes"/>
      <point x="1696" y="536"/>
      <point x="1299" y="224"/>
    </contour>
    <contour>
      <point x="878" y="318" type="qcurve"/>
      <point x="1317" y="318"/>
      <point x="1571" y="521"/>
      <point x="1571" y="772" type="qcurve" smooth="yes"/>
      <point x="1571" y="989"/>
      <point x="1283" y="1183"/>
      <point x="875" y="1183" type="qcurve"/>
      <point x="507" y="1183"/>
      <point x="187" y="980"/>
      <point x="187" y="729" type="qcurve" smooth="yes"/>
      <point x="187" y="486"/>
      <point x="521" y="318"/>
    </contour>
  </outline>
</glyph>
<glyph name="Psi" format="2">
  <advance width="1923"/>
  <unicode hex="03A8"/>
  <outline>
    <contour>
      <point x="660" y="0" type="line"/>
      <point x="660" y="100" type="line"/>
      <point x="899" y="135" type="line"/>
      <point x="900" y="515" type="line"/>
      <point x="904" y="515" type="line"/>
      <point x="904" y="811" type="line"/>
      <point x="899" y="1352" type="line"/>
      <point x="700" y="1386" type="line"/>
      <point x="700" y="1500" type="line"/>
      <point x="1223" y="1500" type="line"/>
      <point x="1223" y="1386" type="line"/>
      <point x="1024" y="1352" type="line"/>
      <point x="1019" y="811" type="line"/>
      <point x="1019" y="515" type="line"/>
      <point x="1023" y="515" type="line"/>
      <point x="1024" y="135" type="line"/>
      <point x="1263" y="100" type="line"/>
      <point x="1263" y="0" type="line"/>
    </contour>
    <contour>
      <point x="961" y="470" type="qcurve"/>
      <point x="565" y="470"/>
      <point x="287" y="716"/>
      <point x="262" y="1007" type="qcurve" smooth="yes"/>
      <point x="232" y="1352" type="line"/>
      <point x="44" y="1386" type="line"/>
      <point x="44" y="1500" type="line"/>
      <point x="312" y="1500" type="line"/>
      <point x="345" y="1477" type="line"/>
      <point x="385" y="1013" type="line" smooth="yes"/>
      <point x="410" y="722"/>
      <point x="669" y="566"/>
      <point x="961" y="566" type="qcurve"/>
      <point x="1253" y="566"/>
      <point x="1513" y="722"/>
      <point x="1538" y="1013" type="qcurve" smooth="yes"/>
      <point x="1578" y="1477" type="line"/>
      <point x="1611" y="1500" type="line"/>
      <point x="1879" y="1500" type="line"/>
      <point x="1879" y="1386" type="line"/>
      <point x="1691" y="1352" type="line"/>
      <point x="1661" y="1007" type="line" smooth="yes"/>
      <point x="1636" y="716"/>
      <point x="1357" y="470"/>
    </contour>
  </outline>
</glyph>
<glyph name="Omega" format="2">
  <advance width="1678"/>
  <unicode hex="03A9"/>
  <anchor x="149" y="1500" name="tonos"/>
  <outline>
    <contour>
      <point x="46" y="0" type="line"/>
      <point x="5" y="390" type="line"/>
      <point x="101" y="390" type="line"/>
      <point x="178" y="91" type="line"/>
      <point x="572" y="91" type="line"/>
      <point x="586" y="232" type="line"/>
      <point x="365" y="300"/>
      <point x="100" y="641"/>
      <point x="100" y="872" type="qcurve"/>
      <point x="100" y="1160"/>
      <point x="492" y="1520"/>
      <point x="839" y="1520" type="qcurve"/>
      <point x="1183" y="1520"/>
      <point x="1577" y="1162"/>
      <point x="1577" y="871" type="qcurve"/>
      <point x="1577" y="642"/>
      <point x="1311" y="300"/>
      <point x="1092" y="232" type="qcurve"/>
      <point x="1106" y="91" type="line"/>
      <point x="1499" y="91" type="line"/>
      <point x="1577" y="390" type="line"/>
      <point x="1673" y="390" type="line"/>
      <point x="1631" y="0" type="line"/>
      <point x="1013" y="0" type="line"/>
      <point x="984" y="318" type="line"/>
      <point x="1211" y="382"/>
      <point x="1446" y="657"/>
      <point x="1446" y="872" type="qcurve"/>
      <point x="1446" y="1137"/>
      <point x="1122" y="1403"/>
      <point x="839" y="1403" type="qcurve"/>
      <point x="555" y="1403"/>
      <point x="231" y="1136"/>
      <point x="231" y="872" type="qcurve"/>
      <point x="231" y="657"/>
      <point x="467" y="382"/>
      <point x="693" y="318" type="qcurve"/>
      <point x="664" y="0" type="line"/>
    </contour>
  </outline>
</glyph>
<glyph name="alpha" format="2">
  <advance width="1304"/>
  <unicode hex="03B1"/>
  <anchor x="519" y="1000" name="GRKtop"/>
  <outline>
    <contour>
      <point x="471" y="-9" type="qcurve" smooth="yes"/>
      <point x="287" y="-9"/>
      <point x="68" y="262"/>
      <point x="68" y="508" type="qcurve"/>
      <point x="68" y="712"/>
      <point x="296" y="1020"/>
      <point x="503" y="1020" type="qcurve"/>
      <point x="692" y="1020"/>
      <point x="885" y="754"/>
      <point x="934" y="521" type="qcurve"/>
      <point x="941" y="521" type="line"/>
      <point x="1031" y="197"/>
      <point x="1123" y="92"/>
      <point x="1195" y="91" type="qcurve" smooth="yes"/>
      <point x="1254" y="91" type="line"/>
      <point x="1254" y="24" type="line"/>
      <point x="1117" y="-8" type="line"/>
      <point x="1034" y="-8"/>
      <point x="942" y="115"/>
      <point x="872" y="425" type="qcurve"/>
      <point x="863" y="425" type="line"/>
      <point x="802" y="715"/>
      <point x="652" y="933"/>
      <point x="504" y="933" type="qcurve"/>
      <point x="361" y="933"/>
      <point x="194" y="704"/>
      <point x="194" y="508" type="qcurve"/>
      <point x="194" y="310"/>
      <point x="344" y="97"/>
      <point x="487" y="97" type="qcurve"/>
      <point x="597" y="97"/>
      <point x="772" y="306"/>
      <point x="879" y="571" type="qcurve"/>
      <point x="895" y="571" type="line"/>
      <point x="1073" y="979" type="line"/>
      <point x="1208" y="1000" type="line"/>
      <point x="1231" y="964" type="line"/>
      <point x="942" y="415" type="line"/>
      <point x="925" y="415" type="line"/>
      <point x="816" y="167"/>
      <point x="607" y="-9"/>
    </contour>
  </outline>
</glyph>
